<svg width="315" height="210" viewBox="0 0 315 210" fill="none" xmlns="http://www.w3.org/2000/svg">
<g clip-path="url(#clip0_1_376)">
<path d="M250.939 92.9344L251.874 85.4759C252.207 82.8252 253.584 80.4145 255.702 78.774C257.82 77.1335 260.507 76.3977 263.171 76.7284C265.834 77.0591 268.257 78.4292 269.905 80.5374C271.554 82.6455 272.293 85.319 271.961 87.9696L271.026 95.4281C270.981 95.784 270.796 96.1076 270.511 96.3279C270.227 96.5482 269.866 96.6472 269.508 96.6032L252.12 94.4444C251.762 94.3996 251.437 94.2154 251.216 93.9323C250.995 93.6493 250.895 93.2903 250.939 92.9344Z" fill="#2F2E41"/>
<path d="M259.268 95.1593C263.367 95.1593 266.689 91.8532 266.689 87.7749C266.689 83.6967 263.367 80.3906 259.268 80.3906C255.17 80.3906 251.848 83.6967 251.848 87.7749C251.848 91.8532 255.17 95.1593 259.268 95.1593Z" fill="#FFB8B8"/>
<path d="M249.424 85.7773C249.689 83.6815 250.778 81.776 252.454 80.4787C254.129 79.1815 256.253 78.5985 258.359 78.8576L259.858 79.0438C261.964 79.3076 263.879 80.392 265.183 82.0591C266.486 83.7262 267.072 85.8397 266.812 87.9361L266.793 88.0852L263.625 87.6919L262.922 84.547L262.329 87.531L260.692 87.3277L260.337 85.741L260.037 87.2465L249.405 85.9265L249.424 85.7773Z" fill="#2F2E41"/>
<path d="M222.975 114.116C223.202 114.559 223.524 114.948 223.918 115.254C224.312 115.56 224.768 115.776 225.255 115.888C225.742 115.999 226.248 116.003 226.736 115.899C227.225 115.795 227.685 115.585 228.083 115.285L234.823 119.214L238.221 115.721L228.625 110.305C228.074 109.672 227.309 109.263 226.475 109.154C225.641 109.045 224.796 109.244 224.099 109.714C223.403 110.183 222.904 110.891 222.697 111.702C222.489 112.514 222.589 113.373 222.975 114.116Z" fill="#FFB8B8"/>
<path d="M245.065 121.176C240.093 121.176 231.345 118.962 230.861 118.838L230.708 118.799L232.085 111.862L245.447 114.488L252.706 104.316L261.04 103.473L260.807 103.777C260.699 103.919 249.956 117.993 248.284 120.353C247.862 120.949 246.657 121.176 245.065 121.176Z" fill="#3F3D56"/>
<path d="M246.398 147.213L246.199 147.118C246.156 147.098 241.933 145.054 239.745 141.062C237.568 137.09 247.76 120.239 248.473 119.07L248.483 113.719L252.15 103.867L256.826 101.237L252.811 110.559L246.398 147.213Z" fill="#3F3D56"/>
<path d="M241.713 204.729L237.244 204.729L235.118 187.575L241.714 187.576L241.713 204.729Z" fill="#FFB8B8"/>
<path d="M242.853 209.04L228.443 209.04V208.858C228.443 207.378 229.034 205.958 230.086 204.912C231.137 203.865 232.564 203.277 234.051 203.277H234.052L242.853 203.277L242.853 209.04Z" fill="#2F2E41"/>
<path d="M289.716 200.832L285.469 202.216L278.081 186.574L284.349 184.531L289.716 200.832Z" fill="#FFB8B8"/>
<path d="M292.148 204.575L278.454 209.04L278.397 208.868C277.934 207.461 278.051 205.929 278.723 204.608C279.395 203.288 280.567 202.287 281.981 201.826L281.981 201.826L290.345 199.099L292.148 204.575Z" fill="#2F2E41"/>
<path d="M281.063 198.027L268.323 176.862L257.568 154.249L247.89 174.224L244.046 200.094L230.563 200.28L230.616 200.071L251.249 118.487L267.408 120.889L266.673 131.504L267.111 132.124C270.761 137.284 274.535 142.62 272.371 148.371L278.507 166.504L292.091 196.697L281.063 198.027Z" fill="#2F2E41"/>
<path d="M251.987 136.169C249.646 136.169 246.974 133.508 248.36 128.966L248.271 128.901L251.599 114.265C248.694 110.131 252.525 106.719 252.883 106.414L254.712 103.139L262.779 98.0479L266.86 131.795L266.8 131.853C263.852 134.66 253.952 136.169 251.987 136.169Z" fill="#3333FF"/>
<path d="M268.508 143.784C268.187 143.789 267.867 143.755 267.555 143.683C267.241 143.605 266.733 143.208 265.949 140.665C262.828 130.555 259.145 100.137 261.821 97.1604L261.882 97.0922L266.277 97.821C266.642 97.5527 268.559 96.2211 270.328 96.4527C270.692 96.4983 271.043 96.6177 271.359 96.8035C271.674 96.9894 271.949 97.2377 272.164 97.5332L272.195 97.5727L273.595 117.392L278.723 140.716L278.6 140.771C278.302 140.906 271.898 143.784 268.508 143.784Z" fill="#3F3D56"/>
<path d="M265.553 136.037C266.052 136.021 266.542 135.895 266.987 135.67C267.433 135.445 267.823 135.125 268.131 134.733C268.439 134.342 268.657 133.887 268.769 133.403C268.882 132.918 268.886 132.415 268.782 131.929L275.215 127.52L273.476 122.976L264.479 129.33C263.67 129.558 262.972 130.074 262.519 130.779C262.067 131.485 261.89 132.331 262.022 133.158C262.154 133.985 262.587 134.735 263.237 135.265C263.888 135.796 264.712 136.071 265.553 136.037Z" fill="#FFB8B8"/>
<path d="M273.092 131.053L267.362 126.871L275.416 115.941L269.235 105.087L272.001 97.2178L272.18 97.5567C272.263 97.7145 280.517 113.363 281.957 115.871C283.455 118.479 273.612 130.424 273.192 130.931L273.092 131.053Z" fill="#3F3D56"/>
<path d="M144.201 180.247L139.324 178.203L135.979 153.875H91.4282L87.802 178.104L83.4389 180.275C83.2302 180.379 83.0628 180.55 82.9639 180.76C82.8649 180.97 82.8403 181.208 82.8939 181.434C82.9476 181.66 83.0763 181.861 83.2593 182.005C83.4424 182.149 83.6689 182.228 83.9023 182.228H143.799C144.038 182.228 144.27 182.146 144.455 181.995C144.64 181.844 144.767 181.634 144.815 181.401C144.862 181.168 144.827 180.925 144.715 180.715C144.603 180.504 144.421 180.339 144.201 180.247Z" fill="#E6E6E6"/>
<path d="M223.37 157.112H4.52577C3.37755 157.109 2.27725 156.653 1.46624 155.845C0.655242 155.036 0.199776 153.94 0.199768 152.797V122.087H227.696V152.797C227.696 153.94 227.241 155.036 226.43 155.845C225.619 156.653 224.518 157.109 223.37 157.112Z" fill="#CCCCCC"/>
<path d="M227.925 136.601H0V5.20115C0.00160105 3.82218 0.552796 2.50014 1.53266 1.52508C2.51253 0.550011 3.84105 0.00154652 5.22677 0H222.698C224.084 0.00154297 225.412 0.550007 226.392 1.52507C227.372 2.50013 227.923 3.82217 227.925 5.20115V136.601Z" fill="#3F3D56"/>
<path d="M214.312 127.064H13.6131C12.5448 127.063 11.5206 126.64 10.7652 125.888C10.0097 125.137 9.58482 124.118 9.58362 123.054V13.5466C9.58481 12.4835 10.0097 11.4642 10.7651 10.7125C11.5205 9.96072 12.5447 9.53784 13.6131 9.53662H214.312C215.38 9.53784 216.404 9.96072 217.16 10.7125C217.915 11.4642 218.34 12.4835 218.341 13.5466V123.054C218.34 124.118 217.915 125.137 217.16 125.888C216.404 126.64 215.38 127.063 214.312 127.064Z" fill="white"/>
<path d="M170.249 182.481H57.4731C57.3576 182.484 57.2445 182.448 57.1514 182.38C57.0584 182.312 56.9906 182.215 56.9587 182.104C56.9388 182.029 56.9365 181.95 56.9519 181.874C56.9674 181.798 57.0002 181.726 57.0479 181.664C57.0956 181.603 57.1569 181.553 57.227 181.519C57.2971 181.484 57.3742 181.466 57.4524 181.466H170.207C170.329 181.462 170.448 181.499 170.546 181.571C170.644 181.643 170.715 181.746 170.747 181.863C170.763 181.937 170.763 182.014 170.746 182.088C170.728 182.163 170.694 182.232 170.647 182.291C170.599 182.35 170.538 182.398 170.469 182.431C170.4 182.464 170.325 182.481 170.249 182.481Z" fill="#CCCCCC"/>
<path d="M212.169 27.2407H163.711V64.081H212.169V27.2407Z" fill="#F2F2F2"/>
<path d="M209.761 29.0713H166.119V62.2504H209.761V29.0713Z" fill="white"/>
<path d="M188.707 53.6822C188.713 53.6822 188.718 53.6821 188.724 53.6818C191.678 53.528 194.463 52.2603 196.511 50.1364C198.56 48.0125 199.718 45.1919 199.751 42.2483C199.784 39.3046 198.69 36.4589 196.69 34.2899C194.69 32.1208 191.934 30.7913 188.984 30.5716C188.948 30.5688 188.911 30.5734 188.877 30.5854C188.842 30.5973 188.81 30.6162 188.784 30.6409C188.757 30.6652 188.735 30.6947 188.721 30.7277C188.706 30.7606 188.698 30.7962 188.698 30.8323L188.443 53.4147C188.443 53.4849 188.47 53.5525 188.519 53.6027C188.569 53.6528 188.636 53.6814 188.707 53.6822Z" fill="#3F3D56"/>
<path d="M179.581 34.3057C179.672 34.3068 179.758 34.3435 179.822 34.4079L187.634 42.3584C187.665 42.3902 187.69 42.4279 187.707 42.4693C187.724 42.5106 187.732 42.5549 187.731 42.5995L187.61 53.4053C187.609 53.4517 187.599 53.4975 187.58 53.5398C187.561 53.5822 187.534 53.6202 187.499 53.6514C187.465 53.683 187.424 53.7072 187.38 53.7225C187.335 53.7378 187.288 53.7439 187.241 53.7404C185.069 53.5787 182.986 52.8173 181.224 51.5419C179.463 50.2665 178.094 48.5277 177.271 46.5207C176.449 44.5137 176.204 42.3181 176.567 40.1807C176.929 38.0433 177.883 36.0487 179.321 34.421C179.352 34.386 179.39 34.3576 179.433 34.3378C179.475 34.318 179.522 34.3071 179.569 34.3058C179.573 34.3057 179.577 34.3056 179.581 34.3057Z" fill="#E6E6E6"/>
<path d="M187.525 30.4795C187.612 30.4806 187.696 30.5145 187.759 30.5746C187.793 30.6066 187.82 30.6452 187.838 30.688C187.856 30.7308 187.865 30.7769 187.864 30.8233L187.754 40.573C187.753 40.6401 187.733 40.7055 187.694 40.7609C187.656 40.8163 187.603 40.8592 187.54 40.8842C187.477 40.9092 187.409 40.9151 187.343 40.9013C187.277 40.8875 187.216 40.8545 187.169 40.8065L180.352 33.8687C180.32 33.8357 180.294 33.7965 180.278 33.7535C180.261 33.7105 180.253 33.6645 180.255 33.6184C180.257 33.5723 180.268 33.5271 180.288 33.4854C180.307 33.4437 180.336 33.4065 180.37 33.376C182.353 31.6393 184.866 30.6189 187.504 30.4799C187.511 30.4796 187.518 30.4794 187.525 30.4795Z" fill="#3333FF"/>
<path d="M184.013 58.3648C184.009 58.7761 183.882 59.1768 183.648 59.5162C183.415 59.8556 183.085 60.1185 182.702 60.2717C182.318 60.4248 181.897 60.4613 181.493 60.3765C181.088 60.2918 180.718 60.0896 180.429 59.7955C180.14 59.5014 179.945 59.1286 179.869 58.7243C179.793 58.32 179.839 57.9023 180.002 57.5241C180.164 57.1458 180.436 56.824 180.782 56.5994C181.128 56.3747 181.534 56.2572 181.947 56.2618C182.501 56.2687 183.03 56.4939 183.417 56.8881C183.804 57.2823 184.019 57.8134 184.013 58.3648Z" fill="#3333FF"/>
<path d="M189.984 58.4317C189.979 58.843 189.852 59.2437 189.619 59.5831C189.385 59.9225 189.056 60.1854 188.672 60.3386C188.289 60.4917 187.868 60.5282 187.464 60.4434C187.059 60.3587 186.689 60.1565 186.4 59.8624C186.111 59.5683 185.916 59.1955 185.84 58.7912C185.764 58.3869 185.81 57.9692 185.973 57.591C186.135 57.2127 186.407 56.8909 186.753 56.6663C187.099 56.4416 187.504 56.3241 187.918 56.3287C188.472 56.3356 189 56.5608 189.388 56.955C189.775 57.3493 189.99 57.8803 189.984 58.4317Z" fill="#3F3D56"/>
<path d="M195.955 58.4981C195.95 58.9094 195.823 59.3101 195.59 59.6495C195.356 59.9889 195.027 60.2518 194.643 60.405C194.26 60.5581 193.839 60.5946 193.434 60.5098C193.03 60.4251 192.66 60.2229 192.371 59.9288C192.082 59.6347 191.887 59.2619 191.811 58.8576C191.735 58.4533 191.781 58.0356 191.943 57.6574C192.106 57.2791 192.377 56.9573 192.724 56.7327C193.07 56.508 193.475 56.3905 193.889 56.3952C194.443 56.402 194.971 56.6272 195.359 57.0214C195.746 57.4157 195.96 57.9467 195.955 58.4981Z" fill="#E6E6E6"/>
<path d="M211.659 69.8794H163.201V106.72H211.659V69.8794Z" fill="#F2F2F2"/>
<path d="M209.251 71.71H165.609V104.889H209.251V71.71Z" fill="white"/>
<path d="M173.014 82.6148C174.015 82.6148 174.826 81.8074 174.826 80.8115C174.826 79.8156 174.015 79.0083 173.014 79.0083C172.013 79.0083 171.202 79.8156 171.202 80.8115C171.202 81.8074 172.013 82.6148 173.014 82.6148Z" fill="#3F3D56"/>
<path d="M202.129 79.4084C202.29 79.4081 202.45 79.4396 202.6 79.5009C202.749 79.5622 202.885 79.6523 202.999 79.7659C203.113 79.8795 203.204 80.0144 203.266 80.1629C203.328 80.3114 203.36 80.4705 203.36 80.6313C203.36 80.7921 203.328 80.9513 203.266 81.0998C203.204 81.2483 203.113 81.3832 202.999 81.4968C202.885 81.6103 202.749 81.7004 202.6 81.7617C202.45 81.8231 202.29 81.8545 202.129 81.8542H183.071C182.745 81.8542 182.432 81.7254 182.202 81.496C181.971 81.2667 181.842 80.9556 181.842 80.6313C181.842 80.307 181.971 79.9959 182.202 79.7666C182.432 79.5372 182.745 79.4084 183.071 79.4084H202.129ZM202.129 79.1089H183.071C182.87 79.1086 182.67 79.1477 182.485 79.2241C182.299 79.3005 182.13 79.4126 181.988 79.554C181.845 79.6954 181.732 79.8633 181.655 80.0482C181.578 80.233 181.539 80.4312 181.539 80.6313C181.539 80.8314 181.578 81.0296 181.655 81.2144C181.732 81.3993 181.845 81.5672 181.988 81.7086C182.13 81.85 182.299 81.9621 182.485 82.0385C182.67 82.1149 182.87 82.154 183.071 82.1537H202.129C202.33 82.154 202.529 82.1149 202.715 82.0385C202.901 81.9621 203.07 81.85 203.212 81.7086C203.354 81.5672 203.467 81.3993 203.544 81.2144C203.621 81.0296 203.661 80.8314 203.661 80.6313C203.661 80.4312 203.621 80.233 203.544 80.0482C203.467 79.8633 203.354 79.6954 203.212 79.554C203.07 79.4126 202.901 79.3005 202.715 79.2241C202.529 79.1477 202.33 79.1086 202.129 79.1089Z" fill="#3F3D56"/>
<path d="M194.609 82.1537H180.262C179.856 82.1537 179.467 81.9933 179.18 81.7078C178.893 81.4223 178.732 81.0351 178.732 80.6313C178.732 80.2275 178.893 79.8403 179.18 79.5548C179.467 79.2693 179.856 79.1089 180.262 79.1089H194.609C195.015 79.1089 195.404 79.2693 195.691 79.5548C195.978 79.8403 196.139 80.2275 196.139 80.6313C196.139 81.0351 195.978 81.4223 195.691 81.7078C195.404 81.9933 195.015 82.1537 194.609 82.1537Z" fill="#3333FF"/>
<path d="M173.014 90.1025C174.015 90.1025 174.826 89.2952 174.826 88.2993C174.826 87.3034 174.015 86.4961 173.014 86.4961C172.013 86.4961 171.202 87.3034 171.202 88.2993C171.202 89.2952 172.013 90.1025 173.014 90.1025Z" fill="#3F3D56"/>
<path d="M202.129 86.8962C202.29 86.8959 202.45 86.9274 202.6 86.9887C202.749 87.05 202.885 87.1401 202.999 87.2537C203.113 87.3673 203.204 87.5021 203.266 87.6506C203.328 87.7992 203.36 87.9583 203.36 88.1191C203.36 88.2799 203.328 88.4391 203.266 88.5876C203.204 88.7361 203.113 88.871 202.999 88.9846C202.885 89.0981 202.749 89.1882 202.6 89.2495C202.45 89.3109 202.29 89.3423 202.129 89.342H183.071C182.745 89.342 182.432 89.2132 182.202 88.9838C181.971 88.7545 181.842 88.4434 181.842 88.1191C181.842 87.7948 181.971 87.4837 182.202 87.2544C182.432 87.025 182.745 86.8962 183.071 86.8962H202.129ZM202.129 86.5967H183.071C182.665 86.5967 182.276 86.7571 181.989 87.0426C181.702 87.3281 181.541 87.7153 181.541 88.1191C181.541 88.5229 181.702 88.9101 181.989 89.1956C182.276 89.4811 182.665 89.6415 183.071 89.6415H202.129C202.535 89.6415 202.924 89.4811 203.211 89.1956C203.497 88.9101 203.659 88.5229 203.659 88.1191C203.659 87.7153 203.497 87.3281 203.211 87.0426C202.924 86.7571 202.535 86.5967 202.129 86.5967Z" fill="#3F3D56"/>
<path d="M200.026 89.6415H180.262C179.856 89.6415 179.467 89.4811 179.18 89.1956C178.893 88.9101 178.732 88.5229 178.732 88.1191C178.732 87.7153 178.893 87.3281 179.18 87.0426C179.467 86.7571 179.856 86.5967 180.262 86.5967H200.026C200.432 86.5967 200.821 86.7571 201.108 87.0426C201.395 87.3281 201.556 87.7153 201.556 88.1191C201.556 88.5229 201.395 88.9101 201.108 89.1956C200.821 89.4811 200.432 89.6415 200.026 89.6415Z" fill="#3333FF"/>
<path d="M173.014 97.5903C174.015 97.5903 174.826 96.783 174.826 95.7871C174.826 94.7912 174.015 93.9839 173.014 93.9839C172.013 93.9839 171.202 94.7912 171.202 95.7871C171.202 96.783 172.013 97.5903 173.014 97.5903Z" fill="#3F3D56"/>
<path d="M202.129 94.384C202.29 94.3837 202.45 94.4152 202.6 94.4765C202.749 94.5378 202.885 94.6279 202.999 94.7415C203.113 94.855 203.204 94.9899 203.266 95.1385C203.328 95.287 203.36 95.4461 203.36 95.6069C203.36 95.7677 203.328 95.9269 203.266 96.0754C203.204 96.2239 203.113 96.3588 202.999 96.4723C202.885 96.5859 202.749 96.676 202.6 96.7373C202.45 96.7986 202.29 96.8301 202.129 96.8298H183.071C182.745 96.8298 182.432 96.701 182.202 96.4716C181.971 96.2423 181.842 95.9312 181.842 95.6069C181.842 95.2826 181.971 94.9715 182.202 94.7422C182.432 94.5128 182.745 94.384 183.071 94.384H202.129ZM202.129 94.0845H183.071C182.665 94.0845 182.276 94.2449 181.989 94.5304C181.702 94.8159 181.541 95.2031 181.541 95.6069C181.541 96.0107 181.702 96.3979 181.989 96.6834C182.276 96.9689 182.665 97.1293 183.071 97.1293H202.129C202.535 97.1293 202.924 96.9689 203.211 96.6834C203.497 96.3979 203.659 96.0107 203.659 95.6069C203.659 95.2031 203.497 94.8159 203.211 94.5304C202.924 94.2449 202.535 94.0845 202.129 94.0845Z" fill="#3F3D56"/>
<path d="M188.288 97.1293H180.262C180.061 97.1296 179.862 97.0905 179.676 97.0141C179.49 96.9377 179.321 96.8256 179.179 96.6842C179.037 96.5428 178.924 96.3749 178.847 96.19C178.77 96.0052 178.73 95.807 178.73 95.6069C178.73 95.4068 178.77 95.2086 178.847 95.0238C178.924 94.8389 179.037 94.671 179.179 94.5296C179.321 94.3882 179.49 94.2761 179.676 94.1997C179.862 94.1233 180.061 94.0842 180.262 94.0845H188.288C188.694 94.0851 189.082 94.2457 189.369 94.5312C189.655 94.8166 189.816 95.2035 189.816 95.6069C189.816 96.0103 189.655 96.3972 189.369 96.6826C189.082 96.9681 188.694 97.1287 188.288 97.1293Z" fill="#3333FF"/>
<path d="M152.49 33.7588H17.1072V102.805H152.49V33.7588Z" fill="#F2F2F2"/>
<path d="M147.977 37.1895H21.6199V99.3735H147.977V37.1895Z" fill="white"/>
<path d="M132.306 89.8869H40.1942C40.1178 89.8869 40.0444 89.8567 39.9904 89.8029C39.9363 89.7491 39.9059 89.6761 39.9059 89.6V45.6658C39.9059 45.5897 39.9363 45.5167 39.9904 45.4629C40.0444 45.4091 40.1178 45.3789 40.1942 45.3789C40.2707 45.3789 40.344 45.4091 40.3981 45.4629C40.4521 45.5167 40.4825 45.5897 40.4825 45.6658V89.3132H132.306C132.383 89.3132 132.456 89.3434 132.51 89.3972C132.564 89.451 132.594 89.5239 132.594 89.6C132.594 89.6761 132.564 89.7491 132.51 89.8029C132.456 89.8567 132.383 89.8869 132.306 89.8869Z" fill="#3F3D56"/>
<path d="M59.8745 86.7314H51.4965C51.2697 86.7312 51.0522 86.6414 50.8917 86.4818C50.7313 86.3221 50.6411 86.1057 50.6408 85.8799V74.3871C50.6411 74.1614 50.7313 73.9449 50.8917 73.7853C51.0522 73.6257 51.2697 73.5359 51.4965 73.5356H59.8745C60.1013 73.5359 60.3188 73.6257 60.4792 73.7853C60.6397 73.9449 60.7299 74.1614 60.7302 74.3871V85.8799C60.7299 86.1057 60.6397 86.3221 60.4792 86.4818C60.3188 86.6414 60.1013 86.7312 59.8745 86.7314Z" fill="#3333FF"/>
<path d="M75.1527 86.7314H66.7748C66.5479 86.7311 66.3304 86.6414 66.17 86.4817C66.0096 86.3221 65.9193 86.1057 65.9191 85.8799V63.4863C65.9193 63.2605 66.0096 63.0441 66.17 62.8844C66.3304 62.7248 66.5479 62.635 66.7748 62.6348H75.1527C75.3796 62.635 75.5971 62.7248 75.7575 62.8844C75.9179 63.0441 76.0082 63.2605 76.0084 63.4863V85.8799C76.0082 86.1057 75.9179 86.3221 75.7575 86.4817C75.5971 86.6414 75.3796 86.7311 75.1527 86.7314Z" fill="#3333FF"/>
<path d="M90.4309 86.7314H82.053C81.8261 86.7312 81.6086 86.6414 81.4482 86.4817C81.2878 86.3221 81.1975 86.1057 81.1973 85.8799V74.3871C81.1975 74.1614 81.2878 73.9449 81.4482 73.7853C81.6086 73.6257 81.8261 73.5359 82.053 73.5356H90.4309C90.6578 73.5359 90.8753 73.6257 91.0357 73.7853C91.1961 73.9449 91.2864 74.1614 91.2866 74.3871V85.8799C91.2864 86.1057 91.1961 86.3221 91.0357 86.4818C90.8753 86.6414 90.6578 86.7312 90.4309 86.7314Z" fill="#3333FF"/>
<path d="M105.709 86.7313H97.3312C97.1095 86.7361 96.8949 86.6532 96.7345 86.5008C96.5742 86.3484 96.481 86.139 96.4755 85.9184V59.1446C96.481 58.924 96.5742 58.7146 96.7345 58.5622C96.8949 58.4099 97.1095 58.327 97.3312 58.3317H105.709C105.931 58.327 106.145 58.4099 106.306 58.5622C106.466 58.7146 106.559 58.924 106.565 59.1446V85.9184C106.559 86.139 106.466 86.3484 106.306 86.5008C106.145 86.6532 105.931 86.7361 105.709 86.7313Z" fill="#3333FF"/>
<path d="M120.987 86.7314H112.609C112.383 86.7311 112.165 86.6413 112.005 86.4817C111.844 86.3221 111.754 86.1056 111.754 85.8799V51.4379C111.754 51.2122 111.844 50.9957 112.005 50.8361C112.165 50.6765 112.383 50.5867 112.609 50.5864H120.987C121.214 50.5867 121.432 50.6765 121.592 50.8361C121.753 50.9957 121.843 51.2122 121.843 51.4379V85.8799C121.843 86.1056 121.753 86.3221 121.592 86.4817C121.432 86.6413 121.214 86.7311 120.987 86.7314Z" fill="#3333FF"/>
<path d="M55.6855 70.0933C56.6408 70.0933 57.4152 69.3227 57.4152 68.3721C57.4152 67.4215 56.6408 66.6509 55.6855 66.6509C54.7303 66.6509 53.9559 67.4215 53.9559 68.3721C53.9559 69.3227 54.7303 70.0933 55.6855 70.0933Z" fill="#3F3D56"/>
<path d="M70.9637 58.9058C71.919 58.9058 72.6933 58.1352 72.6933 57.1846C72.6933 56.234 71.919 55.4634 70.9637 55.4634C70.0085 55.4634 69.2341 56.234 69.2341 57.1846C69.2341 58.1352 70.0085 58.9058 70.9637 58.9058Z" fill="#3F3D56"/>
<path d="M86.2419 70.0933C87.1972 70.0933 87.9715 69.3227 87.9715 68.3721C87.9715 67.4215 87.1972 66.6509 86.2419 66.6509C85.2867 66.6509 84.5123 67.4215 84.5123 68.3721C84.5123 69.3227 85.2867 70.0933 86.2419 70.0933Z" fill="#3F3D56"/>
<path d="M101.52 53.4551C102.475 53.4551 103.25 52.6845 103.25 51.7339C103.25 50.7833 102.475 50.0127 101.52 50.0127C100.565 50.0127 99.7905 50.7833 99.7905 51.7339C99.7905 52.6845 100.565 53.4551 101.52 53.4551Z" fill="#3F3D56"/>
<path d="M116.798 47.144C117.754 47.144 118.528 46.3734 118.528 45.4228C118.528 44.4723 117.754 43.7017 116.798 43.7017C115.843 43.7017 115.069 44.4723 115.069 45.4228C115.069 46.3734 115.843 47.144 116.798 47.144Z" fill="#3F3D56"/>
<path d="M86.2783 68.7578L70.9639 57.3429L55.8583 68.6018L55.5128 68.1429L70.9639 56.6258L86.2054 67.9866L101.352 51.4926L101.412 51.468L116.691 45.3423L116.906 45.8744L101.689 51.9758L86.2783 68.7578Z" fill="#3F3D56"/>
<path d="M314.666 210H187.335C187.247 210 187.162 209.965 187.099 209.903C187.036 209.84 187.001 209.756 187.001 209.668C187.001 209.579 187.036 209.495 187.099 209.432C187.162 209.37 187.247 209.335 187.335 209.335H314.666C314.754 209.335 314.839 209.37 314.902 209.432C314.965 209.495 315 209.579 315 209.668C315 209.756 314.965 209.84 314.902 209.903C314.839 209.965 314.754 210 314.666 210Z" fill="#CCCCCC"/>
</g>
<defs>
<clipPath id="clip0_1_376">
<rect width="315" height="210" fill="white"/>
</clipPath>
</defs>
</svg>
