<svg width="315" height="210" viewBox="0 0 315 210" fill="none" xmlns="http://www.w3.org/2000/svg">
<g clip-path="url(#clip0_1_271)">
<path d="M31.7949 192.685C33.1027 193.182 34.5067 193.306 35.8719 193.046C37.237 192.786 38.5172 192.151 39.5892 191.202C42.3191 188.727 43.1752 184.65 43.8714 180.875L45.9313 169.707L41.6188 172.914C38.5172 175.221 35.346 177.602 33.1987 180.943C31.0514 184.284 30.1146 188.845 31.8394 192.461" fill="#E6E6E6"/>
<path d="M32.4608 206.984C31.918 202.712 31.3596 198.385 31.7412 194.068C32.0795 190.233 33.1625 186.489 35.3673 183.417C36.5377 181.79 37.9617 180.396 39.5755 179.298C39.9963 179.011 40.3836 179.731 39.9647 180.017C37.1723 181.923 35.0124 184.738 33.7965 188.055C32.4537 191.745 32.238 195.767 32.4693 199.686C32.6091 202.056 32.9062 204.41 33.2046 206.762C33.2282 206.868 33.2135 206.98 33.1635 207.075C33.1135 207.171 33.0319 207.242 32.9353 207.274C32.8367 207.303 32.7316 207.288 32.6429 207.234C32.5541 207.179 32.4888 207.089 32.4611 206.983L32.4608 206.984Z" fill="#F2F2F2"/>
<path d="M36.3679 200.129C36.9286 201.05 37.6995 201.799 38.6063 202.305C39.5131 202.811 40.5252 203.056 41.545 203.016C44.1665 202.882 46.351 200.906 48.3174 199.03L54.1347 193.482L50.2848 193.283C47.516 193.14 44.6758 193.005 42.0387 193.929C39.4016 194.852 36.9695 197.071 36.4874 200.019" fill="#E6E6E6"/>
<path d="M30.9265 209.439C33.5398 204.445 36.5706 198.894 41.9868 197.119C43.4926 196.628 45.0716 196.452 46.6386 196.601C47.1326 196.647 47.0092 197.469 46.5163 197.423C43.8894 197.188 41.2677 197.937 39.0924 199.545C36.9991 201.084 35.3691 203.224 33.9898 205.493C33.1447 206.883 32.3879 208.332 31.631 209.779C31.3891 210.241 30.6819 209.907 30.9265 209.439Z" fill="#F2F2F2"/>
<path d="M293.619 198.632C292.859 199.367 291.936 199.879 290.94 200.117C289.944 200.356 288.907 200.313 287.931 199.994C285.428 199.14 283.784 196.627 282.326 194.27L278.015 187.3L281.784 188.171C284.495 188.797 287.272 189.451 289.604 191.072C291.935 192.692 293.761 195.509 293.529 198.493" fill="#E6E6E6"/>
<path d="M296.677 209.135C295.332 203.584 293.715 197.381 288.899 194.17C287.559 193.279 286.075 192.673 284.524 192.385C284.036 192.293 283.961 193.122 284.448 193.214C287.043 193.711 289.401 195.159 291.123 197.314C292.783 199.38 293.852 201.899 294.649 204.473C295.137 206.051 295.526 207.66 295.916 209.268C296.04 209.782 296.803 209.654 296.677 209.135Z" fill="#F2F2F2"/>
<path d="M243.72 127.857H155.612C154.908 127.856 154.233 127.554 153.736 127.016C153.238 126.479 152.959 125.75 152.958 124.99V92.8833C152.959 92.1233 153.238 91.3946 153.736 90.8572C154.233 90.3198 154.908 90.0175 155.612 90.0166H243.72C244.423 90.0175 245.098 90.3198 245.595 90.8572C246.093 91.3946 246.373 92.1233 246.374 92.8833V124.99C246.373 125.75 246.093 126.479 245.595 127.016C245.098 127.554 244.423 127.856 243.72 127.857Z" fill="#F1F1F1"/>
<path d="M190.112 98.6167H166.758V101.483H190.112V98.6167Z" fill="#3333FF"/>
<path d="M220.897 102.057C221.776 102.057 222.489 101.287 222.489 100.337C222.489 99.3868 221.776 98.6167 220.897 98.6167C220.017 98.6167 219.304 99.3868 219.304 100.337C219.304 101.287 220.017 102.057 220.897 102.057Z" fill="#3333FF"/>
<path d="M226.204 102.057C227.084 102.057 227.797 101.287 227.797 100.337C227.797 99.3868 227.084 98.6167 226.204 98.6167C225.325 98.6167 224.612 99.3868 224.612 100.337C224.612 101.287 225.325 102.057 226.204 102.057Z" fill="#3333FF"/>
<path d="M231.512 102.057C232.391 102.057 233.104 101.287 233.104 100.337C233.104 99.3868 232.391 98.6167 231.512 98.6167C230.633 98.6167 229.92 99.3868 229.92 100.337C229.92 101.287 230.633 102.057 231.512 102.057Z" fill="#3333FF"/>
<path d="M243.72 168.565H155.612C154.908 168.564 154.233 168.261 153.736 167.724C153.238 167.187 152.959 166.458 152.958 165.698V133.591C152.959 132.831 153.238 132.102 153.736 131.565C154.233 131.027 154.908 130.725 155.612 130.724H243.72C244.423 130.725 245.098 131.027 245.595 131.565C246.093 132.102 246.373 132.831 246.374 133.591V165.698C246.373 166.458 246.093 167.187 245.595 167.724C245.098 168.261 244.423 168.564 243.72 168.565Z" fill="#F1F1F1"/>
<path d="M190.112 139.324H166.758V142.191H190.112V139.324Z" fill="#3333FF"/>
<path d="M220.897 142.764C221.776 142.764 222.489 141.994 222.489 141.044C222.489 140.094 221.776 139.324 220.897 139.324C220.017 139.324 219.304 140.094 219.304 141.044C219.304 141.994 220.017 142.764 220.897 142.764Z" fill="#3333FF"/>
<path d="M226.204 142.764C227.084 142.764 227.797 141.994 227.797 141.044C227.797 140.094 227.084 139.324 226.204 139.324C225.325 139.324 224.612 140.094 224.612 141.044C224.612 141.994 225.325 142.764 226.204 142.764Z" fill="#3333FF"/>
<path d="M231.512 142.764C232.391 142.764 233.104 141.994 233.104 141.044C233.104 140.094 232.391 139.324 231.512 139.324C230.633 139.324 229.92 140.094 229.92 141.044C229.92 141.994 230.633 142.764 231.512 142.764Z" fill="#3333FF"/>
<path d="M243.72 209.272H155.612C154.908 209.271 154.233 208.968 153.736 208.431C153.238 207.894 152.959 207.165 152.958 206.405V174.298C152.959 173.538 153.238 172.809 153.736 172.272C154.233 171.734 154.908 171.432 155.612 171.431H243.72C244.423 171.432 245.098 171.734 245.595 172.272C246.093 172.809 246.373 173.538 246.374 174.298V206.405C246.373 207.165 246.093 207.894 245.595 208.431C245.098 208.968 244.423 209.271 243.72 209.272Z" fill="#F1F1F1"/>
<path d="M190.112 180.031H166.758V182.898H190.112V180.031Z" fill="#3333FF"/>
<path d="M220.897 183.471C221.776 183.471 222.489 182.701 222.489 181.751C222.489 180.801 221.776 180.031 220.897 180.031C220.017 180.031 219.304 180.801 219.304 181.751C219.304 182.701 220.017 183.471 220.897 183.471Z" fill="#3333FF"/>
<path d="M226.204 183.471C227.084 183.471 227.797 182.701 227.797 181.751C227.797 180.801 227.084 180.031 226.204 180.031C225.325 180.031 224.612 180.801 224.612 181.751C224.612 182.701 225.325 183.471 226.204 183.471Z" fill="#3333FF"/>
<path d="M231.512 183.471C232.391 183.471 233.104 182.701 233.104 181.751C233.104 180.801 232.391 180.031 231.512 180.031C230.633 180.031 229.92 180.801 229.92 181.751C229.92 182.701 230.633 183.471 231.512 183.471Z" fill="#3333FF"/>
<path d="M210.504 58.6646L210.406 58.5869L210.404 58.585C210.278 58.4841 210.136 58.411 209.984 58.3698C209.832 58.3287 209.674 58.3202 209.519 58.3449C209.364 58.3696 209.216 58.427 209.081 58.5138C208.947 58.6007 208.83 58.7152 208.736 58.851L188.904 87.6945H186.723V87.1407C186.723 87.0041 186.672 86.8731 186.583 86.7765C186.493 86.6799 186.372 86.6257 186.246 86.6257H184.944C184.817 86.6257 184.696 86.6799 184.607 86.7765C184.517 86.8731 184.467 87.0041 184.467 87.1407V87.6945H183.714V87.1407C183.714 87.0041 183.663 86.8731 183.574 86.7765C183.485 86.6799 183.363 86.6257 183.237 86.6257H181.935C181.809 86.6257 181.687 86.6799 181.598 86.7765C181.508 86.8731 181.458 87.0041 181.458 87.1407V87.6945H180.707V87.1407C180.707 87.0041 180.657 86.8731 180.568 86.7765C180.478 86.6799 180.357 86.6257 180.23 86.6257H178.929C178.802 86.6257 178.681 86.6799 178.591 86.7765C178.502 86.8731 178.452 87.0041 178.452 87.1407V87.6945H177.698V87.1407C177.698 87.0041 177.648 86.8731 177.559 86.7765C177.469 86.6799 177.348 86.6257 177.221 86.6257H175.92C175.793 86.6257 175.672 86.6799 175.583 86.7765C175.493 86.8731 175.443 87.0041 175.443 87.1407V87.6945H174.692V87.1407C174.692 87.0041 174.642 86.8731 174.552 86.7765C174.463 86.6799 174.341 86.6257 174.215 86.6257H172.913C172.851 86.6257 172.789 86.639 172.731 86.6649C172.673 86.6907 172.62 86.7287 172.576 86.7765C172.532 86.8243 172.497 86.8811 172.473 86.9436C172.449 87.0061 172.436 87.0731 172.436 87.1407V87.6945H171.683V87.1407C171.683 87.0041 171.633 86.8731 171.543 86.7765C171.454 86.6799 171.333 86.6257 171.206 86.6257H169.904C169.778 86.6257 169.657 86.6799 169.567 86.7765C169.478 86.8731 169.427 87.0041 169.427 87.1407V87.6945H168.674V87.1407C168.674 87.0041 168.624 86.8731 168.534 86.7765C168.445 86.6799 168.324 86.6257 168.197 86.6257H166.895C166.769 86.6257 166.648 86.6799 166.558 86.7765C166.469 86.8731 166.419 87.0041 166.419 87.1407V87.6945H165.668V87.1407C165.668 87.0041 165.617 86.8731 165.528 86.7765C165.439 86.6799 165.317 86.6257 165.191 86.6257H163.889C163.763 86.6257 163.641 86.6799 163.552 86.7765C163.462 86.8731 163.412 87.0041 163.412 87.1407V87.6945H162.659V87.1407C162.659 87.0041 162.608 86.8731 162.519 86.7765C162.43 86.6799 162.308 86.6257 162.182 86.6257H160.88C160.754 86.6257 160.632 86.6799 160.543 86.7765C160.453 86.8731 160.403 87.0041 160.403 87.1407V87.6945H159.652V87.1407C159.652 87.0041 159.602 86.8731 159.513 86.7765C159.423 86.6799 159.302 86.6257 159.175 86.6257H157.874C157.747 86.6257 157.626 86.6799 157.536 86.7765C157.447 86.8731 157.397 87.0041 157.397 87.1407V87.6945H156.453C156.296 87.6945 156.141 87.7278 155.996 87.7925C155.852 87.8572 155.72 87.9521 155.61 88.0716C155.499 88.1912 155.411 88.3332 155.351 88.4894C155.291 88.6456 155.261 88.8131 155.261 88.9822V90.2107C155.261 90.3798 155.291 90.5472 155.351 90.7035C155.411 90.8597 155.499 91.0016 155.61 91.1212C155.72 91.2408 155.852 91.3357 155.996 91.4004C156.141 91.4651 156.296 91.4984 156.453 91.4984H188.707C189.115 91.4983 189.511 91.3462 189.828 91.0676C190.145 90.7891 190.363 90.4011 190.446 89.969L190.458 89.9789L210.748 60.4687L210.75 60.4662C210.939 60.192 211.019 59.8482 210.972 59.5103C210.926 59.1725 210.758 58.8683 210.504 58.6646Z" fill="#3F3D56"/>
<path d="M85.168 198.334L89.1743 200.549L98.9887 184.91L93.076 181.642L85.168 198.334Z" fill="#FFB7B7"/>
<path d="M84.8154 196.356L92.7053 200.718L92.7057 200.718C94.0391 201.455 95.0468 202.735 95.5071 204.274C95.9675 205.814 95.8427 207.489 95.1604 208.929L95.0767 209.105L82.1586 201.964L84.8154 196.356Z" fill="#2F2E41"/>
<path d="M131.439 204.393H135.94L138.081 185.642H131.438L131.439 204.393Z" fill="#FFB7B7"/>
<path d="M130.291 202.806L139.154 202.805H139.155C140.652 202.805 142.089 203.448 143.148 204.592C144.208 205.736 144.803 207.288 144.803 208.906V209.105L130.291 209.105L130.291 202.806Z" fill="#2F2E41"/>
<path d="M110.388 51.4439C110.388 51.4439 107.374 48.9498 107.374 55.0421L106.898 75.1744L112.212 94.193L115.305 88.0248L114.036 74.6604L110.388 51.4439Z" fill="#2F2E41"/>
<path d="M142.626 106.509C142.626 106.509 146.12 124.894 141.694 139.981L139.248 197.99L130.278 197.235L127.132 154.2L124.104 132.809L117.813 152.313L97.0778 193.586L87.5256 185.533C87.5256 185.533 98.111 154.333 105.931 147.783L109.853 99.5298L142.626 106.509Z" fill="#2F2E41"/>
<path d="M140.968 21.1154C143.677 15.7615 141.855 9.0489 136.899 6.12225C131.943 3.19561 125.729 5.16322 123.019 10.517C120.31 15.8708 122.131 22.5835 127.088 25.5101C132.044 28.4367 138.258 26.4692 140.968 21.1154Z" fill="#FFB7B7"/>
<path d="M131.27 18.1595C132.496 18.3318 133.42 16.9768 133.849 15.7243C134.278 14.4717 134.605 13.0135 135.671 12.3369C137.127 11.4125 138.991 12.5243 140.656 12.2193C142.537 11.8749 143.76 9.72183 143.855 7.6639C143.951 5.60598 143.193 3.62669 142.449 1.7293L142.189 4.08732C142.224 3.28813 142.069 2.49268 141.737 1.77705C141.406 1.06143 140.91 0.449568 140.298 0L140.632 3.46003C140.561 2.98267 140.403 2.5252 140.168 2.11388C139.933 1.70256 139.625 1.34549 139.261 1.06316C138.898 0.780826 138.486 0.57879 138.051 0.468649C137.615 0.358508 137.163 0.342428 136.721 0.421333L136.774 2.48295C134.602 2.20394 132.411 1.92453 130.232 2.1371C128.053 2.34966 125.86 3.09426 124.208 4.64413C121.738 6.96251 120.836 10.78 121.139 14.2994C121.442 17.8189 122.787 21.1251 124.189 24.319C124.541 25.1226 125.029 26.0294 125.847 26.1318C126.582 26.2238 127.254 25.5602 127.483 24.8002C127.659 24.0204 127.652 23.2055 127.463 22.4293C127.256 21.243 126.996 20.0305 127.19 18.8418C127.384 17.6531 128.176 16.4784 129.285 16.3327C130.394 16.187 131.53 17.5567 130.996 18.6175L131.27 18.1595Z" fill="#2F2E41"/>
<path d="M143.259 111.426L109.119 109.046L111.689 97.5469L142.891 105.081L143.259 111.426Z" fill="#CBCBCB"/>
<path d="M122.205 30.8832L124.346 27.6719C124.346 27.6719 126.739 28.5505 133.149 31.9969L133.602 35.0057L144.728 108.928L124.505 107.986L118.997 107.859L117.195 103.495L114.973 107.767L109.595 107.643L104.122 104.216L109.515 86.3971L111.26 70.1199L108.564 54.785C108.564 54.785 105.17 40.7034 118.239 33.1107L122.205 30.8832Z" fill="#2F2E41"/>
<path d="M167.788 86.8431C167.292 86.979 166.775 86.996 166.273 86.8929C165.771 86.7897 165.297 86.5689 164.882 86.246C164.468 85.9231 164.124 85.506 163.875 85.024C163.626 84.542 163.477 84.0069 163.441 83.4564L151.442 79.9849L156.269 75.3555L166.923 79.3618C167.783 79.3562 168.615 79.6916 169.262 80.3045C169.909 80.9175 170.325 81.7654 170.431 82.6875C170.538 83.6097 170.328 84.5421 169.84 85.308C169.353 86.0739 168.623 86.6201 167.788 86.8431Z" fill="#FFB7B7"/>
<path d="M162.414 84.8829C162.161 85.0313 161.883 85.1206 161.597 85.1452C161.31 85.1697 161.022 85.1289 160.751 85.0253L141.014 76.9332C136.198 75.0894 132.167 71.419 129.67 66.6049L121.439 50.7443C120.861 50.0474 120.416 49.2342 120.129 48.3512C119.842 47.4683 119.719 46.533 119.768 45.5988C119.816 44.6646 120.034 43.7498 120.41 42.9069C120.786 42.0639 121.313 41.3093 121.959 40.6863C122.605 40.0632 123.359 39.5839 124.176 39.2758C124.994 38.9677 125.86 38.8368 126.725 38.8907C127.59 38.9446 128.436 39.1821 129.216 39.5897C129.996 39.9974 130.693 40.5671 131.269 41.2662L145.516 65.6578L163.445 77.0123C163.796 77.2613 164.068 77.621 164.224 78.0425C164.38 78.4641 164.413 78.9272 164.317 79.3693L163.425 83.4504C163.33 83.888 163.113 84.2837 162.803 84.5847C162.685 84.7004 162.554 84.8004 162.414 84.8829Z" fill="#2F2E41"/>
<path d="M314.667 209.919H0.333333C0.244928 209.919 0.160143 209.881 0.0976308 209.814C0.0351187 209.746 0 209.655 0 209.559C0 209.464 0.0351187 209.372 0.0976308 209.305C0.160143 209.237 0.244928 209.199 0.333333 209.199H314.667C314.755 209.199 314.84 209.237 314.902 209.305C314.965 209.372 315 209.464 315 209.559C315 209.655 314.965 209.746 314.902 209.814C314.84 209.881 314.755 209.919 314.667 209.919Z" fill="#CBCBCB"/>
</g>
<defs>
<clipPath id="clip0_1_271">
<rect width="315" height="210" fill="white"/>
</clipPath>
</defs>
</svg>
