<svg width="376" height="293" viewBox="0 0 376 293" fill="none" xmlns="http://www.w3.org/2000/svg">
<g clip-path="url(#clip0_1_144)">
<path d="M78.0574 192.725C61.0578 175.969 53.878 158.488 57.84 143.502C62.9245 124.272 85.5123 110.976 119.812 107.023L119.938 108.126C86.1165 112.024 63.8732 125.022 58.9119 143.786C55.056 158.37 62.1317 175.469 78.8354 191.934L78.0574 192.725Z" fill="#F0F0F0"/>
<path d="M242.075 252.205C220.858 252.205 197.803 249.048 174.902 242.978C146.582 235.471 120.616 224.14 99.8107 210.209L100.427 209.287C121.132 223.15 146.983 234.429 175.186 241.904C200.672 248.66 226.349 251.791 249.433 250.965L249.473 252.074C247.035 252.162 244.569 252.205 242.075 252.205Z" fill="#F0F0F0"/>
<path d="M290.748 245.224L290.393 244.172C309.368 237.748 321.237 227.4 324.715 214.246C329.136 197.523 319.531 178.117 297.668 159.603C275.693 140.995 244.006 125.555 208.441 116.128L208.725 115.055C244.445 124.523 276.287 140.043 298.384 158.756C320.592 177.562 330.324 197.369 325.787 214.53C322.209 228.061 310.093 238.675 290.748 245.224Z" fill="#F0F0F0"/>
<path d="M116.511 252.669C74.8214 234.156 42.6967 210.137 26.0547 185.037L26.9783 184.422C43.5052 209.349 75.4613 233.225 116.96 251.654L116.511 252.669Z" fill="#F0F0F0"/>
<path d="M263.087 284.742C258.787 284.742 254.413 284.646 249.966 284.454L250.014 283.345C283.2 284.783 312.481 280.807 334.696 271.843L335.111 272.873C315.732 280.691 291.031 284.742 263.087 284.742Z" fill="#F0F0F0"/>
<path d="M238.898 108.019C232.008 105.773 224.92 103.681 217.833 101.802C177.047 90.9909 136.954 87.1523 101.886 90.7036L101.775 89.5989C136.973 86.036 177.203 89.8838 218.116 100.729C225.224 102.613 232.331 104.711 239.241 106.963L238.898 108.019Z" fill="#F0F0F0"/>
<path d="M52.0027 194.39C35.0031 177.634 27.8233 160.153 31.7853 145.168C36.8698 125.937 59.4576 112.641 93.757 108.689L93.8836 109.792C60.0617 113.689 37.8185 126.687 32.8572 145.452C29.0013 160.035 36.0769 177.134 52.7807 193.599L52.0027 194.39Z" fill="#F0F0F0"/>
<path d="M216.02 253.87C194.804 253.87 171.748 250.713 148.847 244.643C120.528 237.136 94.5614 225.805 73.7561 211.875L74.3721 210.952C95.0773 224.815 120.928 236.094 149.131 243.569C174.617 250.326 200.295 253.456 223.378 252.63L223.418 253.739C220.98 253.827 218.514 253.871 216.02 253.87Z" fill="#F0F0F0"/>
<path d="M264.694 246.889L264.338 245.837C283.314 239.413 295.182 229.065 298.66 215.911C303.082 199.188 293.476 179.782 271.613 161.268C249.639 142.66 217.951 127.22 182.386 117.793L182.67 116.72C218.39 126.189 250.232 141.708 272.329 160.421C294.537 179.227 304.269 199.035 299.732 216.195C296.154 229.727 284.038 240.34 264.694 246.889Z" fill="#F0F0F0"/>
<path d="M90.456 254.334C48.7668 235.821 16.642 211.802 0 186.702L0.923571 186.088C17.4506 211.014 49.4067 234.891 90.9053 253.319L90.456 254.334Z" fill="#F0F0F0"/>
<path d="M237.032 286.407C232.732 286.407 228.359 286.311 223.912 286.119L223.959 285.01C257.145 286.448 286.426 282.472 308.641 273.508L309.056 274.538C289.677 282.356 264.977 286.407 237.032 286.407Z" fill="#F0F0F0"/>
<path d="M212.843 109.684C205.953 107.438 198.865 105.346 191.778 103.467C150.992 92.6561 110.899 88.8175 75.8316 92.3688L75.7201 91.2641C110.918 87.7011 151.148 91.5489 192.062 102.394C199.169 104.278 206.277 106.376 213.187 108.629L212.843 109.684Z" fill="#F0F0F0"/>
<path d="M18.8974 164.656C26.8647 155.712 39.574 150.26 51.0914 153.524C40.4661 161.052 32.8429 172.102 29.5706 184.717C28.3263 189.586 27.4486 195.132 23.404 198.11C20.8873 199.962 17.5527 200.405 14.4577 199.983C11.3626 199.561 8.4361 198.356 5.54909 197.162L4.77222 197.229C7.00578 185.454 10.93 173.6 18.8974 164.656Z" fill="#F2F2F2"/>
<path d="M51.0563 153.773C41.4269 156.107 32.7769 161.42 26.3351 168.957C24.9195 170.555 23.7643 172.367 22.9121 174.325C22.1435 176.259 21.9062 178.364 22.2249 180.421C22.4835 182.345 22.9707 184.283 22.7577 186.237C22.6339 187.235 22.3007 188.196 21.78 189.057C21.2592 189.917 20.5627 190.657 19.7362 191.229C17.7137 192.708 15.2811 193.371 12.8798 193.937C10.2135 194.565 7.43419 195.174 5.26078 196.949C4.99744 197.164 4.6797 196.742 4.94265 196.527C8.72401 193.44 13.9793 193.837 18.163 191.595C20.1152 190.549 21.7643 188.907 22.1653 186.654C22.5159 184.685 22.0153 182.685 21.7366 180.74C21.3963 178.737 21.5508 176.682 22.1867 174.753C22.9366 172.758 24.0202 170.905 25.391 169.274C28.4185 165.552 32.0117 162.33 36.0388 159.726C40.6184 156.729 45.6764 154.538 50.994 153.248C51.3231 153.168 51.3833 153.693 51.0563 153.773Z" fill="white"/>
<path d="M28.2666 166.408C27.1504 165.154 26.5157 163.544 26.4758 161.865C26.4359 160.186 26.9934 158.547 28.0488 157.241C28.2632 156.978 28.6821 157.299 28.4674 157.563C27.4824 158.777 26.9632 160.303 27.0036 161.867C27.0439 163.431 27.6412 164.928 28.6875 166.09C28.9146 166.342 28.4924 166.659 28.2666 166.408Z" fill="white"/>
<path d="M21.9654 179.463C25.3871 179.691 28.7687 178.618 31.4359 176.46C31.7 176.246 32.0178 176.668 31.7541 176.882C28.9743 179.122 25.4529 180.231 21.8928 179.986C21.5535 179.963 21.6279 179.44 21.9654 179.463Z" fill="white"/>
<path d="M40.737 157.419C41.0679 157.994 41.5364 158.478 42.1003 158.827C42.6641 159.177 43.3058 159.38 43.9677 159.42C44.3071 159.439 44.2323 159.962 43.895 159.943C43.164 159.896 42.4556 159.67 41.8318 159.286C41.2079 158.901 40.6875 158.37 40.3162 157.738C40.2762 157.681 40.2592 157.611 40.2688 157.542C40.2783 157.474 40.3136 157.411 40.3675 157.368C40.4235 157.326 40.4936 157.308 40.5628 157.317C40.632 157.327 40.6946 157.363 40.737 157.419Z" fill="white"/>
<path d="M67.4407 190.654C67.2283 190.648 67.0161 190.642 66.8011 190.64C63.9465 190.575 61.0912 190.741 58.2636 191.139C58.0445 191.166 57.8229 191.197 57.605 191.23C50.8028 192.261 44.2508 194.547 38.2819 197.972C35.9081 199.337 33.6413 200.881 31.5014 202.591C28.5463 204.952 25.5297 207.747 22.0699 208.957C21.7104 209.087 21.3432 209.195 20.9703 209.28L4.91459 198.173C4.89075 198.129 4.86422 198.089 4.8402 198.046L4.17889 197.631C4.28311 197.535 4.39325 197.438 4.49747 197.342C4.55769 197.287 4.62151 197.233 4.68171 197.177C4.72299 197.141 4.76447 197.104 4.79964 197.069C4.81333 197.057 4.82721 197.045 4.83838 197.036C4.87356 197.001 4.90996 196.972 4.9426 196.94C5.55678 196.395 6.17586 195.854 6.79984 195.315C6.80237 195.312 6.80238 195.312 6.80849 195.311C11.5733 191.221 16.721 187.494 22.27 184.668C22.437 184.583 22.6063 184.494 22.7806 184.414C25.2889 183.154 27.8959 182.101 30.5754 181.267C32.0442 180.814 33.5348 180.437 35.0417 180.135C38.9366 179.364 42.9286 179.211 46.8711 179.681C54.7303 180.621 62.202 184.066 67.0731 190.183C67.1976 190.34 67.3187 190.494 67.4407 190.654Z" fill="#F2F2F2"/>
<path d="M67.2638 190.834C58.1715 186.892 48.0703 185.92 38.3947 188.055C36.3037 188.477 34.2922 189.227 32.4343 190.277C30.6575 191.358 29.2023 192.896 28.2197 194.73C27.2693 196.422 26.4929 198.264 25.1482 199.695C24.449 200.417 23.6052 200.984 22.6721 201.357C21.739 201.73 20.7376 201.901 19.7337 201.86C17.2297 201.821 14.8888 200.884 12.6314 199.888C10.125 198.782 7.53916 197.593 4.737 197.7C4.39748 197.713 4.39736 197.184 4.73637 197.171C9.61165 196.986 13.5694 200.471 18.258 201.203C20.4458 201.544 22.7496 201.228 24.4242 199.671C25.8886 198.31 26.691 196.412 27.6385 194.69C28.5708 192.886 29.93 191.338 31.5974 190.182C33.3959 189.041 35.3752 188.214 37.4505 187.738C42.1057 186.592 46.9119 186.186 51.6932 186.534C57.1522 186.901 62.5082 188.201 67.5295 190.377C67.8402 190.512 67.5725 190.967 67.2638 190.834Z" fill="white"/>
<path d="M41.4698 187.184C41.3325 185.51 41.794 183.841 42.7718 182.477C43.7497 181.112 45.1802 180.139 46.8079 179.733C47.1375 179.652 47.2788 180.161 46.9488 180.242C45.4323 180.618 44.0999 181.524 43.1919 182.796C42.284 184.069 41.8603 185.625 41.9974 187.183C42.0268 187.522 41.499 187.52 41.4698 187.184Z" fill="white"/>
<path d="M28.5888 193.809C31.184 196.053 34.5287 197.236 37.9559 197.12C38.2955 197.109 38.2957 197.637 37.9566 197.649C34.3898 197.762 30.9117 196.524 28.2162 194.183C27.9594 193.959 28.3334 193.587 28.5888 193.809Z" fill="white"/>
<path d="M56.8318 187.524C56.7501 188.183 56.8332 188.852 57.0734 189.47C57.3137 190.089 57.7037 190.638 58.2084 191.069C58.4678 191.289 58.0936 191.662 57.8358 191.443C57.2804 190.965 56.8504 190.358 56.5835 189.675C56.3165 188.992 56.2206 188.253 56.3043 187.525C56.3064 187.455 56.3348 187.389 56.3838 187.34C56.4327 187.291 56.4985 187.263 56.5677 187.26C56.6376 187.261 56.7045 187.288 56.7539 187.338C56.8034 187.387 56.8314 187.454 56.8318 187.524Z" fill="white"/>
<path d="M331.086 237.978C326.585 226.873 316.445 217.462 304.502 216.659C311.982 227.326 315.453 240.298 314.3 253.28C313.838 258.285 312.803 263.804 315.612 267.969C317.361 270.561 320.353 272.1 323.409 272.744C326.466 273.388 329.627 273.238 332.747 273.085L333.456 273.41C335.305 261.569 335.588 249.084 331.086 237.978Z" fill="#F2F2F2"/>
<path d="M304.451 216.905C312.737 222.345 319.1 230.26 322.638 239.526C323.434 241.508 323.914 243.602 324.06 245.733C324.134 247.814 323.651 249.876 322.661 251.706C321.771 253.432 320.662 255.093 320.206 257.005C319.988 257.987 319.979 259.004 320.181 259.989C320.383 260.975 320.79 261.907 321.376 262.723C322.785 264.797 324.853 266.24 326.925 267.581C329.226 269.069 331.639 270.579 333.09 272.981C333.266 273.272 333.707 272.982 333.531 272.692C331.006 268.512 325.923 267.116 322.736 263.597C321.248 261.955 320.246 259.853 320.624 257.597C320.955 255.624 322.098 253.909 323.014 252.171C324.006 250.399 324.55 248.412 324.599 246.381C324.562 244.25 324.164 242.14 323.42 240.142C321.818 235.618 319.516 231.374 316.597 227.567C313.29 223.202 309.262 219.436 304.686 216.432C304.403 216.246 304.17 216.721 304.451 216.905Z" fill="white"/>
<path d="M321.674 236.475C323.146 235.67 324.284 234.367 324.886 232.799C325.487 231.231 325.512 229.5 324.956 227.915C324.843 227.595 324.34 227.756 324.454 228.077C324.974 229.552 324.951 231.164 324.388 232.623C323.825 234.082 322.76 235.292 321.385 236.034C321.086 236.195 321.377 236.636 321.674 236.475Z" fill="white"/>
<path d="M323.227 250.891C319.928 249.954 317.103 247.806 315.315 244.876C315.138 244.586 314.697 244.876 314.874 245.166C316.74 248.212 319.684 250.441 323.119 251.408C323.447 251.5 323.552 250.983 323.227 250.891Z" fill="white"/>
<path d="M312.946 223.812C312.442 224.243 311.838 224.541 311.19 224.68C310.541 224.819 309.869 224.795 309.232 224.609C308.906 224.513 308.801 225.031 309.125 225.127C309.829 225.328 310.572 225.354 311.289 225.202C312.005 225.05 312.674 224.725 313.236 224.254C313.293 224.214 313.332 224.154 313.346 224.086C313.36 224.018 313.348 223.948 313.312 223.888C313.273 223.83 313.213 223.789 313.145 223.775C313.076 223.761 313.005 223.774 312.946 223.812Z" fill="white"/>
<path d="M276.64 246.128C276.842 246.194 277.044 246.259 277.247 246.33C279.958 247.228 282.591 248.346 285.121 249.672C285.318 249.772 285.516 249.875 285.71 249.98C291.771 253.24 297.174 257.598 301.646 262.832C303.424 264.917 305.04 267.134 306.482 269.464C308.473 272.682 310.375 276.33 313.228 278.634C313.523 278.878 313.832 279.103 314.155 279.309L333.005 274.251C333.042 274.218 333.081 274.189 333.118 274.156L333.88 273.988C333.814 273.863 333.743 273.734 333.677 273.609C333.639 273.536 333.597 273.464 333.559 273.392C333.532 273.343 333.505 273.295 333.484 273.25C333.475 273.234 333.466 273.218 333.458 273.206C333.437 273.161 333.413 273.121 333.392 273.081C332.997 272.361 332.596 271.642 332.189 270.925C332.188 270.921 332.188 270.921 332.182 270.918C329.067 265.463 325.47 260.22 321.193 255.691C321.064 255.555 320.934 255.414 320.797 255.28C318.857 253.249 316.755 251.38 314.512 249.692C313.281 248.772 312.003 247.915 310.685 247.124C307.276 245.086 303.568 243.599 299.697 242.715C291.979 240.955 283.785 241.686 277.144 245.808C276.975 245.913 276.809 246.018 276.64 246.128Z" fill="#F2F2F2"/>
<path d="M276.747 246.356C286.633 245.704 296.473 248.188 304.869 253.454C306.697 254.556 308.339 255.939 309.737 257.553C311.047 259.169 311.902 261.107 312.211 263.166C312.538 265.079 312.652 267.075 313.438 268.875C313.854 269.791 314.458 270.608 315.212 271.274C315.965 271.939 316.851 272.437 317.811 272.736C320.182 273.542 322.701 273.448 325.162 273.269C327.893 273.071 330.728 272.822 333.331 273.865C333.647 273.991 333.824 273.494 333.509 273.368C328.98 271.553 324.082 273.503 319.421 272.614C317.246 272.2 315.182 271.126 314.127 269.096C313.205 267.321 313.087 265.264 312.772 263.323C312.5 261.311 311.739 259.395 310.557 257.745C309.246 256.065 307.659 254.621 305.864 253.474C301.865 250.828 297.475 248.827 292.855 247.547C287.59 246.056 282.109 245.477 276.65 245.837C276.312 245.859 276.411 246.378 276.747 246.356Z" fill="white"/>
<path d="M302.265 251.599C302.956 250.069 303.082 248.342 302.619 246.727C302.156 245.113 301.135 243.716 299.739 242.785C299.455 242.598 299.151 243.03 299.435 243.218C300.737 244.082 301.688 245.383 302.116 246.887C302.544 248.392 302.421 250 301.769 251.421C301.627 251.73 302.125 251.906 302.265 251.599Z" fill="white"/>
<path d="M312.173 262.173C308.975 263.414 305.428 263.402 302.239 262.14C301.923 262.015 301.746 262.512 302.061 262.638C305.382 263.944 309.074 263.949 312.398 262.651C312.715 262.527 312.488 262.05 312.173 262.173Z" fill="white"/>
<path d="M287.683 246.75C287.538 247.398 287.236 248 286.802 248.502C286.368 249.003 285.816 249.39 285.196 249.625C284.878 249.745 285.105 250.222 285.422 250.103C286.105 249.839 286.714 249.412 287.195 248.859C287.675 248.305 288.013 247.642 288.179 246.928C288.2 246.862 288.196 246.79 288.166 246.727C288.137 246.665 288.084 246.616 288.02 246.59C287.954 246.567 287.882 246.571 287.818 246.601C287.755 246.63 287.706 246.684 287.683 246.75Z" fill="white"/>
<path d="M243.754 275.793C246.204 275.793 248.189 273.805 248.189 271.353C248.189 268.9 246.204 266.912 243.754 266.912C241.305 266.912 239.32 268.9 239.32 271.353C239.32 273.805 241.305 275.793 243.754 275.793Z" fill="#FD6584"/>
<path d="M259.463 200.161C261.913 200.161 263.898 198.173 263.898 195.721C263.898 193.268 261.913 191.28 259.463 191.28C257.014 191.28 255.029 193.268 255.029 195.721C255.029 198.173 257.014 200.161 259.463 200.161Z" fill="#E6E6E6"/>
<path d="M176.942 76.9894C179.391 76.9894 181.376 75.0013 181.376 72.5489C181.376 70.0964 179.391 68.1083 176.942 68.1083C174.492 68.1083 172.507 70.0964 172.507 72.5489C172.507 75.0013 174.492 76.9894 176.942 76.9894Z" fill="#E6E6E6"/>
<path d="M84.007 242.887C84.007 244.017 84.0442 245.148 84.1232 246.269C84.2068 247.609 84.3508 248.939 84.5459 250.26C85.2017 254.708 86.455 259.047 88.2718 263.159C88.3647 263.364 88.4576 263.569 88.5506 263.773L88.6899 264.08C88.7364 264.183 88.7875 264.285 88.8339 264.383C88.899 264.518 88.9594 264.648 89.0244 264.778C89.1034 264.941 89.1824 265.104 89.266 265.267C89.2753 265.285 89.2846 265.308 89.2985 265.332C89.3682 265.471 89.4332 265.606 89.5076 265.746C89.5212 265.776 89.5368 265.806 89.554 265.834C89.633 265.992 89.7166 266.155 89.8003 266.313C89.8932 266.481 89.9814 266.653 90.0744 266.82C90.2974 267.234 90.5296 267.644 90.7666 268.053C90.8363 268.174 90.9059 268.295 90.9803 268.416C91.0453 268.527 91.1104 268.639 91.18 268.751C91.2265 268.825 91.273 268.904 91.3194 268.979C91.3937 269.104 91.4681 269.225 91.5471 269.351C91.7189 269.625 91.8955 269.9 92.0674 270.174H92.072C92.151 270.3 92.2346 270.425 92.3182 270.546V270.551C92.5645 270.923 92.82 271.295 93.0755 271.663L93.0773 271.663L93.0788 271.664L93.0798 271.665L93.0802 271.667C93.2846 271.965 93.4983 272.253 93.7073 272.542V272.546C93.8467 272.728 93.9814 272.914 94.1208 273.095C94.2323 273.244 94.3484 273.398 94.4646 273.547C94.4878 273.579 94.5157 273.607 94.5389 273.64V273.644C94.5714 273.686 94.604 273.723 94.6365 273.765C95.1289 274.398 95.6369 275.016 96.1603 275.621L96.2439 275.719C96.2718 275.751 96.3043 275.784 96.3322 275.821C96.3786 275.872 96.4204 275.924 96.4669 275.975C96.5087 276.026 96.5552 276.077 96.6016 276.128C99.3301 279.206 102.424 281.938 105.814 284.264C106.265 284.576 106.725 284.878 107.185 285.171C107.301 285.246 107.417 285.32 107.533 285.39C107.566 285.413 107.603 285.436 107.635 285.46C107.7 285.497 107.761 285.534 107.826 285.576C107.886 285.613 107.947 285.65 108.012 285.688C108.258 285.841 108.509 285.99 108.76 286.139C108.82 286.176 108.885 286.213 108.95 286.25C109.01 286.283 109.075 286.32 109.141 286.357C109.141 286.362 109.141 286.362 109.145 286.362H109.15V286.367H109.154C109.466 286.548 109.782 286.725 110.102 286.897C110.274 286.99 110.451 287.088 110.627 287.176C111.027 287.395 111.431 287.604 111.835 287.804C111.979 287.874 112.128 287.944 112.272 288.018C112.393 288.074 112.513 288.134 112.634 288.19C112.671 288.209 112.704 288.223 112.736 288.241C112.839 288.288 112.936 288.334 113.038 288.381C113.15 288.432 113.261 288.483 113.368 288.534C113.494 288.59 113.614 288.646 113.74 288.697C114.204 288.907 114.674 289.107 115.143 289.297C116.824 289.987 118.543 290.584 120.29 291.084C120.369 291.107 120.453 291.13 120.537 291.153C121.285 291.363 122.037 291.553 122.794 291.725C124.118 292.032 125.455 292.284 126.804 292.479H126.813C126.976 292.502 127.134 292.526 127.296 292.549C127.31 292.549 127.324 292.553 127.343 292.553C127.343 292.558 127.343 292.558 127.347 292.553C127.524 292.577 127.705 292.6 127.881 292.623C127.894 292.627 127.906 292.628 127.919 292.628C128.086 292.651 128.258 292.67 128.425 292.688C128.606 292.707 128.787 292.726 128.969 292.744C129.108 292.758 129.247 292.772 129.387 292.786C129.399 292.79 129.411 292.792 129.424 292.791C129.549 292.8 129.675 292.814 129.8 292.823H129.819C129.926 292.833 130.037 292.842 130.144 292.851C131.44 292.954 132.741 293 134.06 293C135.487 293 136.904 292.944 138.302 292.823H138.316C138.618 292.795 138.915 292.767 139.212 292.74C139.291 292.73 139.366 292.726 139.445 292.716C139.459 292.716 139.477 292.712 139.491 292.712C139.514 292.707 139.538 292.707 139.566 292.702C139.578 292.703 139.591 292.701 139.603 292.698C139.705 292.688 139.807 292.674 139.914 292.665L140.262 292.623C140.379 292.609 140.495 292.591 140.611 292.577C140.639 292.572 140.662 292.572 140.69 292.567C140.773 292.558 140.857 292.544 140.941 292.53C140.983 292.526 141.024 292.521 141.061 292.516C141.145 292.502 141.224 292.493 141.308 292.479H141.312C143.862 292.112 146.378 291.544 148.838 290.781C148.969 290.739 149.099 290.702 149.229 290.66C149.233 290.66 149.238 290.656 149.243 290.656C149.28 290.642 149.322 290.632 149.359 290.618C149.707 290.507 150.051 290.39 150.395 290.269C150.869 290.111 151.338 289.939 151.807 289.762C151.933 289.711 152.058 289.665 152.183 289.614C152.439 289.516 152.69 289.414 152.941 289.311C153.368 289.139 153.795 288.958 154.218 288.772C154.613 288.595 155.003 288.418 155.394 288.232C155.403 288.227 155.417 288.227 155.426 288.218C155.514 288.176 155.603 288.134 155.686 288.092H155.691C157.83 287.064 159.894 285.885 161.865 284.562C162.497 284.139 163.119 283.701 163.733 283.25C164.225 282.883 164.708 282.51 165.192 282.129C167.575 280.231 169.782 278.119 171.784 275.821V275.817C171.928 275.658 172.063 275.496 172.202 275.333C172.225 275.31 172.244 275.286 172.262 275.268C172.351 275.161 172.434 275.058 172.523 274.956V274.951C172.639 274.816 172.755 274.677 172.866 274.537C172.894 274.505 172.917 274.477 172.941 274.449V274.444C173.034 274.333 173.122 274.221 173.215 274.105C173.261 274.049 173.303 273.993 173.349 273.937V273.933C173.624 273.588 173.888 273.244 174.153 272.891C174.223 272.798 174.293 272.7 174.367 272.602C174.701 272.151 175.027 271.691 175.342 271.23V271.225C175.463 271.053 175.579 270.876 175.7 270.704C175.816 270.528 175.932 270.351 176.049 270.174C176.165 269.988 176.286 269.807 176.402 269.621L176.416 269.593C176.532 269.416 176.648 269.23 176.759 269.048C176.848 268.9 176.936 268.755 177.024 268.611C177.08 268.513 177.14 268.416 177.196 268.313C177.218 268.282 177.238 268.249 177.257 268.216C177.387 267.988 177.517 267.76 177.647 267.532C177.8 267.267 177.949 266.997 178.097 266.727C178.153 266.616 178.214 266.504 178.274 266.392C178.297 266.355 178.316 266.318 178.334 266.281C178.404 266.15 178.474 266.016 178.539 265.881C178.608 265.75 178.678 265.615 178.748 265.481C178.813 265.35 178.883 265.215 178.948 265.08C178.999 264.978 179.045 264.876 179.096 264.773C179.1 264.765 179.105 264.757 179.11 264.75C179.133 264.699 179.157 264.653 179.175 264.606C179.181 264.599 179.186 264.591 179.189 264.583C179.24 264.48 179.287 264.373 179.338 264.271C179.403 264.136 179.463 263.997 179.528 263.862C179.57 263.769 179.617 263.671 179.658 263.573C179.719 263.438 179.784 263.304 179.84 263.164C179.905 263.024 179.965 262.885 180.025 262.741C180.043 262.706 180.058 262.67 180.072 262.634C180.104 262.569 180.128 262.503 180.155 262.438C180.23 262.266 180.304 262.089 180.374 261.917C180.457 261.722 180.536 261.522 180.611 261.327C180.685 261.145 180.755 260.959 180.824 260.773L180.852 260.708C181.935 257.853 182.756 254.906 183.305 251.902V251.898C183.615 250.183 183.837 248.453 183.97 246.716C183.974 246.618 183.984 246.525 183.988 246.432C184.072 245.255 184.109 244.073 184.109 242.887C184.109 242.362 184.1 241.841 184.086 241.32C183.761 230.424 179.881 219.934 173.038 211.456C172.89 211.269 172.741 211.083 172.588 210.897C172.434 210.711 172.276 210.53 172.123 210.348C167.03 204.377 160.607 199.687 153.372 196.656C146.137 193.626 138.292 192.34 130.469 192.903C122.646 193.466 115.065 195.861 108.337 199.896C101.609 203.93 95.921 209.491 91.7329 216.131C91.5053 216.493 91.2776 216.861 91.0593 217.228C90.8363 217.6 90.6226 217.973 90.4089 218.349C86.2001 225.84 83.995 234.292 84.007 242.887Z" fill="#F2F2F2"/>
<path d="M132.071 210.108C140.301 212.223 148.735 213.442 157.227 213.744C158.511 213.814 159.798 213.805 161.081 213.717C163.901 213.48 166.316 212.593 169.005 212.108C170.298 211.875 171.739 211.705 173.041 211.454C172.74 211.08 172.434 210.711 172.122 210.347C169.315 210.584 166.464 211.362 163.623 211.723C158.794 212.338 153.384 211.652 149.723 209.959C147.947 209.138 146.587 208.114 144.817 207.289C144.576 207.165 144.315 207.085 144.047 207.053C143.536 207.037 143.032 207.168 142.594 207.43C139.625 208.931 135.314 210.151 131.312 209.48C131.014 209.713 131.58 209.979 132.071 210.108Z" fill="white"/>
<path d="M114.364 215.39C114.327 215.383 114.291 215.378 114.254 215.372C114.408 215.277 114.553 215.167 114.686 215.046L114.364 215.39Z" fill="white"/>
<path d="M90.4099 218.351C92.0811 218.485 93.7611 218.585 95.4498 218.65C96.7339 218.719 98.021 218.711 99.304 218.624C102.123 218.385 104.539 217.499 107.228 217.014C109.693 216.571 112.689 216.357 114.254 215.372C110.209 214.671 106.018 216.098 101.846 216.629C98.4724 217.045 95.0521 216.876 91.7354 216.129C91.2735 216.857 90.8317 217.597 90.4099 218.351Z" fill="white"/>
<path d="M110.627 287.176C111.027 287.395 111.431 287.604 111.835 287.804C111.979 287.874 112.128 287.944 112.272 288.018C112.393 288.074 112.513 288.134 112.634 288.19C112.671 288.209 112.704 288.223 112.736 288.241C112.839 288.288 112.936 288.334 113.038 288.381C113.15 288.432 113.261 288.483 113.368 288.534C113.494 288.59 113.614 288.646 113.74 288.697C114.204 288.907 114.674 289.107 115.143 289.297C116.824 289.987 118.543 290.584 120.29 291.084C120.369 291.107 120.453 291.13 120.537 291.153C121.285 291.363 122.037 291.553 122.794 291.725C124.118 292.032 125.455 292.284 126.804 292.479H126.813C126.976 292.502 127.134 292.526 127.296 292.549C127.31 292.549 127.324 292.553 127.343 292.553C127.343 292.558 127.343 292.558 127.347 292.553C127.524 292.577 127.705 292.6 127.881 292.623C127.894 292.627 127.906 292.628 127.919 292.628C128.086 292.651 128.258 292.67 128.425 292.688C128.606 292.707 128.787 292.726 128.969 292.744C129.108 292.758 129.247 292.772 129.387 292.786C129.399 292.79 129.411 292.792 129.424 292.791C129.549 292.8 129.675 292.814 129.8 292.823H129.819C129.926 292.833 130.037 292.842 130.144 292.851C131.44 292.954 132.741 293 134.06 293C135.487 293 136.904 292.944 138.302 292.823H138.316C138.618 292.795 138.915 292.767 139.212 292.74C139.291 292.73 139.366 292.726 139.445 292.716C139.459 292.716 139.477 292.712 139.491 292.712C139.514 292.707 139.538 292.707 139.566 292.702C139.578 292.703 139.591 292.701 139.603 292.698C139.705 292.688 139.807 292.674 139.914 292.665L140.262 292.623C140.379 292.609 140.495 292.591 140.611 292.577C140.639 292.572 140.662 292.572 140.69 292.567C140.773 292.558 140.857 292.544 140.941 292.53C140.983 292.526 141.024 292.521 141.062 292.516C141.145 292.502 141.224 292.493 141.308 292.479H141.312C143.862 292.112 146.378 291.544 148.838 290.781C148.969 290.739 149.099 290.702 149.229 290.66C148.629 287.859 147.394 285.234 145.619 282.986C143.845 280.739 141.578 278.931 138.994 277.701C139.633 277.091 140.075 276.303 140.262 275.44C140.383 274.883 140.393 274.308 140.291 273.748C140.188 273.187 139.977 272.653 139.668 272.174C139.065 271.247 138.119 270.598 137.038 270.369L130.153 268.927C129.045 268.711 127.896 268.942 126.957 269.569C126.017 270.196 125.363 271.169 125.136 272.277C125.066 272.616 125.034 272.963 125.043 273.309C118.413 277.728 113.642 282.31 110.627 287.176Z" fill="#3333FF"/>
<path d="M130.956 266.205C138.878 266.205 145.3 259.774 145.3 251.842C145.3 243.91 138.878 237.48 130.956 237.48C123.034 237.48 116.612 243.91 116.612 251.842C116.612 259.774 123.034 266.205 130.956 266.205Z" fill="#FFB8B8"/>
<path d="M122.016 264.225C120.486 263.179 118.924 261.168 117.881 259.661C116.499 257.681 115.549 255.432 115.09 253.06C114.632 250.687 114.677 248.245 115.222 245.892C115.395 244.951 115.822 244.075 116.456 243.359C117.132 242.69 118.235 242.372 119.06 242.845C118.835 242.242 118.736 241.599 118.769 240.956C118.802 240.313 118.966 239.683 119.251 239.106C119.831 237.953 120.67 236.952 121.704 236.181C123.68 234.657 126.031 233.697 128.508 233.404C130.985 233.11 133.496 233.493 135.773 234.513C136.669 234.929 135.197 231.718 136.135 232.028C137.066 232.389 138.102 232.371 139.021 231.977C139.903 231.532 142.826 234.174 142.488 233.245C143.157 233.549 143.739 234.018 144.179 234.608C144.618 235.198 144.902 235.89 145.002 236.619C145.103 237.348 145.018 238.091 144.755 238.778C144.491 239.465 144.059 240.075 143.497 240.55C142.757 241.175 141.832 241.536 141.022 242.067C139.602 243.067 138.596 244.554 138.196 246.245C137.795 247.937 138.027 249.717 138.848 251.249C137.995 250.701 137.06 250.294 136.077 250.044C135.584 249.923 135.07 249.922 134.576 250.041C134.083 250.16 133.625 250.395 133.241 250.727C132.92 251.095 132.677 251.524 132.528 251.99C132.379 252.455 132.326 252.946 132.374 253.432C132.406 254.407 132.637 255.367 132.663 256.342C132.74 259.202 134.269 264.64 132.055 266.161C130.307 267.361 124.104 265.653 122.016 264.225Z" fill="#2F2E41"/>
<path d="M375.529 17.3508H0.470853C0.345041 17.348 0.225322 17.296 0.13733 17.2059C0.0493378 17.1158 6.86646e-05 16.9948 6.86646e-05 16.8688C6.86646e-05 16.7428 0.0493378 16.6218 0.13733 16.5318C0.225322 16.4417 0.345041 16.3897 0.470853 16.3869H375.529C375.655 16.3897 375.775 16.4417 375.863 16.5318C375.951 16.6218 376 16.7428 376 16.8688C376 16.9948 375.951 17.1158 375.863 17.2059C375.775 17.296 375.655 17.348 375.529 17.3508Z" fill="#CACACA"/>
<path d="M11.0688 10.6033C13.9293 10.6033 16.2482 8.22965 16.2482 5.30164C16.2482 2.37362 13.9293 0 11.0688 0C8.20831 0 5.8894 2.37362 5.8894 5.30164C5.8894 8.22965 8.20831 10.6033 11.0688 10.6033Z" fill="#3F3D56"/>
<path d="M28.9613 10.6033C31.8218 10.6033 34.1407 8.22965 34.1407 5.30164C34.1407 2.37362 31.8218 0 28.9613 0C26.1008 0 23.7819 2.37362 23.7819 5.30164C23.7819 8.22965 26.1008 10.6033 28.9613 10.6033Z" fill="#3F3D56"/>
<path d="M46.8539 10.6033C49.7144 10.6033 52.0333 8.22965 52.0333 5.30164C52.0333 2.37362 49.7144 0 46.8539 0C43.9933 0 41.6744 2.37362 41.6744 5.30164C41.6744 8.22965 43.9933 10.6033 46.8539 10.6033Z" fill="#3F3D56"/>
<path d="M364.809 3.24284H352.096C351.844 3.23728 351.605 3.13327 351.429 2.95311C351.253 2.77294 351.154 2.53093 351.154 2.2789C351.154 2.02687 351.253 1.78487 351.429 1.6047C351.605 1.42454 351.844 1.32053 352.096 1.31497H364.809C365.06 1.32053 365.3 1.42454 365.476 1.6047C365.652 1.78487 365.75 2.02687 365.75 2.2789C365.75 2.53093 365.652 2.77294 365.476 2.95311C365.3 3.13327 365.06 3.23728 364.809 3.24284Z" fill="#3F3D56"/>
<path d="M364.809 6.85758H352.096C351.844 6.85205 351.605 6.74806 351.429 6.56789C351.252 6.38772 351.154 6.14569 351.154 5.89365C351.154 5.6416 351.252 5.39958 351.429 5.21941C351.605 5.03924 351.844 4.93525 352.096 4.92972H364.809C365.06 4.93525 365.3 5.03924 365.476 5.21941C365.652 5.39958 365.751 5.6416 365.751 5.89365C365.751 6.14569 365.652 6.38772 365.476 6.56789C365.3 6.74806 365.06 6.85205 364.809 6.85758Z" fill="#3F3D56"/>
<path d="M364.809 10.4723H352.096C351.844 10.4668 351.605 10.3628 351.429 10.1827C351.252 10.0025 351.154 9.76045 351.154 9.50841C351.154 9.25636 351.252 9.01434 351.429 8.83418C351.605 8.65401 351.844 8.55002 352.096 8.54448H364.809C365.06 8.55002 365.3 8.65401 365.476 8.83418C365.652 9.01434 365.751 9.25636 365.751 9.50841C365.751 9.76045 365.652 10.0025 365.476 10.1827C365.3 10.3628 365.06 10.4668 364.809 10.4723Z" fill="#3F3D56"/>
<path d="M140.819 179.954C140.517 179.954 140.218 179.893 139.939 179.776C139.524 179.609 139.168 179.32 138.919 178.947C138.67 178.574 138.539 178.134 138.544 177.685V175.412C138.543 174.935 138.354 174.478 138.017 174.141C137.681 173.803 137.224 173.614 136.748 173.613C136.148 173.612 135.574 173.374 135.15 172.949C134.726 172.525 134.487 171.95 134.487 171.349V140.204C134.487 139.604 134.726 139.028 135.15 138.604C135.573 138.179 136.148 137.941 136.747 137.94H239.803C240.402 137.941 240.977 138.179 241.401 138.604C241.824 139.028 242.063 139.604 242.064 140.204V171.349C242.063 171.95 241.824 172.525 241.401 172.949C240.977 173.374 240.402 173.612 239.803 173.613H148.813C148.577 173.613 148.343 173.659 148.125 173.749C147.907 173.84 147.709 173.972 147.543 174.14L142.404 179.286C142.197 179.497 141.95 179.664 141.678 179.779C141.406 179.894 141.114 179.953 140.819 179.954Z" fill="white"/>
<path d="M140.819 180.419C140.456 180.419 140.096 180.346 139.761 180.206C139.26 180.004 138.831 179.656 138.531 179.206C138.231 178.756 138.074 178.226 138.079 177.685V175.412C138.079 175.059 137.939 174.72 137.689 174.47C137.439 174.219 137.101 174.079 136.748 174.078C136.025 174.077 135.332 173.79 134.821 173.278C134.31 172.766 134.023 172.073 134.022 171.349V140.204C134.023 139.48 134.31 138.787 134.821 138.275C135.332 137.763 136.025 137.476 136.747 137.475H239.803C240.525 137.476 241.218 137.763 241.729 138.275C242.24 138.787 242.527 139.48 242.528 140.204V171.349C242.527 172.073 242.24 172.766 241.729 173.278C241.218 173.79 240.525 174.078 239.803 174.078H148.813C148.638 174.078 148.465 174.112 148.303 174.179C148.141 174.246 147.995 174.345 147.871 174.469L142.732 179.615C142.482 179.869 142.185 180.071 141.856 180.209C141.528 180.347 141.175 180.419 140.819 180.419ZM136.747 138.405C136.271 138.406 135.815 138.595 135.478 138.933C135.141 139.27 134.952 139.727 134.951 140.204V171.349C134.952 171.826 135.141 172.283 135.478 172.621C135.815 172.958 136.271 173.147 136.748 173.148C137.347 173.149 137.922 173.388 138.346 173.812C138.769 174.236 139.008 174.812 139.008 175.412V177.685C139.009 178.041 139.114 178.389 139.311 178.684C139.509 178.98 139.789 179.211 140.117 179.347C140.446 179.483 140.807 179.518 141.155 179.449C141.504 179.38 141.824 179.208 142.075 178.957L147.214 173.811C147.424 173.6 147.673 173.433 147.947 173.319C148.222 173.205 148.516 173.147 148.813 173.148H239.803C240.279 173.147 240.736 172.958 241.072 172.621C241.409 172.283 241.598 171.826 241.599 171.349V140.204C241.598 139.727 241.409 139.27 241.072 138.932C240.735 138.595 240.279 138.406 239.803 138.405L136.747 138.405Z" fill="#3F3D56"/>
<path d="M230.947 152.04H147.38C147.061 152.04 146.754 151.913 146.529 151.687C146.303 151.461 146.176 151.155 146.176 150.835C146.176 150.516 146.303 150.209 146.529 149.983C146.754 149.757 147.061 149.63 147.38 149.63H230.947C231.266 149.63 231.572 149.757 231.798 149.983C232.024 150.209 232.15 150.516 232.15 150.835C232.15 151.155 232.024 151.461 231.798 151.687C231.572 151.913 231.266 152.04 230.947 152.04Z" fill="#3333FF"/>
<path d="M230.793 157.16H147.38C147.061 157.16 146.754 157.034 146.529 156.807C146.303 156.581 146.176 156.275 146.176 155.955C146.176 155.636 146.303 155.329 146.529 155.103C146.754 154.877 147.061 154.75 147.38 154.75H230.793C231.113 154.75 231.419 154.877 231.644 155.103C231.87 155.329 231.997 155.636 231.997 155.955C231.997 156.275 231.87 156.581 231.644 156.807C231.419 157.034 231.113 157.16 230.793 157.16Z" fill="#E6E6E6"/>
<path d="M230.71 162.28H147.38C147.061 162.28 146.754 162.153 146.529 161.927C146.303 161.701 146.176 161.395 146.176 161.075C146.176 160.755 146.303 160.449 146.529 160.223C146.754 159.997 147.061 159.87 147.38 159.87H230.71C231.029 159.87 231.336 159.997 231.561 160.223C231.787 160.449 231.914 160.755 231.914 161.075C231.914 161.395 231.787 161.701 231.561 161.927C231.336 162.153 231.029 162.28 230.71 162.28Z" fill="#E6E6E6"/>
<path d="M362.548 133.107C362.548 134.237 362.51 135.367 362.431 136.488C362.348 137.828 362.204 139.159 362.009 140.48C361.353 144.928 360.1 149.267 358.283 153.379C358.19 153.584 358.097 153.788 358.004 153.993L357.865 154.3C357.818 154.402 357.767 154.505 357.721 154.602C357.656 154.737 357.595 154.867 357.53 154.998C357.451 155.16 357.372 155.323 357.289 155.486C357.279 155.505 357.27 155.528 357.256 155.551C357.186 155.691 357.121 155.826 357.047 155.965C357.033 155.996 357.018 156.025 357.001 156.054C356.922 156.212 356.838 156.375 356.754 156.533C356.661 156.7 356.573 156.872 356.48 157.04C356.257 157.454 356.025 157.863 355.788 158.272C355.718 158.393 355.649 158.514 355.574 158.635C355.509 158.747 355.444 158.859 355.375 158.97C355.328 159.045 355.282 159.124 355.235 159.198C355.161 159.324 355.087 159.445 355.008 159.57C354.836 159.845 354.659 160.119 354.487 160.394H354.483C354.404 160.519 354.32 160.645 354.236 160.766V160.77C353.99 161.143 353.735 161.515 353.479 161.882C353.478 161.882 353.478 161.882 353.477 161.882C353.477 161.883 353.476 161.883 353.476 161.883C353.475 161.884 353.475 161.884 353.475 161.885C353.475 161.886 353.474 161.886 353.474 161.887C353.27 162.185 353.056 162.473 352.847 162.761V162.766C352.708 162.947 352.573 163.133 352.434 163.315C352.322 163.464 352.206 163.617 352.09 163.766C352.067 163.799 352.039 163.827 352.016 163.859V163.864C351.983 163.906 351.951 163.943 351.918 163.985C351.426 164.617 350.918 165.236 350.394 165.841L350.311 165.938C350.283 165.971 350.25 166.004 350.222 166.041C350.176 166.092 350.134 166.143 350.088 166.194C350.046 166.245 349.999 166.297 349.953 166.348C347.224 169.425 344.131 172.157 340.74 174.484C340.29 174.795 339.83 175.098 339.37 175.391C339.254 175.465 339.138 175.54 339.022 175.609C338.989 175.633 338.952 175.656 338.919 175.679C338.854 175.716 338.794 175.754 338.729 175.795C338.668 175.833 338.608 175.87 338.543 175.907C338.297 176.061 338.046 176.209 337.795 176.358C337.735 176.395 337.67 176.433 337.605 176.47C337.544 176.503 337.479 176.54 337.414 176.577C337.414 176.582 337.414 176.582 337.409 176.582H337.405V176.586H337.4C337.089 176.768 336.773 176.944 336.452 177.117C336.281 177.21 336.104 177.307 335.927 177.396C335.528 177.614 335.124 177.824 334.72 178.024C334.576 178.093 334.427 178.163 334.283 178.238C334.162 178.293 334.041 178.354 333.92 178.41C333.883 178.428 333.851 178.442 333.818 178.461C333.716 178.507 333.618 178.554 333.516 178.6C333.405 178.652 333.293 178.703 333.186 178.754C333.061 178.81 332.94 178.866 332.815 178.917C332.35 179.126 331.881 179.326 331.412 179.517C329.73 180.207 328.012 180.803 326.264 181.303C326.185 181.326 326.102 181.35 326.018 181.373C325.27 181.582 324.517 181.773 323.76 181.945C322.436 182.252 321.1 182.503 319.751 182.699H319.742C319.579 182.722 319.421 182.745 319.258 182.768C319.245 182.768 319.231 182.773 319.212 182.773C319.212 182.778 319.212 182.778 319.207 182.773C319.031 182.796 318.85 182.82 318.673 182.843C318.661 182.846 318.648 182.848 318.636 182.847C318.469 182.871 318.297 182.889 318.13 182.908C317.948 182.926 317.767 182.945 317.586 182.964C317.447 182.978 317.307 182.992 317.168 183.006C317.156 183.01 317.143 183.011 317.131 183.01C317.005 183.02 316.88 183.034 316.754 183.043H316.736C316.629 183.052 316.517 183.061 316.411 183.071C315.114 183.173 313.814 183.22 312.494 183.22C311.068 183.22 309.651 183.164 308.253 183.043H308.239C307.937 183.015 307.639 182.987 307.342 182.959C307.263 182.95 307.189 182.945 307.11 182.936C307.096 182.936 307.077 182.931 307.063 182.931C307.04 182.927 307.017 182.927 306.989 182.922C306.976 182.922 306.964 182.921 306.952 182.917C306.85 182.908 306.747 182.894 306.641 182.885L306.292 182.843C306.176 182.829 306.06 182.81 305.944 182.796C305.916 182.792 305.893 182.792 305.865 182.787C305.781 182.778 305.698 182.764 305.614 182.75C305.572 182.745 305.53 182.74 305.493 182.736C305.409 182.722 305.331 182.713 305.247 182.699H305.242C302.693 182.331 300.176 181.763 297.716 181.001C297.586 180.959 297.456 180.922 297.326 180.88C297.321 180.88 297.317 180.875 297.312 180.875C297.275 180.861 297.233 180.852 297.196 180.838C296.847 180.726 296.504 180.61 296.16 180.489C295.686 180.331 295.217 180.159 294.748 179.982C294.622 179.931 294.497 179.884 294.371 179.833C294.116 179.735 293.865 179.633 293.614 179.531C293.187 179.359 292.759 179.177 292.336 178.991C291.941 178.814 291.551 178.638 291.161 178.452C291.152 178.447 291.138 178.447 291.128 178.438C291.04 178.396 290.952 178.354 290.868 178.312H290.864C288.724 177.284 286.661 176.104 284.689 174.781C284.058 174.358 283.435 173.921 282.822 173.47C282.329 173.102 281.846 172.73 281.363 172.349C278.979 170.45 276.773 168.339 274.771 166.041V166.036C274.627 165.878 274.492 165.715 274.353 165.552C274.329 165.529 274.311 165.506 274.292 165.487C274.204 165.38 274.12 165.278 274.032 165.176V165.171C273.916 165.036 273.8 164.896 273.688 164.757C273.66 164.724 273.637 164.697 273.614 164.669V164.664C273.521 164.552 273.433 164.441 273.34 164.324C273.293 164.269 273.252 164.213 273.205 164.157V164.152C272.931 163.808 272.666 163.464 272.401 163.11C272.332 163.017 272.262 162.92 272.188 162.822C271.853 162.371 271.528 161.91 271.212 161.45V161.445C271.091 161.273 270.975 161.096 270.854 160.924C270.738 160.747 270.622 160.57 270.506 160.394C270.39 160.208 270.269 160.026 270.153 159.84L270.139 159.812C270.023 159.635 269.907 159.449 269.795 159.268C269.707 159.119 269.619 158.975 269.53 158.831C269.475 158.733 269.414 158.635 269.358 158.533C269.337 158.501 269.317 158.469 269.298 158.435C269.168 158.207 269.038 157.979 268.908 157.751C268.755 157.486 268.606 157.217 268.457 156.947C268.401 156.835 268.341 156.723 268.281 156.612C268.257 156.575 268.239 156.537 268.22 156.5C268.151 156.37 268.081 156.235 268.016 156.1C267.946 155.97 267.876 155.835 267.807 155.7C267.742 155.57 267.672 155.435 267.607 155.3C267.556 155.198 267.509 155.095 267.458 154.993C267.455 154.985 267.45 154.977 267.444 154.97C267.421 154.919 267.398 154.872 267.379 154.826C267.374 154.818 267.369 154.811 267.365 154.802C267.314 154.7 267.268 154.593 267.217 154.491C267.152 154.356 267.091 154.216 267.026 154.081C266.984 153.988 266.938 153.891 266.896 153.793C266.836 153.658 266.771 153.523 266.715 153.384C266.65 153.244 266.59 153.104 266.529 152.96C266.512 152.925 266.496 152.89 266.483 152.853C266.45 152.788 266.427 152.723 266.399 152.658C266.325 152.486 266.25 152.309 266.181 152.137C266.097 151.941 266.018 151.741 265.944 151.546C265.87 151.365 265.8 151.179 265.73 150.993L265.702 150.927C264.62 148.073 263.799 145.125 263.249 142.122V142.117C262.939 140.402 262.718 138.673 262.585 136.935C262.58 136.837 262.571 136.744 262.566 136.651C262.483 135.474 262.446 134.293 262.446 133.107C262.446 132.581 262.455 132.06 262.469 131.539C262.793 120.643 266.674 110.153 273.516 101.675C273.665 101.489 273.814 101.303 273.967 101.117C274.12 100.931 274.278 100.749 274.432 100.568C279.524 94.5962 285.947 89.9061 293.183 86.8759C300.418 83.8456 308.263 82.56 316.086 83.1227C323.908 83.6853 331.489 86.0805 338.218 90.115C344.946 94.1496 350.634 99.7107 354.822 106.35C355.049 106.713 355.277 107.08 355.495 107.448C355.718 107.82 355.932 108.192 356.146 108.569C360.354 116.06 362.56 124.512 362.548 133.107Z" fill="#F2F2F2"/>
<path d="M314.484 100.328C306.253 102.442 297.819 103.661 289.328 103.963C288.044 104.033 286.757 104.024 285.474 103.937C282.654 103.7 280.239 102.812 277.549 102.327C276.256 102.095 274.816 101.925 273.514 101.674C273.815 101.3 274.121 100.931 274.433 100.566C277.24 100.804 280.09 101.581 282.931 101.942C287.76 102.557 293.171 101.871 296.831 100.179C298.608 99.358 299.968 98.3332 301.738 97.5084C301.979 97.3847 302.239 97.3047 302.508 97.2722C303.018 97.2569 303.522 97.3878 303.961 97.6496C306.93 99.1505 311.241 100.37 315.243 99.6992C315.541 99.9329 314.974 100.199 314.484 100.328Z" fill="white"/>
<path d="M332.191 105.61C332.227 105.603 332.264 105.598 332.301 105.592C332.147 105.496 332.002 105.387 331.868 105.265L332.191 105.61Z" fill="white"/>
<path d="M356.145 108.571C354.474 108.705 352.794 108.804 351.105 108.87C349.821 108.939 348.534 108.93 347.251 108.843C344.431 108.605 342.016 107.719 339.326 107.234C336.861 106.79 333.866 106.576 332.301 105.592C336.346 104.891 340.537 106.318 344.708 106.849C348.082 107.264 351.502 107.095 354.819 106.349C355.281 107.076 355.723 107.817 356.145 108.571Z" fill="white"/>
<path d="M306.852 155.036C315.154 155.036 321.885 148.146 321.885 139.648C321.885 131.149 315.154 124.26 306.852 124.26C298.549 124.26 291.819 131.149 291.819 139.648C291.819 148.146 298.549 155.036 306.852 155.036Z" fill="#FFB6B6"/>
<path d="M335.927 177.396C335.528 177.614 335.124 177.824 334.72 178.024C334.576 178.093 334.427 178.163 334.283 178.238C334.162 178.293 334.041 178.354 333.92 178.41C333.883 178.428 333.851 178.442 333.818 178.461C333.716 178.507 333.618 178.554 333.516 178.6C333.405 178.652 333.293 178.703 333.186 178.754C333.061 178.81 332.94 178.866 332.815 178.917C332.35 179.126 331.881 179.326 331.412 179.517C329.73 180.207 328.012 180.803 326.264 181.303C326.185 181.326 326.102 181.35 326.018 181.373C325.27 181.582 324.517 181.773 323.76 181.945C322.436 182.252 321.1 182.503 319.751 182.699H319.742C319.579 182.722 319.421 182.745 319.258 182.768C319.245 182.768 319.231 182.773 319.212 182.773C319.212 182.778 319.212 182.778 319.207 182.773C319.031 182.796 318.85 182.82 318.673 182.843C318.661 182.846 318.648 182.848 318.636 182.848C318.469 182.871 318.297 182.889 318.13 182.908C317.948 182.927 317.767 182.945 317.586 182.964C317.447 182.978 317.307 182.992 317.168 183.006C317.156 183.01 317.143 183.011 317.131 183.01C317.005 183.02 316.88 183.034 316.754 183.043H316.736C316.629 183.052 316.517 183.061 316.411 183.071C315.114 183.173 313.814 183.22 312.494 183.22C311.068 183.22 309.651 183.164 308.253 183.043H308.239C307.937 183.015 307.639 182.987 307.342 182.959C307.263 182.95 307.189 182.945 307.11 182.936C307.096 182.936 307.077 182.931 307.063 182.931C307.04 182.927 307.017 182.927 306.989 182.922C306.976 182.922 306.964 182.921 306.952 182.917C306.85 182.908 306.747 182.894 306.641 182.885L306.292 182.843C306.176 182.829 306.06 182.81 305.944 182.796C305.916 182.792 305.893 182.792 305.865 182.787C305.781 182.778 305.697 182.764 305.614 182.75C305.572 182.745 305.53 182.741 305.493 182.736C305.409 182.722 305.33 182.713 305.247 182.699H305.242C302.693 182.331 300.176 181.763 297.716 181.001C297.586 180.959 297.456 180.922 297.326 180.88C297.926 178.079 299.161 175.453 300.935 173.206C302.71 170.959 304.977 169.15 307.56 167.92C306.921 167.311 306.48 166.523 306.292 165.659C306.172 165.103 306.162 164.528 306.264 163.967C306.366 163.407 306.578 162.872 306.887 162.394C307.49 161.467 308.435 160.818 309.516 160.589L316.401 159.147C317.51 158.931 318.658 159.161 319.598 159.788C320.538 160.416 321.192 161.389 321.419 162.496C321.489 162.836 321.52 163.182 321.512 163.529C328.141 167.948 332.912 172.53 335.927 177.396Z" fill="#3333FF"/>
<path d="M347.078 132.974C344.523 129.991 343.308 126.032 341.266 122.644C339.223 119.256 335.668 116.223 331.913 117.012C329.324 117.555 327.323 119.843 326.31 122.393C325.298 124.943 325.108 127.755 324.93 130.51C324.993 124.848 321.268 119.36 316.136 117.553C311.005 115.747 304.863 117.762 301.639 122.31C300.232 121.004 298.395 120.261 296.477 120.22C294.559 120.18 292.692 120.846 291.232 122.091C288.347 124.673 287.709 129.585 289.83 132.878C291.951 136.17 296.545 137.396 299.916 135.57L301.108 136.668C300.437 139.017 301.738 141.792 303.925 142.676C305.698 143.394 308.201 143.274 308.865 145.137C309.328 146.439 308.462 147.829 307.54 148.829C306.618 149.83 305.523 150.863 305.413 152.247C305.245 154.336 307.401 155.799 309.361 156.24C314.086 157.303 319.329 155.112 322.053 150.936C322.106 150.856 322.163 150.775 322.224 150.694C323.752 148.738 324.866 146.49 325.497 144.088C326.128 141.685 326.263 139.18 325.895 136.724C325.741 135.758 325.896 135.041 326.56 134.812C329.433 133.824 337.48 135.898 339.915 137.771C342.351 139.645 344.301 142.125 346.647 144.12C348.993 146.115 351.982 147.654 354.961 147.11C357.347 146.675 359.376 144.941 360.741 142.849C362.106 140.758 362.892 138.319 363.595 135.896C358.32 138.948 351.1 137.67 347.078 132.974Z" fill="#2F2E41"/>
<path d="M38.4787 101.94C38.4787 103.071 38.5158 104.201 38.5948 105.322C38.6784 106.662 38.8224 107.992 39.0176 109.313C39.6733 113.761 40.9266 118.1 42.7435 122.212C42.8363 122.417 42.9293 122.622 43.0222 122.826L43.1616 123.133C43.208 123.236 43.2591 123.338 43.3056 123.436C43.3706 123.571 43.431 123.701 43.4961 123.831C43.575 123.994 43.654 124.157 43.7376 124.32C43.7469 124.338 43.7562 124.361 43.7702 124.385C43.8398 124.524 43.9049 124.659 43.9792 124.799C43.9929 124.829 44.0084 124.859 44.0257 124.887C44.1047 125.045 44.1883 125.208 44.2719 125.366C44.3648 125.534 44.4531 125.706 44.546 125.873C44.769 126.287 45.0013 126.697 45.2382 127.106C45.3079 127.227 45.3776 127.348 45.4519 127.469C45.517 127.58 45.582 127.692 45.6517 127.804C45.6982 127.878 45.7446 127.957 45.7911 128.032C45.8654 128.157 45.9397 128.278 46.0187 128.404C46.1906 128.678 46.3671 128.953 46.539 129.227H46.5437C46.6227 129.353 46.7063 129.478 46.7899 129.599V129.604C47.0361 129.976 47.2916 130.348 47.5472 130.716C47.5478 130.716 47.5484 130.716 47.5489 130.716C47.5495 130.716 47.55 130.717 47.5505 130.717C47.5509 130.717 47.5513 130.718 47.5515 130.719C47.5517 130.719 47.5518 130.72 47.5518 130.72C47.7562 131.018 47.9699 131.306 48.179 131.595V131.6C48.3183 131.781 48.4531 131.967 48.5925 132.148C48.7039 132.297 48.8201 132.451 48.9362 132.6C48.9595 132.632 48.9873 132.66 49.0106 132.693V132.697C49.0431 132.739 49.0756 132.776 49.1081 132.818C49.6006 133.451 50.1085 134.07 50.6319 134.674L50.7156 134.772C50.7434 134.805 50.776 134.837 50.8038 134.874C50.8503 134.926 50.8921 134.977 50.9385 135.028C50.9804 135.079 51.0268 135.13 51.0733 135.181C53.8018 138.259 56.8955 140.991 60.2858 143.317C60.7364 143.629 61.1964 143.931 61.6563 144.224C61.7724 144.299 61.8886 144.373 62.0047 144.443C62.0372 144.466 62.0744 144.489 62.1069 144.513C62.172 144.55 62.2324 144.587 62.2974 144.629C62.3578 144.666 62.4182 144.703 62.4832 144.741C62.7295 144.894 62.9803 145.043 63.2312 145.192C63.2916 145.229 63.3567 145.266 63.4217 145.304C63.4821 145.336 63.5471 145.373 63.6122 145.41C63.6122 145.415 63.6122 145.415 63.6168 145.415H63.6215V145.42H63.6261C63.9374 145.601 64.2533 145.778 64.5738 145.95C64.7457 146.043 64.9223 146.141 65.0988 146.229C65.4983 146.448 65.9025 146.657 66.3067 146.857C66.4507 146.927 66.5994 146.997 66.7434 147.071C66.8642 147.127 66.985 147.187 67.1058 147.243C67.1429 147.262 67.1755 147.276 67.208 147.294C67.3102 147.341 67.4077 147.387 67.5099 147.434C67.6214 147.485 67.7329 147.536 67.8398 147.587C67.9652 147.643 68.086 147.699 68.2115 147.75C68.676 147.96 69.1452 148.16 69.6145 148.35C71.296 149.041 73.0145 149.637 74.762 150.137C74.8409 150.16 74.9246 150.183 75.0082 150.206C75.7562 150.416 76.5088 150.606 77.266 150.779C78.5901 151.086 79.9265 151.337 81.2753 151.532H81.2846C81.4472 151.555 81.6052 151.579 81.7678 151.602C81.7817 151.602 81.7956 151.607 81.8142 151.607C81.8142 151.611 81.8142 151.611 81.8189 151.607C81.9954 151.63 82.1766 151.653 82.3531 151.676C82.3652 151.68 82.3778 151.681 82.3903 151.681C82.5576 151.704 82.7295 151.723 82.8967 151.741C83.0779 151.76 83.259 151.779 83.4402 151.797C83.5796 151.811 83.719 151.825 83.8584 151.839C83.8703 151.843 83.883 151.845 83.8955 151.844C84.021 151.853 84.1464 151.867 84.2718 151.876H84.2904C84.3973 151.886 84.5088 151.895 84.6156 151.904C85.9118 152.007 87.2126 152.053 88.532 152.053C89.9582 152.053 91.3752 151.997 92.7736 151.876H92.7875C93.0895 151.848 93.3868 151.821 93.6841 151.793C93.7631 151.783 93.8374 151.779 93.9164 151.769C93.9304 151.769 93.9489 151.765 93.9629 151.765C93.9861 151.76 94.0093 151.76 94.0372 151.755C94.0498 151.756 94.0623 151.754 94.0744 151.751C94.1766 151.741 94.2788 151.727 94.3856 151.718L94.7341 151.676C94.8502 151.662 94.9663 151.644 95.0825 151.63C95.1104 151.625 95.1336 151.625 95.1615 151.621C95.2451 151.611 95.3287 151.597 95.4123 151.583C95.4542 151.579 95.496 151.574 95.5331 151.569C95.6168 151.555 95.6957 151.546 95.7794 151.532H95.784C98.3333 151.165 100.85 150.597 103.31 149.834C103.44 149.792 103.57 149.755 103.7 149.713C103.705 149.713 103.71 149.709 103.714 149.709C103.751 149.695 103.793 149.685 103.83 149.671C104.179 149.56 104.523 149.444 104.866 149.323C105.34 149.164 105.81 148.992 106.279 148.816C106.404 148.764 106.53 148.718 106.655 148.667C106.911 148.569 107.161 148.467 107.412 148.364C107.84 148.192 108.267 148.011 108.69 147.825C109.085 147.648 109.475 147.471 109.865 147.285C109.875 147.281 109.889 147.281 109.898 147.271C109.986 147.229 110.074 147.187 110.158 147.146H110.163C112.302 146.118 114.365 144.938 116.337 143.615C116.969 143.192 117.591 142.754 118.204 142.303C118.697 141.936 119.18 141.564 119.663 141.182C122.047 139.284 124.253 137.172 126.255 134.874V134.87C126.399 134.712 126.534 134.549 126.674 134.386C126.697 134.363 126.715 134.339 126.734 134.321C126.822 134.214 126.906 134.111 126.994 134.009V134.004C127.11 133.87 127.226 133.73 127.338 133.59C127.366 133.558 127.389 133.53 127.412 133.502V133.497C127.505 133.386 127.593 133.274 127.686 133.158C127.733 133.102 127.775 133.046 127.821 132.99V132.986C128.095 132.642 128.36 132.297 128.625 131.944C128.694 131.851 128.764 131.753 128.839 131.655C129.173 131.204 129.498 130.744 129.814 130.283V130.278C129.935 130.106 130.051 129.93 130.172 129.757C130.288 129.581 130.404 129.404 130.52 129.227C130.636 129.041 130.757 128.86 130.873 128.674L130.887 128.646C131.003 128.469 131.12 128.283 131.231 128.101C131.319 127.953 131.408 127.808 131.496 127.664C131.552 127.567 131.612 127.469 131.668 127.367C131.69 127.335 131.71 127.302 131.728 127.269C131.858 127.041 131.988 126.813 132.118 126.585C132.272 126.32 132.42 126.05 132.569 125.78C132.625 125.669 132.685 125.557 132.746 125.445C132.769 125.408 132.787 125.371 132.806 125.334C132.876 125.203 132.945 125.069 133.01 124.934C133.08 124.803 133.15 124.669 133.219 124.534C133.284 124.403 133.354 124.268 133.419 124.134C133.47 124.031 133.517 123.929 133.568 123.827C133.571 123.818 133.576 123.81 133.582 123.803C133.605 123.752 133.628 123.706 133.647 123.659C133.653 123.652 133.657 123.644 133.661 123.636C133.712 123.534 133.758 123.427 133.809 123.324C133.875 123.189 133.935 123.05 134 122.915C134.042 122.822 134.088 122.724 134.13 122.626C134.19 122.492 134.255 122.357 134.311 122.217C134.376 122.078 134.437 121.938 134.497 121.794C134.514 121.759 134.53 121.723 134.543 121.687C134.576 121.622 134.599 121.557 134.627 121.491C134.701 121.319 134.776 121.143 134.845 120.97C134.929 120.775 135.008 120.575 135.082 120.38C135.157 120.198 135.226 120.012 135.296 119.826L135.324 119.761C136.406 116.906 137.227 113.959 137.777 110.955V110.951C138.087 109.236 138.309 107.506 138.441 105.769C138.446 105.671 138.455 105.578 138.46 105.485C138.543 104.308 138.581 103.126 138.581 101.94C138.581 101.415 138.571 100.894 138.557 100.373C138.233 89.4766 134.353 78.987 127.51 70.5086C127.361 70.3226 127.213 70.1365 127.059 69.9504C126.906 69.7644 126.748 69.583 126.595 69.4015C121.502 63.4297 115.079 58.7397 107.844 55.7094C100.608 52.6792 92.7632 51.3936 84.9406 51.9562C77.1181 52.5189 69.537 54.914 62.8086 58.9486C56.0802 62.9832 50.3927 68.5443 46.2046 75.1836C45.9769 75.5464 45.7493 75.9139 45.5309 76.2815C45.3079 76.6536 45.0942 77.0257 44.8805 77.4025C40.6718 84.8932 38.4666 93.3455 38.4787 101.94Z" fill="#F2F2F2"/>
<path d="M86.5426 69.1613C94.7728 71.2759 103.207 72.4948 111.699 72.7968C112.983 72.8668 114.27 72.8581 115.553 72.7705C118.372 72.5331 120.787 71.6458 123.477 71.1609C124.77 70.9284 126.21 70.7585 127.512 70.5073C127.211 70.1336 126.905 69.7645 126.594 69.4C123.787 69.6375 120.936 70.4148 118.095 70.776C113.266 71.3908 107.856 70.7047 104.195 69.0126C102.419 68.1915 101.058 67.1668 99.2884 66.342C99.0477 66.2182 98.787 66.1383 98.5183 66.1058C98.008 66.0904 97.504 66.2214 97.0655 66.4832C94.0962 67.9841 89.7852 69.2038 85.7837 68.5327C85.4854 68.7664 86.0521 69.0326 86.5426 69.1613Z" fill="white"/>
<path d="M68.8355 74.4433C68.7989 74.4366 68.7623 74.4314 68.7257 74.425C68.8794 74.3296 69.0242 74.2205 69.1581 74.0988L68.8355 74.4433Z" fill="white"/>
<path d="M44.8815 77.4045C46.5527 77.5382 48.2327 77.6378 49.9214 77.7032C51.2055 77.7726 52.4926 77.7638 53.7756 77.677C56.5951 77.4382 59.0103 76.5522 61.7 76.0673C64.165 75.6236 67.1605 75.4099 68.7256 74.4252C64.6805 73.7241 60.4893 75.1513 56.318 75.6824C52.944 76.0978 49.5237 75.9287 46.207 75.1825C45.7452 75.9098 45.3034 76.6505 44.8815 77.4045Z" fill="white"/>
<path d="M65.0988 146.229C65.4983 146.448 65.9025 146.657 66.3067 146.857C66.4507 146.927 66.5994 146.997 66.7434 147.071C66.8642 147.127 66.985 147.187 67.1058 147.243C67.1429 147.262 67.1755 147.276 67.208 147.294C67.3102 147.341 67.4077 147.387 67.51 147.434C67.6215 147.485 67.733 147.536 67.8398 147.587C67.9652 147.643 68.086 147.699 68.2115 147.75C68.676 147.96 69.1453 148.16 69.6145 148.35C71.296 149.041 73.0145 149.637 74.762 150.137C74.841 150.16 74.9246 150.183 75.0082 150.206C75.7562 150.416 76.5088 150.606 77.2661 150.779C78.5901 151.086 79.9265 151.337 81.2753 151.532H81.2846C81.4472 151.555 81.6052 151.579 81.7678 151.602C81.7817 151.602 81.7957 151.607 81.8142 151.607C81.8142 151.611 81.8142 151.611 81.8189 151.607C81.9954 151.63 82.1766 151.653 82.3531 151.676C82.3652 151.68 82.3778 151.681 82.3903 151.681C82.5576 151.704 82.7295 151.723 82.8967 151.741C83.0779 151.76 83.2591 151.779 83.4403 151.797C83.5796 151.811 83.719 151.825 83.8584 151.839C83.8703 151.843 83.883 151.845 83.8955 151.844C84.021 151.853 84.1464 151.867 84.2718 151.876H84.2904C84.3973 151.886 84.5088 151.895 84.6156 151.904C85.9118 152.007 87.2126 152.053 88.532 152.053C89.9582 152.053 91.3752 151.997 92.7736 151.876H92.7875C93.0895 151.848 93.3868 151.821 93.6841 151.793C93.7631 151.783 93.8374 151.779 93.9164 151.769C93.9304 151.769 93.9489 151.765 93.9629 151.765C93.9861 151.76 94.0093 151.76 94.0372 151.755C94.0498 151.756 94.0623 151.754 94.0744 151.751C94.1766 151.741 94.2788 151.728 94.3856 151.718L94.7341 151.676C94.8502 151.662 94.9664 151.644 95.0825 151.63C95.1104 151.625 95.1336 151.625 95.1615 151.621C95.2451 151.611 95.3287 151.597 95.4124 151.583C95.4542 151.579 95.496 151.574 95.5331 151.569C95.6168 151.555 95.6957 151.546 95.7794 151.532H95.784C98.3333 151.165 100.85 150.597 103.31 149.834C103.44 149.792 103.57 149.755 103.7 149.713C103.101 146.912 101.866 144.287 100.091 142.04C98.3164 139.793 96.0496 137.984 93.4658 136.754C94.1049 136.144 94.5467 135.357 94.7341 134.493C94.8547 133.936 94.8642 133.361 94.7622 132.801C94.6601 132.24 94.4485 131.706 94.1394 131.227C93.5366 130.301 92.5907 129.651 91.5099 129.423L84.6249 127.981C83.5166 127.764 82.3678 127.995 81.4282 128.622C80.4887 129.249 79.8343 130.222 79.6075 131.33C79.5373 131.669 79.5061 132.016 79.5146 132.362C72.8851 136.782 68.1139 141.363 65.0988 146.229Z" fill="#3333FF"/>
<path d="M92.3362 123.327C101.592 123.327 109.095 115.814 109.095 106.547C109.095 97.2794 101.592 89.7667 92.3362 89.7667C83.0806 89.7667 75.5775 97.2794 75.5775 106.547C75.5775 115.814 83.0806 123.327 92.3362 123.327Z" fill="#9E616A"/>
<path d="M89.9547 122.43C85.7592 123.565 81.1337 122.056 77.8595 119.195C74.5853 116.334 72.5372 112.279 71.3571 108.091C70.4928 105.024 70.083 101.62 71.4469 98.7402C72.8108 95.8607 76.4815 93.918 79.3135 95.3725C77.5665 93.3345 78.4393 89.9636 80.4797 88.2202C82.5201 86.4767 85.3219 85.9768 87.9903 85.7036C91.863 85.307 95.8632 85.2627 99.5484 86.5189C103.234 87.7751 106.582 90.5216 107.735 94.2445C108.913 94.7937 110.24 94.9361 111.507 94.6496C112.775 94.3631 113.911 93.6637 114.739 92.6611C114.953 93.8126 114.781 95.0025 114.252 96.0466C113.722 97.0908 112.863 97.9309 111.808 98.4372L117.454 96.6042C118.425 98.6623 116.724 101.209 114.548 101.868C112.372 102.528 110.023 101.807 107.959 100.855C105.894 99.9029 103.893 98.6991 101.65 98.3277C99.4072 97.9564 96.7727 98.678 95.7353 100.703C95.192 101.764 95.1636 103.006 94.8482 104.156C94.5327 105.306 93.7335 106.497 92.5466 106.592C91.7967 106.651 91.0625 106.251 90.3147 106.333C89.8558 106.423 89.4332 106.646 89.0986 106.973C88.7641 107.3 88.5321 107.718 88.4311 108.176C88.2449 109.093 88.2426 110.039 88.4244 110.957L89.8587 121.934L89.9547 122.43Z" fill="#2F2E41"/>
</g>
<defs>
<clipPath id="clip0_1_144">
<rect width="376" height="293" fill="white"/>
</clipPath>
</defs>
</svg>
