<svg width="403" height="254" viewBox="0 0 403 254" fill="none" xmlns="http://www.w3.org/2000/svg">
<g clip-path="url(#clip0_1_41)">
<path d="M354.87 232.292L355.262 223.49C359.354 221.309 363.918 220.157 368.557 220.134C362.172 225.34 362.97 235.377 358.641 242.378C355.872 246.78 351.246 249.688 346.069 250.279L340.725 253.542C339.242 245.292 341.454 236.808 346.781 230.325C348.275 228.542 349.988 226.954 351.881 225.599C353.16 228.964 354.87 232.292 354.87 232.292Z" fill="#F2F2F2"/>
<path d="M84.759 222.647L71.8646 218.754C70.1735 211.901 70.185 204.741 71.8983 197.895C77.2083 209.266 92.3804 211.87 101.125 220.888C106.605 226.627 109.171 234.541 108.098 242.394L110.92 251.498C98.1365 250.578 86.3978 244.121 78.7969 233.829C76.7182 230.955 75.0107 227.831 73.7146 224.532C79.1835 223.913 84.759 222.647 84.759 222.647Z" fill="#F2F2F2"/>
<path d="M310.19 252.103C310.189 252.369 310.082 252.625 309.894 252.814C309.706 253.001 309.452 253.105 309.186 253.104H305.149C304.597 253.106 304.147 252.661 304.145 252.11V130.346C304.145 127.661 303.241 125.483 302.132 125.478H50.8301C49.7154 125.483 48.8166 127.661 48.8116 130.346V251.357C48.8099 251.872 48.4172 252.303 47.9028 252.353C47.0893 252.433 46.2759 252.503 45.4675 252.569C45.4474 252.569 45.4273 252.574 45.4073 252.574C44.9654 252.614 44.5235 252.644 44.0817 252.679H44.0766C43.8457 252.263 43.6248 251.837 43.3988 251.412C43.3264 251.267 43.2886 251.108 43.2883 250.946V124.031C43.2883 123.29 43.3185 122.544 43.3687 121.807C43.4403 120.797 43.566 119.79 43.7453 118.793C44.5938 114.141 46.5119 110.991 48.6911 110.981H304.266C304.584 110.983 304.898 111.049 305.189 111.176C305.618 111.365 306.005 111.636 306.329 111.972C306.77 112.429 307.146 112.943 307.449 113.5C308.523 115.388 309.292 118.202 309.563 121.477C309.563 121.507 309.568 121.537 309.568 121.567C309.638 122.378 309.673 123.205 309.668 124.031L309.739 134.762L309.784 141.162L309.919 161.243L309.97 168.374L310.19 252.103Z" fill="#E6E6E6"/>
<path d="M216.924 73.8568H191.313C190.559 73.858 189.948 74.4687 189.949 75.2211V115.57H218.292V75.2211C218.292 74.468 217.68 73.8572 216.925 73.8568H216.924ZM204.205 96.7826C202.538 96.7749 201.188 95.4291 201.181 93.7665V89.1126C201.181 87.4469 202.535 86.0965 204.205 86.0965C205.875 86.0965 207.229 87.4469 207.229 89.1126V93.7665C207.221 95.4291 205.872 96.7749 204.205 96.7826Z" fill="#CCCCCC"/>
<path d="M189.861 114.279V118.172C189.862 118.592 190.203 118.932 190.624 118.933H217.617C218.037 118.931 218.378 118.592 218.38 118.172V114.279H189.861Z" fill="#3F3D56"/>
<path d="M259.332 10.8877H149.858C147.899 10.8908 146.313 12.4733 146.31 14.4263V88.1031C146.311 90.0567 147.899 91.6399 149.858 91.6417H259.332C261.291 91.6399 262.879 90.0567 262.881 88.1031V14.4263C262.877 12.4733 261.291 10.8908 259.332 10.8877Z" fill="#E6E6E6"/>
<path d="M258.419 13.4436H150.772C149.724 13.4459 148.875 14.2942 148.875 15.34V87.1906C148.877 88.2351 149.725 89.0813 150.772 89.0831H258.419C259.466 89.0813 260.314 88.2351 260.316 87.1906V15.34C260.316 14.2942 259.467 13.4459 258.419 13.4436Z" fill="white"/>
<path d="M237.451 120.288H173.407C172.757 120.288 172.229 119.762 172.229 119.113C172.229 119.032 172.238 118.951 172.254 118.871L173.248 114.164C173.365 113.621 173.845 113.233 174.401 113.231H236.457C237.014 113.233 237.494 113.621 237.61 114.164L238.604 118.871C238.738 119.506 238.33 120.129 237.694 120.263C237.614 120.28 237.533 120.288 237.451 120.288Z" fill="#CCCCCC"/>
<path d="M176.583 114.079H175.101C174.965 114.079 174.856 114.188 174.856 114.323V115.014C174.856 115.149 174.965 115.259 175.101 115.259H176.583C176.718 115.259 176.828 115.149 176.828 115.014V114.323C176.828 114.188 176.718 114.079 176.583 114.079Z" fill="#E6E6E6"/>
<path d="M180.528 114.079H179.046C178.91 114.079 178.801 114.188 178.801 114.323V115.014C178.801 115.149 178.91 115.259 179.046 115.259H180.528C180.663 115.259 180.773 115.149 180.773 115.014V114.323C180.773 114.188 180.663 114.079 180.528 114.079Z" fill="#E6E6E6"/>
<path d="M184.473 114.079H182.991C182.855 114.079 182.746 114.188 182.746 114.323V115.014C182.746 115.149 182.855 115.259 182.991 115.259H184.473C184.608 115.259 184.718 115.149 184.718 115.014V114.323C184.718 114.188 184.608 114.079 184.473 114.079Z" fill="#E6E6E6"/>
<path d="M188.418 114.079H186.936C186.8 114.079 186.691 114.188 186.691 114.323V115.014C186.691 115.149 186.8 115.259 186.936 115.259H188.418C188.553 115.259 188.663 115.149 188.663 115.014V114.323C188.663 114.188 188.553 114.079 188.418 114.079Z" fill="#E6E6E6"/>
<path d="M192.363 114.079H190.881C190.745 114.079 190.635 114.188 190.635 114.323V115.014C190.635 115.149 190.745 115.259 190.881 115.259H192.363C192.498 115.259 192.608 115.149 192.608 115.014V114.323C192.608 114.188 192.498 114.079 192.363 114.079Z" fill="#E6E6E6"/>
<path d="M196.308 114.079H194.826C194.69 114.079 194.58 114.188 194.58 114.323V115.014C194.58 115.149 194.69 115.259 194.826 115.259H196.308C196.443 115.259 196.553 115.149 196.553 115.014V114.323C196.553 114.188 196.443 114.079 196.308 114.079Z" fill="#E6E6E6"/>
<path d="M200.253 114.079H198.771C198.635 114.079 198.525 114.188 198.525 114.323V115.014C198.525 115.149 198.635 115.259 198.771 115.259H200.253C200.388 115.259 200.498 115.149 200.498 115.014V114.323C200.498 114.188 200.388 114.079 200.253 114.079Z" fill="#E6E6E6"/>
<path d="M204.198 114.079H202.716C202.58 114.079 202.47 114.188 202.47 114.323V115.014C202.47 115.149 202.58 115.259 202.716 115.259H204.198C204.333 115.259 204.443 115.149 204.443 115.014V114.323C204.443 114.188 204.333 114.079 204.198 114.079Z" fill="#E6E6E6"/>
<path d="M208.143 114.079H206.661C206.525 114.079 206.415 114.188 206.415 114.323V115.014C206.415 115.149 206.525 115.259 206.661 115.259H208.143C208.278 115.259 208.388 115.149 208.388 115.014V114.323C208.388 114.188 208.278 114.079 208.143 114.079Z" fill="#E6E6E6"/>
<path d="M212.088 114.079H210.605C210.47 114.079 210.36 114.188 210.36 114.323V115.014C210.36 115.149 210.47 115.259 210.605 115.259H212.088C212.223 115.259 212.333 115.149 212.333 115.014V114.323C212.333 114.188 212.223 114.079 212.088 114.079Z" fill="#E6E6E6"/>
<path d="M216.033 114.079H214.55C214.415 114.079 214.305 114.188 214.305 114.323V115.014C214.305 115.149 214.415 115.259 214.55 115.259H216.033C216.168 115.259 216.278 115.149 216.278 115.014V114.323C216.278 114.188 216.168 114.079 216.033 114.079Z" fill="#E6E6E6"/>
<path d="M219.978 114.079H218.495C218.36 114.079 218.25 114.188 218.25 114.323V115.014C218.25 115.149 218.36 115.259 218.495 115.259H219.978C220.113 115.259 220.223 115.149 220.223 115.014V114.323C220.223 114.188 220.113 114.079 219.978 114.079Z" fill="#E6E6E6"/>
<path d="M223.923 114.079H222.44C222.305 114.079 222.195 114.188 222.195 114.323V115.014C222.195 115.149 222.305 115.259 222.44 115.259H223.923C224.058 115.259 224.168 115.149 224.168 115.014V114.323C224.168 114.188 224.058 114.079 223.923 114.079Z" fill="#E6E6E6"/>
<path d="M227.868 114.079H226.385C226.25 114.079 226.14 114.188 226.14 114.323V115.014C226.14 115.149 226.25 115.259 226.385 115.259H227.868C228.003 115.259 228.113 115.149 228.113 115.014V114.323C228.113 114.188 228.003 114.079 227.868 114.079Z" fill="#E6E6E6"/>
<path d="M231.813 114.079H230.33C230.195 114.079 230.085 114.188 230.085 114.323V115.014C230.085 115.149 230.195 115.259 230.33 115.259H231.813C231.948 115.259 232.058 115.149 232.058 115.014V114.323C232.058 114.188 231.948 114.079 231.813 114.079Z" fill="#E6E6E6"/>
<path d="M235.758 114.079H234.275C234.14 114.079 234.03 114.188 234.03 114.323V115.014C234.03 115.149 234.14 115.259 234.275 115.259H235.758C235.893 115.259 236.003 115.149 236.003 115.014V114.323C236.003 114.188 235.893 114.079 235.758 114.079Z" fill="#E6E6E6"/>
<path d="M176.536 116.046H175.054C174.919 116.046 174.809 116.155 174.809 116.29V116.982C174.809 117.117 174.919 117.226 175.054 117.226H176.536C176.672 117.226 176.782 117.117 176.782 116.982V116.29C176.782 116.155 176.672 116.046 176.536 116.046Z" fill="#E6E6E6"/>
<path d="M180.481 116.046H178.999C178.864 116.046 178.754 116.155 178.754 116.29V116.982C178.754 117.117 178.864 117.226 178.999 117.226H180.481C180.617 117.226 180.727 117.117 180.727 116.982V116.29C180.727 116.155 180.617 116.046 180.481 116.046Z" fill="#E6E6E6"/>
<path d="M184.426 116.046H182.944C182.809 116.046 182.699 116.155 182.699 116.29V116.982C182.699 117.117 182.809 117.226 182.944 117.226H184.426C184.562 117.226 184.671 117.117 184.671 116.982V116.29C184.671 116.155 184.562 116.046 184.426 116.046Z" fill="#E6E6E6"/>
<path d="M188.371 116.046H186.889C186.754 116.046 186.644 116.155 186.644 116.29V116.982C186.644 117.117 186.754 117.226 186.889 117.226H188.371C188.507 117.226 188.616 117.117 188.616 116.982V116.29C188.616 116.155 188.507 116.046 188.371 116.046Z" fill="#E6E6E6"/>
<path d="M192.316 116.046H190.834C190.699 116.046 190.589 116.155 190.589 116.29V116.982C190.589 117.117 190.699 117.226 190.834 117.226H192.316C192.452 117.226 192.561 117.117 192.561 116.982V116.29C192.561 116.155 192.452 116.046 192.316 116.046Z" fill="#E6E6E6"/>
<path d="M196.261 116.046H194.779C194.644 116.046 194.534 116.155 194.534 116.29V116.982C194.534 117.117 194.644 117.226 194.779 117.226H196.261C196.397 117.226 196.506 117.117 196.506 116.982V116.29C196.506 116.155 196.397 116.046 196.261 116.046Z" fill="#E6E6E6"/>
<path d="M200.206 116.046H198.724C198.589 116.046 198.479 116.155 198.479 116.29V116.982C198.479 117.117 198.589 117.226 198.724 117.226H200.206C200.342 117.226 200.451 117.117 200.451 116.982V116.29C200.451 116.155 200.342 116.046 200.206 116.046Z" fill="#E6E6E6"/>
<path d="M204.151 116.046H202.669C202.534 116.046 202.424 116.155 202.424 116.29V116.982C202.424 117.117 202.534 117.226 202.669 117.226H204.151C204.287 117.226 204.396 117.117 204.396 116.982V116.29C204.396 116.155 204.287 116.046 204.151 116.046Z" fill="#E6E6E6"/>
<path d="M208.096 116.046H206.614C206.479 116.046 206.369 116.155 206.369 116.29V116.982C206.369 117.117 206.479 117.226 206.614 117.226H208.096C208.232 117.226 208.341 117.117 208.341 116.982V116.29C208.341 116.155 208.232 116.046 208.096 116.046Z" fill="#E6E6E6"/>
<path d="M212.041 116.046H210.559C210.423 116.046 210.314 116.155 210.314 116.29V116.982C210.314 117.117 210.423 117.226 210.559 117.226H212.041C212.176 117.226 212.286 117.117 212.286 116.982V116.29C212.286 116.155 212.176 116.046 212.041 116.046Z" fill="#E6E6E6"/>
<path d="M215.986 116.046H214.504C214.368 116.046 214.259 116.155 214.259 116.29V116.982C214.259 117.117 214.368 117.226 214.504 117.226H215.986C216.121 117.226 216.231 117.117 216.231 116.982V116.29C216.231 116.155 216.121 116.046 215.986 116.046Z" fill="#E6E6E6"/>
<path d="M219.931 116.046H218.449C218.313 116.046 218.204 116.155 218.204 116.29V116.982C218.204 117.117 218.313 117.226 218.449 117.226H219.931C220.066 117.226 220.176 117.117 220.176 116.982V116.29C220.176 116.155 220.066 116.046 219.931 116.046Z" fill="#E6E6E6"/>
<path d="M223.876 116.046H222.394C222.258 116.046 222.149 116.155 222.149 116.29V116.982C222.149 117.117 222.258 117.226 222.394 117.226H223.876C224.011 117.226 224.121 117.117 224.121 116.982V116.29C224.121 116.155 224.011 116.046 223.876 116.046Z" fill="#E6E6E6"/>
<path d="M227.821 116.046H226.339C226.203 116.046 226.094 116.155 226.094 116.29V116.982C226.094 117.117 226.203 117.226 226.339 117.226H227.821C227.956 117.226 228.066 117.117 228.066 116.982V116.29C228.066 116.155 227.956 116.046 227.821 116.046Z" fill="#E6E6E6"/>
<path d="M231.766 116.046H230.284C230.148 116.046 230.039 116.155 230.039 116.29V116.982C230.039 117.117 230.148 117.226 230.284 117.226H231.766C231.901 117.226 232.011 117.117 232.011 116.982V116.29C232.011 116.155 231.901 116.046 231.766 116.046Z" fill="#E6E6E6"/>
<path d="M235.711 116.046H234.229C234.093 116.046 233.984 116.155 233.984 116.29V116.982C233.984 117.117 234.093 117.226 234.229 117.226H235.711C235.846 117.226 235.956 117.117 235.956 116.982V116.29C235.956 116.155 235.846 116.046 235.711 116.046Z" fill="#E6E6E6"/>
<path d="M209.28 118.406H193.99C193.855 118.406 193.745 118.516 193.745 118.651V119.342C193.745 119.477 193.855 119.587 193.99 119.587H209.28C209.415 119.587 209.525 119.477 209.525 119.342V118.651C209.525 118.516 209.415 118.406 209.28 118.406Z" fill="#E6E6E6"/>
<path d="M253.007 23.343H152.283C152.062 23.3382 151.887 23.1554 151.891 22.9347C151.896 22.7209 152.069 22.5487 152.283 22.544H253.007C253.229 22.5489 253.404 22.7317 253.399 22.9523C253.394 23.1661 253.222 23.3383 253.007 23.343Z" fill="#CACACA"/>
<path d="M159.14 20.5044C160.436 20.5044 161.487 19.4328 161.487 18.111C161.487 16.7892 160.436 15.7177 159.14 15.7177C157.843 15.7177 156.792 16.7892 156.792 18.111C156.792 19.4328 157.843 20.5044 159.14 20.5044Z" fill="#CCCCCC"/>
<path d="M167.249 20.5044C168.545 20.5044 169.596 19.4328 169.596 18.111C169.596 16.7892 168.545 15.7177 167.249 15.7177C165.952 15.7177 164.901 16.7892 164.901 18.111C164.901 19.4328 165.952 20.5044 167.249 20.5044Z" fill="#CCCCCC"/>
<path d="M175.358 20.5044C176.655 20.5044 177.706 19.4328 177.706 18.111C177.706 16.7892 176.655 15.7177 175.358 15.7177C174.062 15.7177 173.011 16.7892 173.011 18.111C173.011 19.4328 174.062 20.5044 175.358 20.5044Z" fill="#CCCCCC"/>
<path d="M202.542 29.4002L202.217 28.4523L243.821 6.8931L244.146 7.84105L202.542 29.4002Z" fill="#3F3D56"/>
<path d="M328.07 69.3326L327.745 68.3847L352.779 46.9347L353.104 47.8821L328.07 69.3326Z" fill="#3F3D56"/>
<path d="M279.973 74.3258L238.369 52.7667L238.694 51.8187L280.298 73.3779L279.973 74.3258Z" fill="#3F3D56"/>
<path d="M301.27 59.3237L276.88 19.3893L277.65 18.7468L302.04 58.6812L301.27 59.3237Z" fill="#3F3D56"/>
<path d="M320.304 7.2882L296.55 7.17903V6.17749L320.304 6.28666V7.2882Z" fill="#3F3D56"/>
<path d="M363.333 13.5005H336.721C333.116 13.5005 330.194 10.5859 330.194 6.99048C330.194 3.3951 333.116 0.480469 336.721 0.480469H363.333C366.938 0.480469 369.861 3.3951 369.861 6.99048C369.861 10.5859 366.938 13.5005 363.333 13.5005Z" fill="#3333FF"/>
<path d="M396.473 51.559H369.861C366.256 51.559 363.333 48.6444 363.333 45.049C363.333 41.4536 366.256 38.539 369.861 38.539H396.473C400.078 38.539 403 41.4536 403 45.049C403 48.6444 400.078 51.559 396.473 51.559Z" fill="#3333FF"/>
<path d="M353.443 78.3971L329.69 78.2884V77.2869L353.443 77.3955V78.3971Z" fill="#3F3D56"/>
<path d="M396.473 84.6099H369.861C366.256 84.6099 363.333 81.6952 363.333 78.0999C363.333 74.5045 366.256 71.5898 369.861 71.5898H396.473C400.078 71.5898 403 74.5045 403 78.0999C403 81.6952 400.078 84.6099 396.473 84.6099Z" fill="#3333FF"/>
<path d="M318.645 80.1232H292.033C288.428 80.1232 285.506 77.2086 285.506 73.6132C285.506 70.0178 288.428 67.1032 292.033 67.1032H318.645C322.25 67.1032 325.173 70.0178 325.173 73.6132C325.173 77.2086 322.25 80.1232 318.645 80.1232Z" fill="#3333FF"/>
<path d="M282.493 13.02H255.881C252.276 13.02 249.354 10.1054 249.354 6.51001C249.354 2.91463 252.276 0 255.881 0H282.493C286.098 0 289.021 2.91463 289.021 6.51001C289.021 10.1054 286.098 13.02 282.493 13.02Z" fill="#3333FF"/>
<path d="M155.294 124.782H125.168C122.949 124.782 121.151 126.576 121.151 128.788C121.151 131.001 122.949 132.794 125.168 132.794H136.214V163.842H144.248V132.794H155.294C157.513 132.794 159.311 131.001 159.311 128.788C159.311 126.576 157.513 124.782 155.294 124.782Z" fill="#3F3D56"/>
<path d="M175.178 181.037H94.5982C78.451 180.978 64.7896 169.118 62.505 153.176L59.6527 142.712C53.7489 121.029 44.7563 100.302 32.9497 81.1661C27.5534 72.4258 24.7759 63.9653 31.0845 55.8195C31.1382 55.7502 31.191 55.6818 31.2429 55.6144C36.3028 49.0462 61.4873 47.6243 69.6973 47.3477C70.0217 47.3367 70.3473 47.3313 70.6741 47.3314H120.794C121.121 47.3314 121.447 47.3368 121.771 47.3477C130.788 47.6099 138.933 52.7875 142.978 60.8289C147.295 69.0389 146.744 78.9495 141.544 86.6335C123.938 113.01 118.548 129.548 124.067 140.258C129.405 150.618 145.768 155.915 175.562 156.927C183.569 157.199 187.244 163.417 187.27 169.079C187.295 174.594 183.762 180.684 175.946 181.021C175.692 181.032 175.436 181.037 175.178 181.037Z" fill="#3F3D56"/>
<path d="M108.287 252.397H138.414C140.632 252.397 142.431 250.603 142.431 248.391C142.431 246.178 140.632 244.384 138.414 244.384H127.367V176.78H119.333V244.384H108.287C106.069 244.384 104.27 246.178 104.27 248.391C104.27 250.603 106.069 252.397 108.287 252.397Z" fill="#3F3D56"/>
<path d="M135.555 225.142L140.744 227.954L154.483 209.009L146.823 204.859L135.555 225.142Z" fill="#A0616A"/>
<path d="M138.053 218.391L147.474 221.334L145.975 225.27L152.435 234.622C153.262 235.818 152.96 237.456 151.76 238.281C151.047 238.771 150.137 238.881 149.327 238.574L138.359 234.418L137.951 229.808L135.73 233.422L131.595 231.855L138.053 218.391Z" fill="#2F2E41"/>
<path d="M148.667 34.0902C149.132 37.2688 146.925 40.2213 143.738 40.685C143.399 40.7344 143.055 40.7538 142.712 40.7429L122.702 83.2059L116.426 74.4776L137.025 34.3253C137.341 31.1112 140.21 28.7615 143.433 29.0771C146.13 29.3412 148.294 31.4137 148.667 34.0902Z" fill="#A0616A"/>
<path d="M82.2632 91.7915C82.2632 91.7915 81.727 99.2097 90.1389 100.665C98.5508 102.12 121.038 87.9375 124.731 85.7599C128.425 83.5823 135.307 56.1841 135.307 56.1841L129.322 46.0877C121.932 55.4105 116.129 64.0072 115.776 70.1096L82.2632 91.7915Z" fill="#3333FF"/>
<path d="M91.9744 117.344L93.7912 125.129C93.7912 125.129 93.809 132.308 95.0837 133.631C96.3495 134.949 124.184 132.303 124.184 132.303C124.184 132.303 121.233 120.736 121.272 111.983L91.9744 117.344Z" fill="#A0616A"/>
<path d="M150.775 216.924L140.733 211.415C140.542 198.383 148.402 180.746 157.724 162.273C136.875 165.85 117.206 166.995 100.193 162.669C94.3812 161.139 90.8786 155.238 92.3283 149.42C92.3946 149.145 92.4711 148.874 92.5581 148.605C94.5942 142.409 90.0286 138.526 94.2279 131.711C105.273 127.949 115.764 126.887 125.359 130.209L131.37 143.465L161.167 139.619C167.192 138.901 172.66 143.19 173.38 149.199C173.384 149.226 173.387 149.254 173.39 149.281C173.43 149.604 173.456 149.928 173.468 150.253C167.444 178.422 160.688 203.769 150.775 216.924Z" fill="#2F2E41"/>
<path d="M87.9297 68.0568L99.4085 67.3808C100.401 67.3224 101.321 67.8982 101.7 68.8146L104.944 76.6575L118.426 87.7707C118.426 87.7707 123.763 94.5451 123.776 103.294C123.788 112.043 125.67 132.294 125.67 132.294C125.67 132.294 117.879 121.357 113.071 124.266C112.253 124.761 111.965 125.773 111.109 126.284C110.681 126.539 109.694 126.291 109.262 126.547C102.636 130.47 95.7262 134.302 95.0806 133.63C93.8129 132.311 92.2751 125.569 92.2751 125.569L81.7678 87.0662C80.6144 82.9643 81.3602 78.563 83.801 75.0669C84.5351 74.0361 85.3042 73.2693 86.0189 73.1425C87.6238 72.8017 86.7701 69.2145 87.9297 68.0568Z" fill="#3333FF"/>
<path d="M185.575 241.451L190.42 238.092L179.444 217.438L172.292 222.397L185.575 241.451Z" fill="#A0616A"/>
<path d="M186.307 227.593L178.714 234.363C166.639 220.944 157.511 202.125 149.775 180.754C129.507 174.834 114.222 165.286 100.879 153.949C96.3519 150.129 92.9585 145.222 96.8192 140.568C96.9997 140.351 97.1881 140.14 97.3846 139.937C101.943 135.265 113.503 136.155 120.273 131.875L135.397 147.998L134.446 152.32L162.854 161.918C168.573 163.916 171.584 170.16 169.58 175.864C169.57 175.892 169.56 175.92 169.55 175.948C169.444 176.255 169.324 176.557 169.192 176.855L186.307 227.593Z" fill="#2F2E41"/>
<path d="M182.75 240.089L190.506 233.998L192.916 237.455L204.303 237.421C205.76 237.416 206.944 238.59 206.949 240.043C206.952 240.907 206.528 241.718 205.817 242.211L196.183 248.89L192.138 246.621L193.874 250.491L190.241 253.009L182.75 240.089Z" fill="#2F2E41"/>
<path d="M104.88 165.09C101.915 163.835 100.532 160.421 101.79 157.464C101.925 157.149 102.086 156.846 102.274 156.559L76.2876 117.448L87.0259 116.634L110.727 155.046C113.316 156.986 113.839 160.651 111.894 163.234C110.267 165.395 107.367 166.162 104.88 165.09Z" fill="#A0616A"/>
<path d="M89.9388 78.5262C89.9388 78.5262 83.8616 74.2156 78.2453 80.6284C72.6289 87.0413 73.0979 113.572 73.0451 117.851C73.0286 119.191 74.9684 122.082 77.641 125.421C78.8408 126.92 80.1883 128.51 81.5728 130.09C82.374 131.004 81.6837 132.907 82.4882 133.796C83.2883 134.68 85.5833 134.549 86.3443 135.37C89.9566 139.263 92.8911 142.227 92.8911 142.227L104.651 142.372C104.783 133.653 98.7968 125.871 91.1059 118.349L89.9388 78.5262Z" fill="#3333FF"/>
<path d="M78.0854 40.5663C76.972 41.3677 75.8008 42.1934 74.4422 42.392C73.0837 42.5905 71.4933 41.9356 71.1173 40.6185C70.6576 39.0082 72.1156 37.5419 73.4261 36.4954L77.5815 33.1768C78.3425 32.5037 79.2015 31.9498 80.1293 31.5339C81.0732 31.1197 82.1547 31.1557 83.0688 31.6319C83.9769 32.2435 84.5021 33.281 84.4562 34.3729C84.3969 35.4492 84.0408 36.4882 83.427 37.3754C81.8683 39.7985 79.3852 41.4819 76.5526 42.0359" fill="#2F2E41"/>
<path d="M109.602 126.785H79.4755C77.257 126.785 75.4586 128.579 75.4586 130.791C75.4586 133.004 77.257 134.797 79.4755 134.797H90.522V165.845H98.5557V134.797H109.602C111.821 134.797 113.619 133.004 113.619 130.791C113.619 128.579 111.821 126.785 109.602 126.785Z" fill="#3F3D56"/>
<path d="M79.9312 32.1612C80.0524 29.1575 76.843 26.7791 73.8357 26.9671C70.8283 27.1551 68.2431 29.2649 66.5376 31.7434C64.8326 34.2197 63.8084 37.0881 62.4652 39.7768C61.122 42.4656 59.3333 45.0982 56.6642 46.4915C53.9956 47.8828 50.2809 47.6346 48.4364 45.2592C47.2732 47.0184 47.0202 49.2252 47.7553 51.2009C48.5104 53.1511 49.9186 54.7808 51.7411 55.8135C52.4666 56.2426 53.2414 56.5824 54.0488 56.8255C54.3817 55.9293 54.8501 55.0892 55.4378 54.3343C55.1724 55.228 55.071 56.1622 55.1387 57.0919C56.3832 57.3298 57.6634 57.3097 58.8997 57.0328C61.3613 56.4836 63.4194 54.8096 64.4539 52.5152C65.5819 49.8522 65.0074 46.816 65.2486 43.9354C65.4877 41.0543 67.2286 37.7652 70.1271 37.7183C72.3346 37.6821 72.0424 37.8636 73.441 39.567" fill="#2F2E41"/>
<path d="M99.9759 47.9447C99.9759 55.1355 94.1311 60.9647 86.921 60.9647C79.711 60.9647 72.8619 52.6316 72.8619 45.4409C72.8619 38.2501 79.711 34.9247 86.921 34.9247C94.1311 34.9247 99.9759 40.7539 99.9759 47.9447Z" fill="#2F2E41"/>
<path d="M93.3543 63.5477C100.093 62.1724 104.438 55.6091 103.06 48.8881C101.681 42.167 95.0997 37.8334 88.3607 39.2087C81.6217 40.5839 77.2765 47.1473 78.6554 53.8683C80.0343 60.5893 86.6152 64.9229 93.3543 63.5477Z" fill="#A0616A"/>
<path d="M106.503 49.447C102.816 50.451 99.0938 51.5035 97.6562 49.447C97.3768 48.0834 96.8474 46.783 96.0946 45.6111C95.953 46.9235 95.6443 48.2125 95.1758 49.447C90.5177 50.4568 86.1641 50.6982 82.4021 49.447C81.8848 50.3801 81.5845 51.4172 81.5234 52.4817C81.3374 52.3651 81.1426 52.263 80.9409 52.1762C80.699 52.0398 80.4098 52.0142 80.1476 52.1061C79.9663 52.2153 79.8458 52.402 79.8212 52.6119C79.7963 52.8208 79.8064 53.0323 79.8514 53.2378C79.9041 53.9541 80.1186 54.6492 80.479 55.271C80.7672 55.704 81.2245 55.9965 81.7393 56.0772C82.2615 59.0067 86.419 62.9678 86.419 62.9678C73.8662 63.4686 73.8662 54.9755 73.8662 46.9432L75.3725 43.9385H80.3937V37.4285H94.4528C101.107 37.4303 106.502 42.8101 106.503 49.447Z" fill="#2F2E41"/>
<path d="M220.902 253.846L0.600975 254C0.270792 254.002 0.00173055 253.736 8.30773e-06 253.407C-0.00171393 253.078 0.264556 252.809 0.594739 252.807H0.600975L220.902 252.654C221.232 252.655 221.499 252.922 221.498 253.252C221.497 253.58 221.231 253.845 220.902 253.846Z" fill="#CACACA"/>
<path d="M368.021 253.846L254.167 254C253.837 254.002 253.568 253.736 253.566 253.407C253.564 253.078 253.831 252.809 254.161 252.807H254.167L368.021 252.654C368.351 252.653 368.619 252.919 368.621 253.248C368.622 253.577 368.355 253.845 368.025 253.846H368.021Z" fill="#CACACA"/>
<path d="M225.937 74.114H182.779C179.031 74.1098 175.993 71.0803 175.989 67.3418V38.8214C175.993 35.083 179.031 32.0534 182.779 32.0493H225.937C229.685 32.0534 232.723 35.083 232.727 38.8214V67.3418C232.723 71.0803 229.685 74.1098 225.937 74.114ZM182.779 33.0508C179.585 33.0544 176.997 35.6359 176.993 38.8214V67.3418C176.997 70.5274 179.585 73.1088 182.779 73.1124H225.937C229.131 73.1088 231.719 70.5274 231.723 67.3418V38.8214C231.719 35.6359 229.131 33.0545 225.937 33.0508L182.779 33.0508Z" fill="#E6E6E6"/>
<path d="M195.567 41.0632H184.023V42.0647H195.567V41.0632Z" fill="#E6E6E6"/>
<path d="M209.63 45.0693H184.023V46.0708H209.63V45.0693Z" fill="#E6E6E6"/>
<path d="M209.63 48.5747H184.023V49.5762H209.63V48.5747Z" fill="#E6E6E6"/>
<path d="M216.66 52.0801H184.023V53.0816H216.66V52.0801Z" fill="#E6E6E6"/>
<path d="M201.094 55.5855H184.023V56.587H201.094V55.5855Z" fill="#E6E6E6"/>
<path d="M215.153 59.0909H184.023V60.0924H215.153V59.0909Z" fill="#E6E6E6"/>
<path d="M189.546 62.5963H184.023V63.5978H189.546V62.5963Z" fill="#E6E6E6"/>
<path d="M183.647 19.5092C183.598 19.5092 183.549 19.4903 183.512 19.4528L182.441 18.3606C182.37 18.2878 182.37 18.1715 182.441 18.0987L183.512 17.0065C183.585 16.9327 183.704 16.9315 183.778 17.0036C183.852 17.0759 183.853 17.1945 183.781 17.2684L182.838 18.2297L183.781 19.191C183.853 19.2649 183.852 19.3834 183.778 19.4558C183.741 19.4914 183.694 19.5092 183.647 19.5092Z" fill="#CCCCCC"/>
<path d="M185.447 19.5092C185.399 19.5092 185.352 19.4915 185.316 19.4558C185.241 19.3835 185.24 19.265 185.313 19.191L186.255 18.2297L185.313 17.2684C185.24 17.1946 185.241 17.076 185.316 17.0036C185.39 16.9312 185.509 16.9326 185.581 17.0066L186.652 18.0987C186.724 18.1715 186.724 18.2878 186.652 18.3606L185.581 19.4529C185.544 19.4903 185.496 19.5092 185.447 19.5092Z" fill="#CCCCCC"/>
<path d="M241.494 16.7983H239.502C239.275 16.7983 239.091 16.9818 239.091 17.2084V19.197C239.091 19.4236 239.275 19.6071 239.502 19.6071H241.494C241.721 19.6071 241.907 19.4236 241.907 19.197V17.2084C241.907 16.9818 241.721 16.7983 241.494 16.7983Z" fill="#CCCCCC"/>
<path d="M236.612 16.7983H234.62C234.393 16.7983 234.209 16.9818 234.209 17.2084V19.197C234.209 19.4236 234.393 19.6071 234.62 19.6071H236.612C236.84 19.6071 237.026 19.4236 237.026 19.197V17.2084C237.026 16.9818 236.84 16.7983 236.612 16.7983Z" fill="#CCCCCC"/>
<path d="M246.094 16.8919H244.102C243.875 16.8919 243.691 17.0754 243.691 17.302V19.2906C243.691 19.5172 243.875 19.7007 244.102 19.7007H246.094C246.321 19.7007 246.507 19.5172 246.507 19.2906V17.302C246.507 17.0754 246.321 16.8919 246.094 16.8919Z" fill="#CCCCCC"/>
<path d="M216.068 17.6484H200.144C199.866 17.6484 199.643 17.8731 199.643 18.1484C199.643 18.4237 199.866 18.6484 200.144 18.6484H216.068C216.344 18.6484 216.569 18.4236 216.569 18.1484C216.569 17.8731 216.344 17.6484 216.068 17.6484Z" fill="#CCCCCC"/>
</g>
<defs>
<clipPath id="clip0_1_41">
<rect width="403" height="254" fill="white"/>
</clipPath>
</defs>
</svg>
