<svg width="315" height="270" viewBox="0 0 315 270" fill="none" xmlns="http://www.w3.org/2000/svg">
<g clip-path="url(#clip0_6_767)">
<path d="M291.187 206.558L305.318 208.582C310.102 203.274 313.399 196.977 314.924 190.236C304.591 197.988 288.877 193.868 276.348 198.1C272.451 199.448 268.935 201.581 266.061 204.343C263.186 207.105 261.026 210.425 259.742 214.055L252.836 220.865C259.087 223.133 265.801 224.132 272.514 223.793C279.227 223.454 285.781 221.786 291.722 218.903C295.038 217.255 298.115 215.231 300.879 212.879C295.934 210.025 291.187 206.558 291.187 206.558Z" fill="#F2F2F2"/>
<path d="M286.171 185.846L299.803 181.882C301.502 175.176 301.389 168.192 299.473 161.536C293.997 172.697 277.928 175.432 268.773 184.341C265.941 187.14 263.833 190.486 262.604 194.133C261.375 197.78 261.057 201.634 261.674 205.409L258.807 214.326C265.506 213.801 272.001 211.951 277.845 208.904C283.689 205.857 288.742 201.685 292.657 196.676C294.823 193.846 296.592 190.777 297.921 187.542C292.107 187.009 286.171 185.846 286.171 185.846Z" fill="#F2F2F2"/>
<path d="M315 224.99C315 225.056 314.986 225.123 314.958 225.184C314.93 225.246 314.89 225.302 314.838 225.35C314.786 225.397 314.725 225.434 314.658 225.46C314.59 225.485 314.518 225.498 314.445 225.498H0.554784C0.407646 225.498 0.266533 225.444 0.162491 225.349C0.0584494 225.254 0 225.124 0 224.99C0 224.855 0.0584494 224.725 0.162491 224.63C0.266533 224.535 0.407646 224.481 0.554784 224.481H314.445C314.518 224.481 314.59 224.494 314.658 224.52C314.725 224.545 314.786 224.582 314.838 224.63C314.89 224.677 314.93 224.733 314.958 224.795C314.986 224.857 315 224.923 315 224.99Z" fill="#CCCCCC"/>
<path d="M130.07 203.314C185.427 203.314 230.304 162.188 230.304 111.455C230.304 60.7229 185.427 19.5962 130.07 19.5962C74.7122 19.5962 29.836 60.7229 29.836 111.455C29.836 162.188 74.7122 203.314 130.07 203.314Z" fill="#E6E6E6"/>
<path d="M216.318 111.455C216.328 123.789 213.184 135.953 207.139 146.972C201.093 157.991 192.314 167.558 181.506 174.906C180.784 175.402 180.047 175.885 179.306 176.355C164.852 185.562 147.672 190.497 130.07 190.497C112.468 190.497 95.2872 185.562 80.834 176.355C80.0928 175.885 79.3562 175.402 78.6336 174.906C67.8328 167.551 59.0594 157.983 53.0148 146.965C46.9703 135.948 43.8221 123.787 43.8221 111.455C43.8221 99.1235 46.9703 86.9628 53.0148 75.9453C59.0594 64.9278 67.8328 55.3591 78.6336 48.0042C79.3562 47.5086 80.0928 47.0258 80.834 46.5558C95.2872 37.3486 112.468 32.4138 130.07 32.4138C147.672 32.4138 164.852 37.3486 179.306 46.5558C180.047 47.0258 180.784 47.5086 181.506 48.0042C192.314 55.3527 201.093 64.92 207.139 75.939C213.184 86.9579 216.328 99.1219 216.318 111.455Z" fill="white"/>
<path d="M130.07 183.661C173.584 183.661 208.858 151.333 208.858 111.455C208.858 71.5772 173.584 39.2498 130.07 39.2498C86.5562 39.2498 51.2814 71.5772 51.2814 111.455C51.2814 151.333 86.5562 183.661 130.07 183.661Z" fill="#3333FF"/>
<path opacity="0.2" d="M130.275 39.4517C129.081 39.4517 127.894 39.4803 126.713 39.5285C146.626 41.1321 165.13 49.6129 178.475 63.2526C191.82 76.8923 199.008 94.671 198.584 112.987C198.16 131.302 190.155 148.785 176.19 161.894C162.225 175.002 143.346 182.756 123.376 183.584C125.65 183.765 127.95 183.863 130.275 183.863C151.171 183.863 171.212 176.255 185.987 162.714C200.763 149.173 209.064 130.807 209.064 111.657C209.064 92.507 200.763 74.1413 185.987 60.6002C171.212 47.059 151.171 39.4517 130.275 39.4517Z" fill="black"/>
<path d="M130.303 34.1228C129.623 34.1239 128.972 34.3718 128.491 34.8123C128.011 35.2527 127.74 35.8498 127.739 36.4727V46.7267C127.739 47.3499 128.009 47.9476 128.49 48.3883C128.971 48.829 129.623 49.0766 130.303 49.0766C130.983 49.0766 131.635 48.829 132.116 48.3883C132.597 47.9476 132.867 47.3499 132.867 46.7267V36.4727C132.866 35.8498 132.595 35.2527 132.115 34.8123C131.634 34.3718 130.983 34.1239 130.303 34.1228Z" fill="white"/>
<path d="M181.506 48.0041C180.784 47.5085 180.047 47.0257 179.306 46.5558C178.861 46.5292 178.416 46.6094 178.016 46.7885C177.615 46.9676 177.272 47.2393 177.021 47.5769L170.723 56.0493C170.34 56.5643 170.196 57.1975 170.323 57.8097C170.45 58.4218 170.837 58.9628 171.399 59.3135C171.961 59.6642 172.652 59.7959 173.32 59.6797C173.988 59.5636 174.578 59.209 174.961 58.694L181.259 50.2216C181.499 49.9001 181.647 49.5289 181.69 49.1416C181.733 48.7543 181.67 48.3633 181.506 48.0041Z" fill="white"/>
<path d="M210.122 86.6361C209.995 86.3505 209.808 86.0905 209.572 85.871C209.336 85.6515 209.054 85.4769 208.744 85.3571C208.434 85.2373 208.102 85.1746 207.765 85.1727C207.429 85.1707 207.095 85.2296 206.784 85.3458L196.415 89.2039C195.786 89.4388 195.284 89.8932 195.02 90.467C194.756 91.0409 194.751 91.6873 195.007 92.2643C195.263 92.8413 195.758 93.3016 196.384 93.5441C197.01 93.7866 197.716 93.7915 198.345 93.5576L208.714 89.6995C209.343 89.4634 209.844 89.0084 210.108 88.4343C210.372 87.8601 210.377 87.2136 210.122 86.6361Z" fill="white"/>
<path d="M89.4168 56.0493L83.1184 47.5769C82.8675 47.2393 82.5247 46.9676 82.1241 46.7885C81.7235 46.6094 81.2788 46.5292 80.834 46.5558C80.0928 47.0257 79.3562 47.5085 78.6336 48.0041C78.4698 48.3633 78.4065 48.7543 78.4497 49.1416C78.4929 49.5289 78.641 49.9001 78.8807 50.2216L85.1791 58.694C85.5617 59.209 86.152 59.5636 86.82 59.6798C87.4879 59.7959 88.1789 59.6642 88.7409 59.3135C89.3028 58.9628 89.6897 58.4218 89.8165 57.8097C89.9433 57.1975 89.7995 56.5643 89.4168 56.0493Z" fill="white"/>
<path d="M63.7244 89.2041L53.356 85.346C52.726 85.1116 52.0203 85.116 51.394 85.3584C50.7676 85.6008 50.272 86.0613 50.0161 86.6386C49.7602 87.2158 49.7649 87.8626 50.0293 88.4367C50.2937 89.0107 50.796 89.465 51.4259 89.6996L61.7943 93.5577C62.4241 93.7916 63.1295 93.7868 63.7554 93.5443C64.3814 93.3018 64.8766 92.8415 65.1324 92.2645C65.3882 91.6875 65.3836 91.041 65.1196 90.4672C64.8555 89.8933 64.3537 89.439 63.7244 89.2041Z" fill="white"/>
<path d="M130.303 173.834C129.623 173.835 128.972 174.083 128.491 174.523C128.011 174.964 127.74 175.561 127.739 176.184V186.438C127.739 187.061 128.009 187.659 128.49 188.1C128.971 188.54 129.623 188.788 130.303 188.788C130.983 188.788 131.635 188.54 132.116 188.1C132.597 187.659 132.867 187.061 132.867 186.438V176.184C132.866 175.561 132.595 174.964 132.115 174.523C131.634 174.083 130.983 173.835 130.303 173.834Z" fill="white"/>
<path d="M181.259 172.689L174.961 164.216C174.771 163.961 174.529 163.743 174.247 163.574C173.966 163.405 173.65 163.288 173.32 163.231C172.989 163.173 172.649 163.176 172.319 163.239C171.99 163.302 171.677 163.423 171.399 163.597C171.121 163.771 170.882 163.993 170.698 164.251C170.513 164.509 170.386 164.798 170.323 165.101C170.26 165.404 170.263 165.715 170.332 166.017C170.4 166.319 170.533 166.606 170.723 166.861L177.021 175.334C177.272 175.671 177.615 175.943 178.016 176.122C178.416 176.301 178.861 176.381 179.306 176.355C180.047 175.885 180.783 175.402 181.506 174.906C181.67 174.547 181.733 174.156 181.69 173.769C181.647 173.382 181.499 173.01 181.259 172.689Z" fill="white"/>
<path d="M208.714 133.211L198.345 129.353C197.715 129.118 197.01 129.123 196.383 129.365C195.757 129.608 195.261 130.068 195.006 130.645C194.75 131.223 194.754 131.869 195.019 132.443C195.283 133.018 195.785 133.472 196.415 133.706L206.784 137.565C207.414 137.798 208.119 137.794 208.745 137.551C209.371 137.309 209.866 136.848 210.122 136.271C210.378 135.694 210.373 135.048 210.109 134.474C209.845 133.9 209.343 133.446 208.714 133.211Z" fill="white"/>
<path d="M88.7408 163.597C88.1788 163.246 87.4879 163.115 86.82 163.231C86.1521 163.347 85.5619 163.702 85.1791 164.216L78.8807 172.689C78.641 173.01 78.4929 173.382 78.4497 173.769C78.4065 174.156 78.4698 174.547 78.6336 174.906C79.3562 175.402 80.0928 175.885 80.834 176.355C81.2788 176.381 81.7235 176.301 82.1241 176.122C82.5247 175.943 82.8675 175.671 83.1184 175.334L89.4169 166.861C89.6064 166.606 89.7392 166.319 89.8078 166.017C89.8764 165.715 89.8794 165.404 89.8166 165.101C89.7538 164.798 89.6265 164.509 89.4419 164.251C89.2574 163.993 89.0191 163.771 88.7408 163.597Z" fill="white"/>
<path d="M65.1323 130.643C65.0056 130.358 64.8188 130.098 64.5825 129.878C64.3462 129.659 64.065 129.484 63.755 129.364C63.445 129.244 63.1123 129.182 62.7758 129.18C62.4394 129.178 62.1059 129.237 61.7943 129.353L51.4259 133.211C50.7965 133.446 50.2947 133.9 50.0306 134.474C49.7666 135.048 49.762 135.694 50.0178 136.271C50.2736 136.848 50.7689 137.309 51.3948 137.551C52.0207 137.794 52.7261 137.799 53.356 137.565L63.7243 133.707C64.3534 133.47 64.8548 133.016 65.1186 132.441C65.3825 131.867 65.3874 131.221 65.1323 130.643Z" fill="white"/>
<path d="M133.63 110.289C133.867 111.574 133.538 112.892 132.715 113.954C131.893 115.017 130.644 115.737 129.243 115.957L83.7428 123.05C83.0487 123.158 82.3382 123.14 81.6517 122.997C80.9653 122.853 80.3164 122.587 79.7421 122.214C79.1678 121.841 78.6794 121.367 78.3047 120.821C77.93 120.275 77.6764 119.666 77.5583 119.03C77.4403 118.394 77.4601 117.743 77.6166 117.114C77.7732 116.485 78.0634 115.89 78.4707 115.364C78.878 114.837 79.3944 114.39 79.9905 114.046C80.5866 113.703 81.2506 113.471 81.9447 113.362L127.445 106.269C128.847 106.052 130.285 106.354 131.445 107.107C132.604 107.861 133.39 109.005 133.63 110.289Z" fill="#3F3D56"/>
<path d="M181.518 156.488C180.864 157.091 179.977 157.431 179.05 157.434C178.123 157.438 177.232 157.104 176.573 156.506L127.593 111.97C126.935 111.371 126.564 110.558 126.561 109.708C126.558 108.859 126.923 108.043 127.575 107.44C128.228 106.837 129.115 106.497 130.042 106.493C130.969 106.489 131.859 106.823 132.518 107.42L181.499 151.957C182.156 152.556 182.527 153.369 182.531 154.219C182.535 155.068 182.17 155.885 181.518 156.488Z" fill="#3F3D56"/>
<path d="M130.07 117.009C133.417 117.009 136.13 114.523 136.13 111.455C136.13 108.388 133.417 105.901 130.07 105.901C126.723 105.901 124.009 108.388 124.009 111.455C124.009 114.523 126.723 117.009 130.07 117.009Z" fill="#CCCCCC"/>
<path d="M88.3241 15.1437C79.0211 28.5476 64.8268 37.4431 47.3216 43.2869C46.9757 43.5243 46.5821 43.697 46.1634 43.795C45.7447 43.8931 45.309 43.9146 44.8812 43.8583C44.4534 43.802 44.0419 43.6691 43.6702 43.4671C43.2985 43.265 42.9738 42.9979 42.7148 42.6809C33.2061 31.0458 35.3532 14.4169 47.9026 5.52633C50.9366 3.38063 54.4055 1.80863 58.1078 0.901583C61.8102 -0.00546139 65.6723 -0.229481 69.4699 0.242537C73.2675 0.714555 76.9249 1.8732 80.2299 3.65122C83.5349 5.42923 86.4216 7.79119 88.7224 10.6L88.9854 10.9218C89.2445 11.2388 89.4329 11.5995 89.5398 11.9832C89.6468 12.3669 89.6703 12.7662 89.6089 13.1582C89.5475 13.5503 89.4024 13.9274 89.182 14.2681C88.9615 14.6087 88.67 14.9063 88.3241 15.1437Z" fill="#E6E6E6"/>
<path d="M171.417 10.6C173.718 7.79119 176.605 5.42923 179.91 3.65121C183.215 1.8732 186.872 0.714556 190.67 0.242539C194.467 -0.229479 198.329 -0.00546608 202.032 0.901578C205.734 1.80862 209.203 3.38063 212.237 5.52633C224.786 14.4169 226.934 31.0458 217.425 42.6809C217.166 42.9979 216.841 43.265 216.469 43.467C216.098 43.6691 215.686 43.802 215.258 43.8583C214.831 43.9146 214.395 43.8931 213.976 43.795C213.558 43.697 213.164 43.5243 212.818 43.2869C196.567 37.5851 183.241 27.7181 171.816 15.1437C171.117 14.6642 170.655 13.95 170.531 13.1582C170.407 12.3665 170.631 11.562 171.154 10.9218L171.417 10.6Z" fill="#E6E6E6"/>
<path d="M167.34 191.038C166.747 191.344 166.311 191.852 166.126 192.451C165.941 193.05 166.023 193.693 166.354 194.237L181.152 218.471C181.485 219.015 182.039 219.416 182.693 219.585C183.348 219.754 184.049 219.678 184.642 219.374C185.235 219.07 185.672 218.562 185.857 217.962C186.042 217.363 185.96 216.72 185.628 216.176L170.829 191.942C170.496 191.399 169.942 190.999 169.288 190.829C168.634 190.66 167.933 190.735 167.34 191.038Z" fill="#E6E6E6"/>
<path d="M89.3102 191.942L74.512 216.176C74.1801 216.72 74.0975 217.363 74.2824 217.962C74.4672 218.562 74.9044 219.07 75.4978 219.374C76.0911 219.678 76.7921 219.754 77.4465 219.585C78.1008 219.416 78.655 219.015 78.9872 218.471L93.7854 194.237C93.9499 193.967 94.055 193.671 94.0945 193.364C94.134 193.058 94.1073 192.747 94.0158 192.45C93.9243 192.153 93.7699 191.876 93.5613 191.633C93.3528 191.391 93.0942 191.189 92.8003 191.038C92.5064 190.887 92.183 190.791 91.8485 190.755C91.514 190.719 91.1751 190.743 90.851 190.827C90.5269 190.911 90.224 191.053 89.9597 191.244C89.6953 191.435 89.4746 191.672 89.3102 191.942Z" fill="#E6E6E6"/>
<path d="M184.149 224.677C188.527 224.677 192.075 221.425 192.075 217.413C192.075 213.402 188.527 210.15 184.149 210.15C179.772 210.15 176.224 213.402 176.224 217.413C176.224 221.425 179.772 224.677 184.149 224.677Z" fill="#E6E6E6"/>
<path d="M189.744 38.8224C194.121 38.8224 197.669 35.5706 197.669 31.5592C197.669 27.5478 194.121 24.2959 189.744 24.2959C185.367 24.2959 181.818 27.5478 181.818 31.5592C181.818 35.5706 185.367 38.8224 189.744 38.8224Z" fill="#E6E6E6"/>
<path d="M129.604 21.7326C133.981 21.7326 137.529 18.4807 137.529 14.4693C137.529 10.4579 133.981 7.20605 129.604 7.20605C125.227 7.20605 121.678 10.4579 121.678 14.4693C121.678 18.4807 125.227 21.7326 129.604 21.7326Z" fill="#E6E6E6"/>
<path d="M72.2605 37.9679C76.6377 37.9679 80.186 34.7161 80.186 30.7047C80.186 26.6933 76.6377 23.4414 72.2605 23.4414C67.8834 23.4414 64.3351 26.6933 64.3351 30.7047C64.3351 34.7161 67.8834 37.9679 72.2605 37.9679Z" fill="#E6E6E6"/>
<path d="M77.3888 224.677C81.7659 224.677 85.3142 221.425 85.3142 217.413C85.3142 213.402 81.7659 210.15 77.3888 210.15C73.0117 210.15 69.4633 213.402 69.4633 217.413C69.4633 221.425 73.0117 224.677 77.3888 224.677Z" fill="#E6E6E6"/>
<path d="M177.933 152.403C178.245 152.852 178.661 153.232 179.151 153.517C179.641 153.802 180.193 153.985 180.769 154.053C181.345 154.122 181.93 154.073 182.483 153.912C183.036 153.751 183.544 153.48 183.97 153.12L196.407 159.227L195.74 152.535L184.032 147.762C183.324 147.145 182.393 146.788 181.416 146.758C180.439 146.728 179.485 147.028 178.733 147.6C177.981 148.172 177.484 148.977 177.337 149.862C177.189 150.748 177.401 151.652 177.933 152.403Z" fill="#FFB7B7"/>
<path d="M186.994 154.739L191.867 148.573L215.345 158.745L244.561 153.721C246.005 153.473 247.491 153.519 248.914 153.856C250.336 154.193 251.66 154.814 252.792 155.672C253.923 156.531 254.835 157.608 255.461 158.826C256.088 160.044 256.414 161.374 256.417 162.72C256.419 165.152 255.368 167.486 253.495 169.209C251.622 170.932 249.079 171.903 246.425 171.91L212.944 171.967L186.994 154.739Z" fill="#3F3D56"/>
<path d="M179.488 261.221L174.557 259.06L181.33 240.172L188.607 243.362L179.488 261.221Z" fill="#FFB7B7"/>
<path d="M212.545 258.176C212.186 258.382 211.828 258.584 211.465 258.787C210.745 259.192 210.017 259.59 209.289 259.982C208.923 260.178 208.553 260.373 208.188 260.566V260.576L208.166 260.579L208.159 260.582L207.601 260.709L206.8 258.77L206.431 257.877L205.91 256.613L204.953 254.299L199.919 242.118L207.746 240.349L208.039 241.447H208.043L208.188 241.992L210.922 252.155L211.48 254.233L211.498 254.296L211.835 255.537L212.125 256.613L212.447 257.814L212.545 258.176Z" fill="#FFB7B7"/>
<path d="M259.234 215.397C258.738 216.128 258.231 216.854 257.72 217.575C256.771 218.916 255.797 220.237 254.798 221.538C254.798 221.541 254.794 221.541 254.79 221.544C254.207 222.04 253.563 222.471 252.871 222.829C252.842 222.849 252.809 222.862 252.78 222.879C252.27 223.137 251.728 223.337 251.165 223.473C250.962 223.519 250.756 223.566 250.553 223.612C249.821 223.772 249.097 223.908 248.376 224.027C247.094 224.236 245.826 224.386 244.566 224.479C244.465 224.489 244.363 224.495 244.262 224.502C239.079 224.85 234.034 224.289 228.768 223.37C226.167 222.919 223.512 222.378 220.763 221.817C219.865 221.631 218.963 221.448 218.051 221.266C217.982 221.252 217.909 221.236 217.837 221.223C216.533 220.96 215.208 220.701 213.849 220.446C212.14 220.124 210.376 219.812 208.543 219.516L208.674 221.883C208.782 223.704 209.195 225.498 209.898 227.204C210.68 229.301 211.3 230.961 209.992 234.416L209.362 236.089C209.689 236.92 209.801 237.809 209.689 238.686C209.578 239.563 209.247 240.404 208.721 241.144L208.594 241.32L213.849 253.505L214.19 254.295H211.499L208.188 254.298H202.578L194.484 239.415L194.096 238.705V238.668L194.933 210.067C194.943 209.814 194.965 209.559 195.001 209.307C195.149 208.16 195.544 207.051 196.164 206.046C196.784 205.041 197.616 204.159 198.612 203.452C199.567 202.768 200.66 202.265 201.828 201.972C202.996 201.679 204.217 201.602 205.418 201.745L208.188 202.074L213.849 202.745L217.837 203.219L217.917 203.229L229.677 204.623L230.521 201.47L230.676 201.417L235.627 199.754L252.751 194.002L252.795 193.988L253.921 193.61L254.055 193.809C254.095 193.869 254.135 193.929 254.171 193.988C255.284 195.818 256.191 197.746 256.876 199.744C258.029 203.008 258.979 206.329 259.72 209.692C259.752 209.838 259.781 209.97 259.807 210.09L259.817 210.126C259.828 210.183 259.835 210.219 259.839 210.229C260.234 211.736 259.959 213.575 259.234 215.397Z" fill="#2F2E41"/>
<path d="M259.957 204.857C259.903 204.645 259.834 204.429 259.761 204.22C259.186 202.636 258.517 201.082 257.755 199.566C256.9 197.84 255.875 195.991 254.655 193.99C254.064 193.021 253.429 192.013 252.75 190.966C252.409 190.442 252.055 189.907 251.688 189.363C251.674 189.338 251.658 189.314 251.641 189.29L251.536 189.131L234.593 191.208L228.284 191.982L227.908 194.863L227.817 195.577C227.813 195.577 227.813 195.577 227.817 195.58L227.564 197.525V197.528L227.227 200.097L227.198 200.094L217.835 198.982L208.187 197.837L203.004 197.223C201.803 197.079 200.583 197.156 199.414 197.449C198.246 197.742 197.153 198.245 196.199 198.929C195.203 199.636 194.371 200.519 193.751 201.524C193.131 202.529 192.736 203.637 192.588 204.784C192.555 205.016 192.533 205.255 192.523 205.491L187.633 216.109C184.707 222.459 182.844 229.178 182.106 236.038L178.521 246.543L179.031 246.586L186.63 247.233L188.636 247.406L193.055 241.494C193.558 240.821 194.036 240.127 194.482 239.417C195.215 238.256 195.867 237.055 196.434 235.818L205.992 214.974C206.731 215.09 207.462 215.201 208.187 215.306C211.537 215.804 214.753 216.21 217.835 216.524C227.857 217.55 236.535 217.629 244.26 216.76C246.43 216.517 248.527 216.199 250.551 215.804C251.294 215.661 252.027 215.507 252.75 215.342C252.92 215.306 253.086 215.269 253.253 215.229C254.75 214.876 256.126 214.184 257.255 213.216C258.385 212.249 259.232 211.038 259.718 209.693C260.299 208.135 260.382 206.457 259.957 204.857Z" fill="#2F2E41"/>
<path d="M181.063 258.137L175.728 255.793L174.891 255.425L173.555 258.432L164.225 260.314C163.764 260.407 163.347 260.632 163.036 260.957C162.724 261.283 162.534 261.691 162.494 262.122C162.453 262.553 162.564 262.985 162.811 263.354C163.057 263.723 163.426 264.011 163.863 264.174L172.979 267.583L175.873 265.197L175.163 268.4L178.597 269.684L182.36 258.707L181.063 258.137Z" fill="#2F2E41"/>
<path d="M213.849 253.505L214.19 254.295H213.849V253.505Z" fill="#2F2E41"/>
<path d="M211.991 254.464L206.401 256.239L205.524 256.517L206.883 259.515L201.699 266.869C201.442 267.232 201.319 267.661 201.347 268.093C201.375 268.525 201.554 268.937 201.856 269.27C202.158 269.602 202.569 269.838 203.027 269.941C203.486 270.045 203.969 270.011 204.405 269.845L213.5 266.389L213.724 262.827L215.679 265.561L219.105 264.26L213.351 254.033L211.991 254.464Z" fill="#2F2E41"/>
<path d="M258.563 209.666C258.231 209.665 257.904 209.591 257.61 209.449L228.112 195.323L227.771 194.044L227.129 189.998L227.137 189.96L229.943 178.106C229.891 178.005 229.784 177.838 229.663 177.649C228.41 175.704 224.599 169.785 231.873 161.636L244.645 147.989L255.607 147.557L255.731 147.701C258.662 151.073 260.639 155.056 261.486 159.296C262.333 163.537 262.023 167.903 260.585 172.007L259.443 190.899L260.667 194.714C261.383 196.956 261.265 199.353 260.331 201.526L260.612 207.704C260.623 207.957 260.578 208.21 260.48 208.447C260.382 208.684 260.233 208.9 260.042 209.083C259.85 209.267 259.621 209.412 259.367 209.512C259.113 209.613 258.839 209.665 258.563 209.666Z" fill="#3F3D56"/>
<path d="M232.975 225.246C233.475 224.975 233.904 224.608 234.231 224.169C234.559 223.73 234.778 223.23 234.873 222.706C234.967 222.181 234.935 221.643 234.778 221.131C234.622 220.619 234.345 220.144 233.966 219.741L241.058 208.563L233.738 208.941L228.126 219.498C227.428 220.126 227.006 220.966 226.94 221.859C226.873 222.753 227.167 223.637 227.764 224.346C228.362 225.054 229.223 225.537 230.183 225.703C231.143 225.869 232.137 225.706 232.975 225.246Z" fill="#FFB7B7"/>
<path d="M235.837 217.028L229.283 212.35L241.192 191.2L236.729 164.267C236.509 162.936 236.611 161.576 237.028 160.285C237.445 158.994 238.168 157.803 239.144 156.797C240.12 155.79 241.326 154.993 242.676 154.461C244.026 153.93 245.487 153.677 246.955 153.722C249.608 153.805 252.116 154.848 253.93 156.624C255.743 158.399 256.715 160.761 256.63 163.192L255.528 193.859L235.837 217.028Z" fill="#3F3D56"/>
<path d="M237.614 142.319V132.378C237.611 128.846 239.14 125.457 241.864 122.957C244.588 120.457 248.284 119.052 252.139 119.049C255.994 119.047 259.692 120.448 262.42 122.945C265.147 125.441 266.681 128.828 266.683 132.361V132.378C269.245 137.271 267.642 139.596 266.683 142.319C266.682 142.793 266.477 143.248 266.111 143.583C265.745 143.918 265.249 144.107 264.732 144.108H239.566C239.049 144.107 238.552 143.918 238.186 143.583C237.82 143.248 237.614 142.793 237.614 142.319Z" fill="#2F2E41"/>
<path d="M247.383 143.462C253.392 143.462 258.263 138.998 258.263 133.491C258.263 127.984 253.392 123.52 247.383 123.52C241.374 123.52 236.503 127.984 236.503 133.491C236.503 138.998 241.374 143.462 247.383 143.462Z" fill="#FFB7B7"/>
<path d="M258.769 136.105C258.67 136.091 258.572 136.072 258.473 136.057C256.776 135.781 255.079 135.51 253.387 135.23L253.231 131.715L251.181 134.863C246.505 136.286 242.13 135.482 238.015 133.708C236.657 133.117 235.34 132.452 234.07 131.715C234.416 129.771 235.232 127.922 236.457 126.304C237.683 124.687 239.288 123.34 241.155 122.364C241.31 122.283 241.461 122.212 241.616 122.14L241.618 122.14L241.62 122.139L241.621 122.138L241.622 122.136C241.886 122.022 242.156 121.912 242.426 121.812C244.539 121.056 246.843 120.864 249.07 121.26C251.297 121.655 253.355 122.622 255.006 124.048C258.328 126.954 259.823 131.753 258.769 136.105Z" fill="#2F2E41"/>
</g>
<defs>
<clipPath id="clip0_6_767">
<rect width="315" height="270" fill="white"/>
</clipPath>
</defs>
</svg>
