<svg width="315" height="210" viewBox="0 0 315 210" fill="none" xmlns="http://www.w3.org/2000/svg">
<g clip-path="url(#clip0_1_457)">
<path d="M87.4446 123.287H25.3656V170.223H87.4446V123.287Z" fill="#3F3D56"/>
<path d="M112.81 186.543H0V106.967H112.81V186.543ZM0.667515 186.004H112.143V107.506H0.667515V186.004Z" fill="#3F3D56"/>
<path d="M267.481 76.8121C258.083 76.8121 248.895 74.5596 241.081 70.3395C233.266 66.1194 227.176 60.1212 223.579 53.1034C219.982 46.0856 219.041 38.3635 220.875 30.9134C222.708 23.4634 227.234 16.6201 233.88 11.2489C240.526 5.8777 248.993 2.21988 258.21 0.737977C267.428 -0.743928 276.983 0.0166432 285.666 2.92351C294.349 5.83037 301.77 10.753 306.992 17.0688C312.213 23.3847 315 30.8101 315 38.4061C314.986 48.5885 309.975 58.3505 301.066 65.5506C292.158 72.7506 280.079 76.8006 267.481 76.8121ZM267.481 0.568996C258.222 0.568996 249.171 2.7881 241.472 6.94569C233.773 11.1033 227.773 17.0126 224.229 23.9264C220.686 30.8403 219.759 38.448 221.565 45.7877C223.372 53.1274 227.831 59.8693 234.378 65.1609C240.925 70.4525 249.267 74.0562 258.348 75.5161C267.429 76.9761 276.842 76.2268 285.396 73.363C293.951 70.4992 301.262 65.6495 306.406 59.4272C311.55 53.205 314.296 45.8895 314.296 38.4061C314.282 28.3745 309.345 18.7571 300.569 11.6637C291.792 4.57033 279.893 0.580294 267.481 0.568996Z" fill="#3F3D56"/>
<path d="M266.073 56.8979C278.709 56.8979 288.953 48.6189 288.953 38.4061C288.953 28.1934 278.709 19.9143 266.073 19.9143C253.437 19.9143 243.193 28.1934 243.193 38.4061C243.193 48.6189 253.437 56.8979 266.073 56.8979Z" fill="#3F3D56"/>
<path d="M304.206 94.4781L290.615 100.82L298.462 111.805L312.052 105.463L304.206 94.4781Z" fill="#FF6584"/>
<path d="M96.7877 32.9174L83.1967 39.2593L91.0435 50.2438L104.634 43.9019L96.7877 32.9174Z" fill="#3F3D56"/>
<path d="M285.271 163.691L271.68 170.033L279.527 181.017L293.118 174.675L285.271 163.691Z" fill="#E5E5E5"/>
<path d="M62.079 142.169H50.7313V151.341H62.079V142.169Z" fill="#3333FF"/>
<path d="M266.073 42.9579C269.183 42.9579 271.705 40.92 271.705 38.4061C271.705 35.8922 269.183 33.8542 266.073 33.8542C262.963 33.8542 260.441 35.8922 260.441 38.4061C260.441 40.92 262.963 42.9579 266.073 42.9579Z" fill="#3333FF"/>
<path d="M246.818 100.209L217.665 113.813L234.496 137.376L263.65 123.772L246.818 100.209Z" fill="#3333FF"/>
<path d="M257.766 209.304H77.0287V210H257.766V209.304Z" fill="#CBCBCB"/>
<path d="M145.618 115.485C145.095 114.941 144.725 114.311 144.535 113.639C144.345 112.967 144.34 112.27 144.52 111.596C144.7 110.923 145.06 110.289 145.575 109.74C146.091 109.191 146.749 108.74 147.504 108.419L146.286 97.6914L154.171 95.5032L155.628 110.672C156.211 111.732 156.293 112.928 155.858 114.034C155.424 115.14 154.502 116.078 153.268 116.672C152.034 117.265 150.574 117.472 149.164 117.253C147.754 117.034 146.493 116.405 145.618 115.485Z" fill="#FFB8B8"/>
<path d="M154.084 53.9154C154.084 53.9154 159.495 44.737 164.303 47.9656C169.112 51.1942 157.711 78.3329 157.711 78.3329L155.977 104.678L146.839 103.94L144.255 78.2724L154.084 53.9154Z" fill="#CCCCCC"/>
<path d="M81.4998 189.705L88.2835 194.144L112.692 175.108L102.68 168.558L81.4998 189.705Z" fill="#FFB8B8"/>
<path d="M81.5624 186.783L94.9219 195.524L94.9224 195.524C97.1802 197.001 98.6194 199.143 98.9234 201.478C99.2275 203.813 98.3716 206.15 96.5439 207.975L96.32 208.199L74.4467 193.888L81.5624 186.783Z" fill="#2F2E41"/>
<path d="M175.776 202.026L184.504 202.025L188.656 174.818L175.775 174.818L175.776 202.026Z" fill="#FFB8B8"/>
<path d="M173.55 199.723L190.738 199.722H190.739C193.644 199.722 196.43 200.655 198.484 202.315C200.538 203.975 201.692 206.227 201.692 208.575V208.863L173.551 208.863L173.55 199.723Z" fill="#2F2E41"/>
<path d="M191.091 74.4727C191.091 74.4727 207.465 90.5829 203.905 106.693C200.346 122.803 197.498 134.886 197.498 134.886L191.803 171.134C191.803 171.134 193.939 181.006 191.091 183.55C191.091 183.55 195.362 189.546 187.532 191.847C179.701 194.149 175.476 191.052 175.476 191.052C175.476 191.052 169.734 184.368 173.294 182.641L174.793 111.506L117.767 171.709C117.767 171.709 116.718 179.033 109.412 179.111L100.681 184.368L90.7148 179.765L95.698 174.586C95.698 174.586 92.8505 168.833 99.2575 167.682L136.276 128.557L145.53 108.419C145.53 108.419 150.513 92.8844 164.039 86.5553V79.8208L191.091 74.4727Z" fill="#2F2E41"/>
<path d="M162.972 46.5672C165.127 44.5084 168.144 43.1622 171.448 42.7852C174.752 42.4081 178.113 43.0265 180.889 44.5225L181.481 44.8412C187.8 50.6247 192.047 57.6919 193.764 65.2817L196.43 77.0616L162.972 82.9195L155.128 61.0554C154.132 58.2803 154.372 55.3109 155.805 52.6638C157.238 50.0167 159.774 47.8594 162.972 46.5672Z" fill="#CCCCCC"/>
<path d="M217.942 117.99C217.015 117.744 216.165 117.338 215.453 116.799C214.74 116.26 214.183 115.601 213.82 114.869C213.457 114.136 213.297 113.349 213.351 112.561C213.406 111.774 213.673 111.005 214.134 110.31L204.482 100.763L210.23 94.6077L223.626 108.245C225.02 108.949 226.045 110.041 226.508 111.315C226.971 112.589 226.84 113.957 226.14 115.158C225.439 116.359 224.217 117.311 222.707 117.832C221.196 118.354 219.501 118.41 217.942 117.99Z" fill="#FFB8B8"/>
<path d="M177.209 55.1977C177.209 55.1977 175.074 43.6904 182.193 44.2658C189.311 44.8411 199.99 76.4862 199.99 76.4862L219.211 102.378L209.956 106.405L187.176 83.3906L177.209 55.1977Z" fill="#CCCCCC"/>
<path d="M190.246 38.3745H156.346C155.649 38.3739 154.98 38.1497 154.487 37.7512C153.994 37.3526 153.717 36.8123 153.716 36.2487V24.439C153.716 20.242 155.779 16.2168 159.451 13.2491C163.123 10.2813 168.103 8.61401 173.296 8.61401C178.489 8.61401 183.469 10.2813 187.141 13.2491C190.813 16.2168 192.876 20.242 192.876 24.439V36.2487C192.875 36.8123 192.598 37.3527 192.105 37.7512C191.611 38.1497 190.943 38.3739 190.246 38.3745Z" fill="#2F2E41"/>
<path d="M189.915 32.0626C193.718 26.4401 191.162 19.3905 184.205 16.3169C177.248 13.2433 168.526 15.3097 164.723 20.9323C160.92 26.5548 163.477 33.6044 170.434 36.678C177.39 39.7515 186.113 37.6852 189.915 32.0626Z" fill="#FFB8B8"/>
<path d="M197.508 25.6202H179.442L179.257 23.2149L178.33 25.6202H175.549L175.181 20.853L173.346 25.6202H167.963V25.384C167.963 18.4813 174.019 12.8657 181.462 12.8657H184.009C191.452 12.8657 197.508 18.4813 197.508 25.384L197.508 25.6202Z" fill="#2F2E41"/>
<path d="M180.19 40.5791C179.969 40.5789 179.748 40.5652 179.53 40.538L158.027 37.8611V19.7592C158.027 18.8436 158.25 17.937 158.684 17.091C159.117 16.2451 159.753 15.4765 160.554 14.829C161.355 14.1816 162.306 13.668 163.352 13.3176C164.399 12.9672 165.521 12.7869 166.654 12.7869H181.698L181.112 13.269C172.958 19.9782 179.101 30.8575 183.488 36.7452C183.81 37.1684 183.956 37.664 183.903 38.159C183.851 38.6541 183.603 39.1224 183.197 39.4951C182.823 39.8418 182.361 40.1184 181.841 40.3057C181.322 40.4929 180.758 40.5862 180.19 40.5791Z" fill="#2F2E41"/>
</g>
<defs>
<clipPath id="clip0_1_457">
<rect width="315" height="210" fill="white"/>
</clipPath>
</defs>
</svg>
