<svg width="315" height="250" viewBox="0 0 315 250" fill="none" xmlns="http://www.w3.org/2000/svg">
<g clip-path="url(#clip0_6_621)">
<path d="M168.475 35.1149C178.925 27.8714 193.638 25.0946 205.149 30.7455C192.19 36.0254 181.638 45.4363 175.362 57.3133C172.959 61.902 170.795 67.2406 165.837 69.3613C162.752 70.681 159.111 70.4261 155.917 69.3606C152.722 68.295 149.881 66.4848 147.079 64.6937L146.238 64.5988C151.225 53.3417 158.025 42.3583 168.475 35.1149Z" fill="#F0F0F0"/>
<path d="M205.057 30.9859C194.308 31.3019 183.939 34.7877 175.422 40.9482C173.564 42.2439 171.934 43.8063 170.594 45.5781C169.348 47.3435 168.629 49.3899 168.511 51.5045C168.359 53.4741 168.446 55.5053 167.786 57.4058C167.433 58.374 166.866 59.2611 166.121 60.0091C165.377 60.7571 164.473 61.349 163.468 61.7461C160.991 62.7965 158.259 62.9492 155.583 63.0115C152.611 63.0805 149.523 63.1081 146.82 64.4212C146.492 64.5803 146.248 64.0942 146.575 63.9353C151.278 61.6508 156.773 63.1413 161.715 61.7817C164.022 61.1472 166.138 59.8568 167.064 57.6977C167.874 55.8097 167.786 53.715 167.922 51.7195C168.004 49.6551 168.625 47.6411 169.729 45.8535C170.968 44.0235 172.531 42.4047 174.349 41.0666C178.392 37.9926 182.924 35.5343 187.781 33.7815C193.311 31.7522 199.171 30.6257 205.107 30.4506C205.474 30.4399 205.422 30.9753 205.057 30.9859Z" fill="white"/>
<path d="M178.04 38.8132C177.133 37.3321 176.816 35.5965 177.146 33.9163C177.477 32.2362 178.433 30.7209 179.844 29.6412C180.13 29.4236 180.504 29.8309 180.217 30.0487C178.901 31.0519 178.011 32.4635 177.706 34.0286C177.402 35.5937 177.704 37.2093 178.558 38.5838C178.743 38.8827 178.224 39.1104 178.04 38.8132Z" fill="white"/>
<path d="M168.448 50.4964C172.033 51.4365 175.863 51.0744 179.176 49.4821C179.504 49.3241 179.748 49.8102 179.42 49.968C175.97 51.6189 171.983 51.9882 168.255 51.0021C167.899 50.9079 168.095 50.4027 168.448 50.4964Z" fill="white"/>
<path d="M193.284 32.4643C193.508 33.106 193.898 33.6856 194.42 34.1508C194.941 34.6161 195.578 34.9525 196.272 35.1298C196.629 35.2198 196.433 35.725 196.079 35.6356C195.313 35.4363 194.61 35.064 194.033 34.5511C193.455 34.0383 193.021 33.4006 192.766 32.6937C192.736 32.6289 192.734 32.5559 192.759 32.4895C192.785 32.4231 192.836 32.3682 192.903 32.3361C192.972 32.306 193.05 32.3026 193.122 32.3266C193.193 32.3507 193.251 32.4001 193.284 32.4643Z" fill="white"/>
<path d="M214.277 71.1227C214.052 71.0725 213.828 71.0223 213.6 70.975C210.582 70.3145 207.512 69.8851 204.419 69.6911C204.181 69.6725 203.938 69.6571 203.699 69.645C196.244 69.2522 188.776 70.1615 181.674 72.3269C178.849 73.1909 176.098 74.2554 173.445 75.5111C169.782 77.2455 165.956 79.3995 162.012 79.8827C161.601 79.9374 161.187 79.9682 160.772 79.9749L146.18 65.5681C146.165 65.5197 146.145 65.4743 146.129 65.4258L145.519 64.8755C145.651 64.8018 145.789 64.728 145.921 64.6543C145.998 64.6112 146.077 64.5714 146.154 64.5283C146.206 64.5006 146.258 64.473 146.303 64.4453C146.32 64.436 146.338 64.4269 146.352 64.4207C146.397 64.3929 146.442 64.3716 146.484 64.347C147.257 63.9324 148.035 63.5222 148.817 63.1164C148.821 63.1133 148.821 63.1133 148.828 63.1134C154.798 60.0356 161.094 57.3985 167.616 55.7419C167.813 55.6921 168.012 55.6391 168.215 55.5959C171.16 54.8645 174.163 54.3601 177.195 54.0878C178.856 53.9437 180.523 53.8786 182.191 53.8928C186.5 53.937 190.775 54.6171 194.859 55.9079C203 58.4823 210.173 63.4711 213.991 70.5771C214.088 70.759 214.183 70.9378 214.277 71.1227Z" fill="#F0F0F0"/>
<path d="M214.049 71.2641C205.264 65.4442 194.748 62.3695 183.995 62.4768C181.68 62.4613 179.377 62.7884 177.17 63.446C175.042 64.1517 173.155 65.3792 171.704 67.0009C170.318 68.4875 169.085 70.1586 167.338 71.3033C166.435 71.8768 165.413 72.2646 164.339 72.4414C163.265 72.6182 162.163 72.58 161.106 72.3292C158.454 71.7686 156.175 70.3474 153.998 68.8849C151.581 67.261 149.097 65.5384 146.097 65.0599C145.733 65.002 145.85 64.476 146.213 64.5339C151.434 65.3664 154.865 69.661 159.684 71.3676C161.932 72.1639 164.45 72.3292 166.575 71.1284C168.433 70.0784 169.706 68.3562 171.095 66.8396C172.486 65.2381 174.274 63.9806 176.302 63.1768C178.466 62.4159 180.752 62.0061 183.062 61.9649C188.263 61.7944 193.459 62.3921 198.461 63.7362C204.179 65.2406 209.581 67.6516 214.432 70.8651C214.733 71.0641 214.347 71.4618 214.049 71.2641Z" fill="white"/>
<path d="M187.456 62.251C187.681 60.5557 188.542 58.9909 189.884 57.836C191.226 56.6812 192.961 56.0115 194.781 55.9465C195.149 55.9345 195.186 56.4708 194.817 56.4828C193.123 56.5404 191.506 57.1644 190.259 58.2422C189.012 59.32 188.216 60.7806 188.016 62.3604C187.972 62.7037 187.412 62.5923 187.456 62.251Z" fill="white"/>
<path d="M172.3 66.1604C174.559 68.9362 177.85 70.8111 181.517 71.4112C181.88 71.4704 181.763 71.9964 181.4 71.9373C177.586 71.3061 174.165 69.3484 171.821 66.455C171.598 66.1791 172.078 65.886 172.3 66.1604Z" fill="white"/>
<path d="M203.701 65.7935C203.468 66.4324 203.407 67.1156 203.525 67.7817C203.643 68.4478 203.936 69.0761 204.376 69.6099C204.603 69.8831 204.123 70.1759 203.897 69.9046C203.413 69.3126 203.091 68.6184 202.959 67.8827C202.827 67.147 202.889 66.3922 203.14 65.6842C203.158 65.6156 203.202 65.5558 203.265 65.5171C203.328 65.4785 203.404 65.4637 203.479 65.4758C203.553 65.4907 203.618 65.5324 203.659 65.5918C203.701 65.6513 203.716 65.7238 203.701 65.7935Z" fill="white"/>
<path d="M165.718 45.8909H164.587V16.8235C164.587 14.6142 164.124 12.4265 163.223 10.3854C162.322 8.34429 161.001 6.48969 159.336 4.92748C157.671 3.36528 155.695 2.12607 153.519 1.28062C151.344 0.435156 149.013 1.19104e-06 146.658 0H81.0275C78.673 -4.76396e-06 76.3415 0.435141 74.1663 1.28059C71.991 2.12605 70.0145 3.36525 68.3496 4.92745C66.6848 6.48965 65.3641 8.34425 64.4631 10.3854C63.5621 12.4265 63.0983 14.6141 63.0983 16.8234V176.29C63.0983 180.752 64.9873 185.031 68.3496 188.186C71.712 191.341 76.2723 193.113 81.0274 193.113H146.658C151.413 193.113 155.974 191.341 159.336 188.186C162.698 185.031 164.587 180.752 164.587 176.29V66.5816H165.718V45.8909Z" fill="#3F3D56"/>
<path d="M147.382 4.37697H138.815C139.209 5.2833 139.359 6.26663 139.253 7.24034C139.146 8.21405 138.786 9.14826 138.204 9.96066C137.622 10.7731 136.837 11.4387 135.916 11.899C134.995 12.3593 133.968 12.6001 132.925 12.6002H95.326C94.2828 12.6001 93.2557 12.3593 92.3351 11.899C91.4145 11.4387 90.6286 10.7731 90.0468 9.96067C89.4649 9.14826 89.1049 8.21405 88.9985 7.24034C88.892 6.26662 89.0424 5.28328 89.4364 4.37695H81.4348C77.8837 4.37695 74.4781 5.70061 71.9671 8.05673C69.4562 10.4129 68.0455 13.6084 68.0455 16.9405V176.173C68.0455 177.823 68.3918 179.457 69.0647 180.981C69.7376 182.505 70.7238 183.89 71.9671 185.057C73.2104 186.223 74.6865 187.149 76.3109 187.78C77.9354 188.412 79.6765 188.736 81.4348 188.736H147.382C149.14 188.736 150.881 188.412 152.505 187.78C154.13 187.149 155.606 186.223 156.849 185.057C158.093 183.89 159.079 182.505 159.752 180.981C160.425 179.457 160.771 177.823 160.771 176.173V16.9405C160.771 13.6084 159.36 10.4129 156.849 8.05673C154.338 5.70062 150.933 4.37696 147.382 4.37697Z" fill="white"/>
<path d="M115.675 137.585C110.819 137.589 106.01 136.695 101.522 134.953C97.0348 133.211 92.9574 130.656 89.5236 127.434C86.0897 124.212 83.3667 120.386 81.5103 116.175C79.654 111.965 78.7009 107.452 78.7054 102.895C78.6985 96.4963 80.5805 90.221 84.1426 84.7648C87.7047 79.3086 92.8077 74.8848 98.8858 71.984C103.292 69.8807 108.102 68.6261 113.032 68.294C117.963 67.962 122.914 68.5592 127.595 70.0506C135.885 72.7013 142.903 78.027 147.399 85.0791C151.895 92.1313 153.577 100.452 152.146 108.559C150.715 116.667 146.264 124.034 139.585 129.35C132.906 134.665 124.433 137.583 115.675 137.585ZM115.675 69.5652C110.067 69.5497 104.536 70.7946 99.545 73.1956C95.1825 75.2811 91.3266 78.1904 88.2193 81.7407C85.1121 85.291 82.8205 89.4057 81.4886 93.8266C80.1567 98.2474 79.8131 102.879 80.4794 107.43C81.1458 111.982 82.8077 116.355 85.3608 120.275C87.9139 124.195 91.3031 127.577 95.3155 130.21C99.328 132.842 103.877 134.668 108.677 135.572C113.478 136.477 118.425 136.44 123.21 135.465C127.994 134.49 132.512 132.597 136.48 129.906C138.398 128.607 140.172 127.13 141.775 125.497C146.462 120.739 149.569 114.801 150.715 108.41C151.86 102.02 150.995 95.4554 148.225 89.5196C145.455 83.5837 140.901 78.5346 135.12 74.9904C129.338 71.4463 122.581 69.5609 115.675 69.5652Z" fill="#F0F0F0"/>
<path d="M35.5669 72.1085C36.5817 72.2279 37.5562 72.5546 38.4219 73.0657C39.2875 73.5767 40.0232 74.2596 40.5772 75.0663C41.1311 75.873 41.4898 76.7838 41.6281 77.7347C41.7663 78.6855 41.6806 79.6533 41.3771 80.5697L53.6604 90.1703L49.2633 98.5975L32.1199 84.8109C30.5129 84.2305 29.1887 83.1171 28.3982 81.6817C27.6076 80.2464 27.4057 78.5888 27.8306 77.0231C28.2555 75.4573 29.2777 74.0922 30.7035 73.1864C32.1294 72.2807 33.8598 71.8971 35.5669 72.1085Z" fill="#FFB6B6"/>
<path d="M150.287 112.145C150.041 109.661 149.022 105.194 148.158 103.542C145.502 97.0176 128.337 91.6553 126.032 90.9641L125.447 84.865L101.598 82.4571L98.5724 90.2567L90.0187 93.2677C89.438 93.4709 88.9124 93.7922 88.4795 94.2085C88.0467 94.6248 87.7174 95.1258 87.5153 95.6756L79.8411 97.757L72.2683 99.8112L45.9592 82.4163L44.7171 83.1781L36.4147 88.2614L35.1339 89.0459L69.1802 117.868L81.8272 115.084L91.338 112.984L92.1498 116.077L90.0477 126.942C96.138 132.659 104.2 136.153 112.787 136.797C121.374 137.441 129.925 135.193 136.905 130.456L142.308 125.958C146.074 122.137 148.853 117.556 150.432 112.567L150.287 112.145Z" fill="#E4E4E4"/>
<path d="M121.016 77.469C130.019 74.672 134.901 65.5563 131.92 57.1085C128.939 48.6607 119.224 44.0798 110.221 46.8768C101.218 49.6738 96.3363 58.7895 99.3171 67.2373C102.298 75.6851 112.013 80.266 121.016 77.469Z" fill="#FFB6B6"/>
<path d="M102.055 43.804C103.724 41.567 106.23 40.0012 109.073 39.4178C111.884 38.8752 114.81 39.3788 117.233 40.8222C119.868 39.8263 122.708 39.1656 125.499 39.5015C128.29 39.8374 131.026 41.3002 132.317 43.7102C132.589 44.3345 132.919 44.9352 133.302 45.5053C134.44 46.9297 136.555 47.1145 138.422 47.1829C137.478 47.6996 136.534 48.2162 135.589 48.7329C136.53 49.1443 137.472 49.5558 138.413 49.9673C137.132 50.4261 135.851 50.8849 134.57 51.3437C137.551 53.8026 138.272 58.1785 137.144 61.8472C136.075 65.3207 133.625 68.2447 130.889 70.748C130.355 68.8801 130.942 66.8551 131.333 64.9212C131.746 62.8779 131.812 60.4886 130.288 59.0459C129.259 58.0728 127.75 57.7788 126.328 57.5427C119.152 56.3518 111.909 55.5449 104.636 55.1259C103.662 54.9997 102.67 55.0947 101.744 55.4029C99.9741 56.1409 99.2629 58.1679 98.7499 59.9652C98.5042 56.8105 98.7005 53.6392 99.3338 50.5324C99.819 48.1546 100.583 45.7746 102.055 43.804Z" fill="#2F2E41"/>
<path d="M124.374 153.929H104.077C103.372 153.929 102.696 153.666 102.197 153.198C101.699 152.731 101.419 152.096 101.419 151.435C101.419 150.773 101.699 150.139 102.197 149.671C102.696 149.203 103.372 148.941 104.077 148.941H124.374C125.079 148.941 125.755 149.203 126.254 149.671C126.752 150.139 127.032 150.773 127.032 151.435C127.032 152.096 126.752 152.731 126.254 153.198C125.755 153.666 125.079 153.929 124.374 153.929Z" fill="#3333FF"/>
<path d="M57.771 20.4627H1.94169C1.42722 20.4619 0.93409 20.2696 0.570594 19.928C0.207098 19.5864 0.00293732 19.1234 0.00293732 18.6407C0.00293732 18.1579 0.207098 17.6949 0.570594 17.3533C0.93409 17.0117 1.42722 16.8194 1.94169 16.8186H57.771C58.286 16.8186 58.7799 17.0106 59.1441 17.3523C59.5082 17.694 59.7128 18.1574 59.7128 18.6407C59.7128 19.1239 59.5082 19.5873 59.1441 19.929C58.7799 20.2707 58.286 20.4627 57.771 20.4627Z" fill="#3333FF"/>
<path d="M90.0051 32.0999H1.94169C1.42672 32.0999 0.932848 31.908 0.568711 31.5663C0.204575 31.2246 7.62939e-06 30.7612 7.62939e-06 30.278C7.62939e-06 29.7948 0.204575 29.3314 0.568711 28.9897C0.932848 28.648 1.42672 28.4561 1.94169 28.4561H90.0051C90.52 28.4561 91.0139 28.648 91.378 28.9897C91.7422 29.3314 91.9468 29.7948 91.9468 30.278C91.9468 30.7612 91.7422 31.2246 91.378 31.5663C91.0139 31.908 90.52 32.0999 90.0051 32.0999Z" fill="#3333FF"/>
<path d="M73.0821 43.0636H1.94171C1.42674 43.0636 0.932863 42.8716 0.568727 42.5299C0.204591 42.1882 2.28882e-05 41.7248 2.28882e-05 41.2416C2.28882e-05 40.7584 0.204591 40.295 0.568727 39.9533C0.932863 39.6116 1.42674 39.4197 1.94171 39.4197H73.0821C73.5971 39.4197 74.0909 39.6116 74.4551 39.9533C74.8192 40.295 75.0238 40.7584 75.0238 41.2416C75.0238 41.7248 74.8192 42.1882 74.4551 42.5299C74.0909 42.8716 73.5971 43.0636 73.0821 43.0636Z" fill="#CACACA"/>
<path d="M42.0573 53.9869H1.94171C1.42674 53.9869 0.932863 53.7949 0.568727 53.4533C0.204591 53.1116 2.28882e-05 52.6482 2.28882e-05 52.165C2.28882e-05 51.6818 0.204591 51.2183 0.568727 50.8766C0.932863 50.535 1.42674 50.343 1.94171 50.343H42.0573C42.5722 50.343 43.0661 50.535 43.4302 50.8766C43.7944 51.2183 43.9989 51.6818 43.9989 52.165C43.9989 52.6482 43.7944 53.1116 43.4302 53.4533C43.0661 53.7949 42.5722 53.9869 42.0573 53.9869Z" fill="#CACACA"/>
<path d="M64.218 64.9093H1.94168C1.42724 64.9085 0.934161 64.7162 0.570686 64.3746C0.207212 64.033 0.00305939 63.57 0.00305939 63.0873C0.00305939 62.6046 0.207212 62.1416 0.570686 61.8C0.934161 61.4584 1.42724 61.2661 1.94168 61.2654H64.218C64.7324 61.2661 65.2255 61.4584 65.589 61.8C65.9524 62.1416 66.1566 62.6046 66.1566 63.0873C66.1566 63.57 65.9524 64.033 65.589 64.3746C65.2255 64.7162 64.7324 64.9085 64.218 64.9093Z" fill="#CACACA"/>
<path d="M239.73 243.16L234.726 243.16L232.345 225.049L239.731 225.05L239.73 243.16Z" fill="#9F616A"/>
<path d="M241.698 249.658L222.595 249.657V249.431C222.595 247.58 223.378 245.806 224.773 244.497C226.167 243.189 228.058 242.454 230.03 242.454H230.031L233.52 239.969L240.031 242.454L241.699 242.454L241.698 249.658Z" fill="#2F2E41"/>
<path d="M236.814 158.045L234.607 132.796L232.874 123.319L242.58 121.308L245.802 134.282L242.995 158.745C243.561 159.396 243.907 160.191 243.988 161.028C244.069 161.864 243.881 162.705 243.45 163.44C243.018 164.176 242.361 164.774 241.565 165.158C240.768 165.541 239.867 165.692 238.978 165.591C238.089 165.49 237.253 165.142 236.576 164.592C235.9 164.042 235.414 163.314 235.181 162.503C234.949 161.692 234.98 160.834 235.271 160.039C235.562 159.245 236.099 158.55 236.814 158.045Z" fill="#9F616A"/>
<path d="M213.15 243.16L208.146 243.16L205.766 225.049L213.151 225.05L213.15 243.16Z" fill="#9F616A"/>
<path d="M205.142 163.768L202.924 167.369C202.924 167.369 200.486 167.994 201.283 175.449C202.08 182.905 202.114 227.076 205.97 232.511L206.667 237.179L213.949 237.832L214.132 233.69L222.814 176.153C222.814 176.153 227.928 232.636 232.158 234.018L233.685 238.724L240.358 238.727L239.964 233.181L240.395 163.185L205.142 163.768Z" fill="#2F2E41"/>
<path d="M202.703 167.094L202.55 167.057C207.128 150.988 205.808 130.18 202.575 107.836L202.575 107.744L214.262 97.6992H224.411L234.471 103.791C240.975 106.843 242.453 113.305 242.468 113.37L242.478 113.416L238.492 126.468L241.495 164.216L241.498 164.26L241.481 164.301C240.509 166.612 237.906 166.283 234.891 165.902C231.881 165.521 220.791 169.003 217.391 169.003C210.745 169.003 203.178 167.209 202.703 167.094Z" fill="#E4E4E4"/>
<path d="M232.364 108.879L236.724 107.099L242.468 113.708L247.124 134.883L231.176 132.616L232.364 108.879Z" fill="#E4E4E4"/>
<path d="M165.306 147.927L185.237 130.838L192.164 123.752L199.799 129.725L190.835 140.055L168.498 152.943C168.296 153.761 167.838 154.504 167.182 155.077C166.527 155.649 165.704 156.024 164.819 156.154C163.934 156.284 163.029 156.162 162.218 155.806C161.408 155.449 160.729 154.873 160.27 154.151C159.811 153.43 159.592 152.597 159.642 151.758C159.692 150.919 160.008 150.113 160.549 149.444C161.09 148.775 161.833 148.273 162.68 148.003C163.528 147.732 164.443 147.706 165.306 147.927Z" fill="#9F616A"/>
<path d="M184.803 131.024L190.323 124.298C190.369 124.201 194.949 114.598 198.918 110.426C202.99 106.145 206.196 108.334 206.228 108.358L206.308 108.414L206.53 124.221L191.245 141.358L184.803 131.024Z" fill="#E4E4E4"/>
<path d="M227.513 88.2382C228.336 83.4792 224.892 78.9953 219.82 78.223C214.748 77.4508 209.97 80.6826 209.147 85.4415C208.324 90.2005 211.768 94.6844 216.839 95.4567C221.911 96.2289 226.69 92.9971 227.513 88.2382Z" fill="#9F616A"/>
<path d="M209.824 85.544C209.824 85.544 209.75 82.4751 209.336 81.1171C208.923 79.7592 208.096 78.5953 208.51 78.5953C208.923 78.5953 209.13 77.6253 209.13 77.6253C209.13 77.6253 209.543 77.4313 209.75 77.6253C209.957 77.8193 210.163 76.2674 210.163 76.2674C210.163 76.2674 210.37 75.6854 210.577 76.0734C210.784 76.4614 210.784 76.2674 210.99 75.6854C211.197 75.1035 212.231 74.7155 212.231 74.7155C212.231 74.7155 216.159 74.9095 216.779 74.1335C217.399 73.3575 224.428 73.9395 225.876 74.9094C227.323 75.8794 233.732 79.3712 232.698 82.2811C231.664 85.1909 228.689 91.8908 227.943 92.5625C226.764 93.6247 225.948 94.0077 220.368 95.0494C219.276 95.2533 213.703 91.9088 213.703 91.3268C213.703 90.7448 214.375 88.8993 213.295 88.6459C211.662 88.2629 211.478 90.1997 211.065 89.6178C210.651 89.0358 209.824 85.544 209.824 85.544Z" fill="#2F2E41"/>
<path d="M215.119 249.658L196.015 249.657V249.431C196.015 247.58 196.798 245.806 198.193 244.497C199.587 243.189 201.479 242.454 203.451 242.454H203.451L206.941 239.969L213.451 242.454L215.119 242.454L215.119 249.658Z" fill="#2F2E41"/>
<path d="M314.425 250H1.60832C1.45571 250 1.30936 249.943 1.20145 249.842C1.09354 249.741 1.03291 249.603 1.03291 249.46C1.03291 249.317 1.09354 249.18 1.20145 249.078C1.30936 248.977 1.45571 248.92 1.60832 248.92H314.425C314.577 248.92 314.724 248.977 314.831 249.078C314.939 249.18 315 249.317 315 249.46C315 249.603 314.939 249.741 314.831 249.842C314.724 249.943 314.577 250 314.425 250Z" fill="#CACACA"/>
</g>
<defs>
<clipPath id="clip0_6_621">
<rect width="315" height="250" fill="white"/>
</clipPath>
</defs>
</svg>
