<svg width="315" height="210" viewBox="0 0 315 210" fill="none" xmlns="http://www.w3.org/2000/svg">
<g clip-path="url(#clip0_6_552)">
<path d="M294.444 185.549H214.846C211.95 185.546 209.173 184.348 207.125 182.22C205.078 180.092 203.926 177.207 203.923 174.197V43.7063C203.926 40.6966 205.078 37.8111 207.125 35.6829C209.173 33.5547 211.95 32.3576 214.846 32.3542H294.444C297.339 32.3576 300.116 33.5547 302.164 35.6829C304.211 37.8111 305.363 40.6966 305.366 43.7063V174.197C305.363 177.207 304.211 180.092 302.164 182.22C300.116 184.348 297.339 185.546 294.444 185.549Z" fill="#E6E6E6"/>
<path d="M295.764 39.1282H214.695C213.789 39.1293 212.92 39.5041 212.279 40.1703C211.638 40.8365 211.277 41.7397 211.276 42.6819V174.874C211.277 175.816 211.638 176.719 212.279 177.385C212.92 178.051 213.789 178.426 214.695 178.428H295.764C296.67 178.426 297.539 178.052 298.18 177.385C298.821 176.719 299.182 175.816 299.183 174.874V42.6819C299.182 41.7397 298.821 40.8365 298.18 40.1703C297.539 39.5041 296.67 39.1293 295.764 39.1282Z" fill="white"/>
<path d="M216.791 32.3543C216.791 32.124 216.88 31.9033 217.036 31.7405C217.193 31.5777 217.405 31.4861 217.627 31.4858H223.309C223.531 31.4858 223.743 31.5773 223.9 31.7402C224.057 31.9031 224.145 32.124 224.145 32.3543C224.145 32.5846 224.057 32.8055 223.9 32.9684C223.743 33.1312 223.531 33.2227 223.309 33.2227H217.627C217.405 33.2225 217.193 33.1309 217.036 32.9681C216.88 32.8053 216.791 32.5845 216.791 32.3543Z" fill="#E6E6E6"/>
<path d="M226.15 32.3543C226.15 32.124 226.238 31.9033 226.395 31.7405C226.552 31.5777 226.764 31.4861 226.986 31.4858H232.668C232.889 31.4858 233.102 31.5773 233.259 31.7402C233.415 31.9031 233.503 32.124 233.503 32.3543C233.503 32.5846 233.415 32.8055 233.259 32.9684C233.102 33.1312 232.889 33.2227 232.668 33.2227H226.986C226.764 33.2225 226.552 33.1309 226.395 32.9681C226.238 32.8053 226.15 32.5845 226.15 32.3543Z" fill="#E6E6E6"/>
<path d="M282.303 32.3543C282.304 32.124 282.392 31.9033 282.548 31.7405C282.705 31.5777 282.918 31.4861 283.139 31.4858H288.821C289.043 31.4858 289.255 31.5773 289.412 31.7402C289.569 31.9031 289.657 32.124 289.657 32.3543C289.657 32.5846 289.569 32.8055 289.412 32.9684C289.255 33.1312 289.043 33.2227 288.821 33.2227H283.139C282.918 33.2225 282.705 33.1309 282.548 32.9681C282.392 32.8053 282.304 32.5845 282.303 32.3543Z" fill="#E6E6E6"/>
<path d="M266.464 175.704C266.464 176.618 266.447 177.528 266.407 178.428H214.695C213.789 178.426 212.92 178.051 212.279 177.385C211.638 176.719 211.277 175.816 211.276 174.874V108.337C226.675 110.922 240.686 119.122 250.798 131.466C260.91 143.81 266.464 159.492 266.464 175.704Z" fill="#F2F2F2"/>
<path d="M264.707 73.0991H245.422C244.544 73.0991 243.833 73.8385 243.833 74.7506V76.8114C243.833 77.7235 244.544 78.4629 245.422 78.4629H264.707C265.585 78.4629 266.296 77.7235 266.296 76.8114V74.7506C266.296 73.8385 265.585 73.0991 264.707 73.0991Z" fill="#3333FF"/>
<path d="M276.965 83.8267H233.165C232.287 83.8267 231.576 84.566 231.576 85.4781V87.5389C231.576 88.451 232.287 89.1904 233.165 89.1904H276.965C277.842 89.1904 278.554 88.451 278.554 87.5389V85.4781C278.554 84.566 277.842 83.8267 276.965 83.8267Z" fill="#E6E6E6"/>
<path d="M276.965 94.554H233.165C232.287 94.554 231.576 95.2933 231.576 96.2054V98.2662C231.576 99.1783 232.287 99.9177 233.165 99.9177H276.965C277.842 99.9177 278.554 99.1783 278.554 98.2662V96.2054C278.554 95.2933 277.842 94.554 276.965 94.554Z" fill="#E6E6E6"/>
<path d="M269.465 169.393C269.213 169.405 268.965 169.337 268.752 169.197C268.54 169.057 268.374 168.853 268.277 168.612C268.18 168.371 268.157 168.105 268.21 167.85C268.264 167.594 268.391 167.362 268.576 167.185L268.66 166.838C268.649 166.81 268.638 166.782 268.627 166.754C268.374 166.133 267.95 165.604 267.408 165.232C266.866 164.861 266.231 164.664 265.582 164.667C264.933 164.669 264.3 164.871 263.761 165.246C263.222 165.622 262.802 166.155 262.553 166.778C261.56 169.264 260.295 171.755 259.984 174.384C259.847 175.546 259.904 176.724 260.155 177.866C257.822 172.576 256.61 166.827 256.602 161.009C256.602 159.549 256.68 158.09 256.836 156.639C256.965 155.449 257.144 154.268 257.373 153.095C258.624 146.733 261.309 140.769 265.208 135.694C267.095 134.624 268.621 132.979 269.58 130.98C269.928 130.261 270.173 129.494 270.309 128.702C270.097 128.731 269.88 128.749 269.667 128.764C269.601 128.767 269.531 128.771 269.465 128.775L269.44 128.776C269.206 128.787 268.974 128.727 268.772 128.604C268.57 128.481 268.406 128.3 268.301 128.083C268.195 127.865 268.153 127.621 268.178 127.379C268.203 127.137 268.295 126.908 268.442 126.719C268.534 126.601 268.626 126.484 268.718 126.366C268.858 126.185 269.001 126.007 269.14 125.826C269.156 125.809 269.172 125.791 269.186 125.772C269.346 125.565 269.507 125.362 269.667 125.155C269.374 124.682 268.98 124.286 268.516 123.998C266.907 123.019 264.688 123.697 263.526 125.209C262.36 126.722 262.14 128.843 262.545 130.733C262.943 132.341 263.602 133.866 264.492 135.245C264.405 135.361 264.314 135.473 264.227 135.589C262.632 137.72 261.242 140.009 260.077 142.422C260.36 139.719 260.022 136.984 259.09 134.443C258.146 132.075 256.375 130.081 254.816 128.033C252.944 125.574 249.104 126.648 248.774 129.765C248.771 129.795 248.768 129.825 248.765 129.855C248.996 129.991 249.223 130.135 249.445 130.288C249.723 130.481 249.939 130.757 250.064 131.081C250.189 131.404 250.217 131.759 250.144 132.099C250.072 132.439 249.902 132.748 249.658 132.986C249.413 133.224 249.105 133.38 248.774 133.433L248.74 133.438C248.823 134.306 248.969 135.165 249.176 136.01C249.779 138.367 250.843 140.57 252.303 142.479C253.763 144.389 255.586 145.965 257.66 147.108C257.796 147.18 257.928 147.253 258.064 147.321C256.894 150.769 256.159 154.361 255.88 158.006C255.722 160.156 255.731 162.316 255.908 164.465L255.897 164.389C255.451 161.999 254.224 159.843 252.425 158.285C249.753 156.004 245.978 155.164 243.096 153.33C242.789 153.126 242.433 153.017 242.069 153.016C241.705 153.015 241.348 153.122 241.041 153.325C240.733 153.528 240.488 153.818 240.334 154.161C240.181 154.504 240.124 154.885 240.172 155.26C240.176 155.287 240.18 155.313 240.184 155.34C240.613 155.522 241.032 155.732 241.436 155.968C241.668 156.103 241.895 156.247 242.117 156.4C242.395 156.593 242.611 156.87 242.736 157.193C242.861 157.516 242.889 157.871 242.816 158.211C242.744 158.551 242.574 158.86 242.33 159.098C242.085 159.336 241.777 159.492 241.446 159.545L241.412 159.551C241.388 159.554 241.367 159.558 241.342 159.562C242.077 161.384 243.107 163.061 244.389 164.519C245.972 166.285 247.886 167.696 250.012 168.666C252.139 169.635 254.434 170.144 256.756 170.159H256.759C257.39 173.006 258.303 175.777 259.485 178.428H269.221C269.256 178.315 269.287 178.199 269.318 178.087C268.417 178.146 267.512 178.09 266.624 177.92C267.347 176.999 268.069 176.07 268.791 175.149C268.807 175.132 268.823 175.114 268.837 175.095C269.203 174.623 269.573 174.156 269.939 173.684L269.94 173.683C269.959 172.238 269.799 170.796 269.465 169.393ZM258.316 146.6L258.321 146.593L258.316 146.607V146.6ZM256.159 166.804L256.075 166.608C256.079 166.467 256.079 166.325 256.075 166.18C256.075 166.14 256.068 166.101 256.068 166.061C256.1 166.311 256.128 166.561 256.163 166.811L256.159 166.804Z" fill="#CCCCCC"/>
<path d="M291.711 50.7988H218.748C218.59 50.7952 218.44 50.7275 218.329 50.6102C218.219 50.4929 218.157 50.3354 218.157 50.1713C218.157 50.0072 218.219 49.8496 218.329 49.7323C218.44 49.615 218.59 49.5473 218.748 49.5437H291.711C291.869 49.5473 292.019 49.615 292.13 49.7323C292.24 49.8496 292.302 50.0072 292.302 50.1713C292.302 50.3354 292.24 50.4929 292.13 50.6102C292.019 50.7275 291.869 50.7952 291.711 50.7988Z" fill="#CACACA"/>
<path d="M222.641 47.729C223.621 47.729 224.415 46.8848 224.415 45.8434C224.415 44.802 223.621 43.9578 222.641 43.9578C221.66 43.9578 220.866 44.802 220.866 45.8434C220.866 46.8848 221.66 47.729 222.641 47.729Z" fill="#3F3D56"/>
<path d="M228.772 47.729C229.752 47.729 230.546 46.8848 230.546 45.8434C230.546 44.802 229.752 43.9578 228.772 43.9578C227.791 43.9578 226.997 44.802 226.997 45.8434C226.997 46.8848 227.791 47.729 228.772 47.729Z" fill="#3F3D56"/>
<path d="M234.903 47.729C235.883 47.729 236.677 46.8848 236.677 45.8434C236.677 44.802 235.883 43.9578 234.903 43.9578C233.923 43.9578 233.128 44.802 233.128 45.8434C233.128 46.8848 233.923 47.729 234.903 47.729Z" fill="#3F3D56"/>
<path d="M288.859 44.6863H284.888C284.809 44.6879 284.734 44.7215 284.679 44.78C284.624 44.8384 284.593 44.917 284.593 44.9988C284.593 45.0807 284.624 45.1592 284.679 45.2177C284.734 45.2761 284.809 45.3098 284.888 45.3114H288.859C288.938 45.3098 289.013 45.2761 289.068 45.2177C289.123 45.1592 289.154 45.0807 289.154 44.9988C289.154 44.917 289.123 44.8384 289.068 44.78C289.013 44.7215 288.938 44.6879 288.859 44.6863Z" fill="#3F3D56"/>
<path d="M288.859 45.8596H284.888C284.809 45.8612 284.734 45.8949 284.679 45.9533C284.624 46.0117 284.593 46.0903 284.593 46.1722C284.593 46.254 284.624 46.3326 284.679 46.391C284.734 46.4495 284.809 46.4831 284.888 46.4847H288.859C288.938 46.4831 289.013 46.4495 289.068 46.391C289.123 46.3326 289.154 46.254 289.154 46.1722C289.154 46.0903 289.123 46.0117 289.068 45.9533C289.013 45.8949 288.938 45.8612 288.859 45.8596Z" fill="#3F3D56"/>
<path d="M288.859 47.0312H284.888C284.809 47.0329 284.734 47.0665 284.679 47.1249C284.624 47.1834 284.593 47.262 284.593 47.3438C284.593 47.4256 284.624 47.5042 284.679 47.5627C284.734 47.6211 284.809 47.6547 284.888 47.6563H288.859C288.938 47.6547 289.013 47.6211 289.068 47.5627C289.123 47.5042 289.154 47.4256 289.154 47.3438C289.154 47.262 289.123 47.1834 289.068 47.1249C289.013 47.0665 288.938 47.0329 288.859 47.0312Z" fill="#3F3D56"/>
<path d="M170.476 108.386H128.174C127.575 108.387 127.002 108.635 126.579 109.076C126.157 109.516 125.92 110.113 125.92 110.735V180.186H172.736V110.735C172.736 110.426 172.678 110.121 172.564 109.836C172.451 109.551 172.284 109.292 172.074 109.074C171.864 108.856 171.615 108.683 171.341 108.565C171.067 108.447 170.773 108.386 170.476 108.386ZM149.467 147.848C148.144 147.841 146.877 147.292 145.942 146.32C145.007 145.348 144.478 144.031 144.472 142.656V134.646C144.473 133.27 145 131.95 145.937 130.978C146.873 130.005 148.143 129.459 149.467 129.459C150.791 129.459 152.061 130.005 152.998 130.978C153.935 131.95 154.461 133.27 154.463 134.646V142.656C154.456 144.031 153.928 145.348 152.993 146.32C152.057 147.292 150.79 147.841 149.467 147.848Z" fill="#E6E6E6"/>
<path d="M125.775 177.964V184.665C125.776 185.012 125.909 185.345 126.145 185.591C126.381 185.836 126.701 185.974 127.035 185.975H171.621C171.954 185.973 172.274 185.835 172.51 185.589C172.746 185.344 172.879 185.012 172.881 184.665V177.964L125.775 177.964Z" fill="#CCCCCC"/>
<path d="M240.525 0H59.6989C58.1453 0.00256869 56.6561 0.645113 55.5575 1.78682C54.459 2.92854 53.8407 4.47629 53.8382 6.09092V132.908C53.8397 134.523 54.4577 136.071 55.5564 137.213C56.6552 138.355 58.145 138.997 59.6989 138.999H240.525C242.079 138.997 243.569 138.355 244.668 137.213C245.767 136.071 246.384 134.523 246.386 132.908V6.09092C246.384 4.47629 245.765 2.92854 244.667 1.78682C243.568 0.645113 242.079 0.00256769 240.525 0Z" fill="#E6E6E6"/>
<path d="M239.016 4.39941H61.2097C60.3778 4.40129 59.5807 4.74602 58.9931 5.35796C58.4055 5.96991 58.0755 6.7991 58.0754 7.66362V131.337C58.0768 132.201 58.4075 133.029 58.995 133.639C59.5825 134.25 60.3789 134.593 61.2097 134.595H239.016C239.847 134.593 240.643 134.25 241.231 133.639C241.818 133.029 242.149 132.201 242.15 131.337V7.66362C242.15 6.7991 241.82 5.96991 241.233 5.35796C240.645 4.74602 239.848 4.40129 239.016 4.39941Z" fill="white"/>
<path d="M242.15 7.66362V131.337C242.149 132.201 241.818 133.029 241.231 133.639C240.643 134.25 239.847 134.593 239.016 134.595H176.318C169.382 127.91 163.691 119.952 159.532 111.122C159.258 110.554 158.998 109.978 158.75 109.396C154.96 100.849 152.666 91.6693 151.973 82.2864C151.928 81.7108 151.888 81.1351 151.862 80.5527C151.778 79.0628 151.739 77.5526 151.739 76.0357C151.726 65.9467 153.559 55.9472 157.14 46.5698C157.355 45.9874 157.584 45.4118 157.818 44.8362C165.025 27.2371 178.048 12.8954 194.537 4.39941H239.016C239.848 4.40129 240.645 4.74602 241.232 5.35796C241.82 5.96991 242.15 6.7991 242.15 7.66362Z" fill="#3333FF"/>
<path d="M230.078 21.4389H63.7053C63.5323 21.4351 63.3676 21.361 63.2465 21.2325C63.1255 21.1039 63.0577 20.9312 63.0577 20.7513C63.0577 20.5715 63.1255 20.3987 63.2465 20.2702C63.3676 20.1417 63.5323 20.0676 63.7053 20.0637H230.078C230.251 20.0676 230.416 20.1417 230.537 20.2702C230.658 20.3987 230.726 20.5715 230.726 20.7513C230.726 20.9312 230.658 21.1039 230.537 21.2325C230.416 21.361 230.251 21.4351 230.078 21.4389Z" fill="#CACACA"/>
<path d="M75.0305 16.5528C77.1719 16.5528 78.9079 14.7084 78.9079 12.4333C78.9079 10.1581 77.1719 8.31372 75.0305 8.31372C72.8891 8.31372 71.1531 10.1581 71.1531 12.4333C71.1531 14.7084 72.8891 16.5528 75.0305 16.5528Z" fill="#3F3D56"/>
<path d="M88.4251 16.5528C90.5666 16.5528 92.3025 14.7084 92.3025 12.4333C92.3025 10.1581 90.5666 8.31372 88.4251 8.31372C86.2837 8.31372 84.5477 10.1581 84.5477 12.4333C84.5477 14.7084 86.2837 16.5528 88.4251 16.5528Z" fill="#3F3D56"/>
<path d="M101.82 16.5528C103.961 16.5528 105.697 14.7084 105.697 12.4333C105.697 10.1581 103.961 8.31372 101.82 8.31372C99.6783 8.31372 97.9424 10.1581 97.9424 12.4333C97.9424 14.7084 99.6783 16.5528 101.82 16.5528Z" fill="#3F3D56"/>
<path d="M222.013 9.33472H212.498C212.31 9.3386 212.13 9.41918 211.998 9.55918C211.866 9.69917 211.792 9.88741 211.792 10.0835C211.792 10.2795 211.866 10.4678 211.998 10.6078C212.13 10.7478 212.31 10.8283 212.498 10.8322H222.013C222.202 10.8283 222.381 10.7478 222.514 10.6078C222.646 10.4678 222.72 10.2795 222.72 10.0835C222.72 9.88741 222.646 9.69917 222.514 9.55918C222.381 9.41918 222.202 9.3386 222.013 9.33472Z" fill="#3F3D56"/>
<path d="M222.013 12.1455H212.498C212.31 12.1494 212.13 12.23 211.998 12.37C211.866 12.51 211.792 12.6982 211.792 12.8943C211.792 13.0903 211.866 13.2786 211.998 13.4185C212.13 13.5585 212.31 13.6391 212.498 13.643H222.013C222.202 13.6391 222.381 13.5585 222.514 13.4185C222.646 13.2786 222.72 13.0903 222.72 12.8943C222.72 12.6982 222.646 12.51 222.514 12.37C222.381 12.23 222.202 12.1494 222.013 12.1455Z" fill="#3F3D56"/>
<path d="M222.013 14.9524H212.498C212.31 14.9563 212.13 15.0369 211.998 15.1769C211.866 15.3169 211.792 15.5051 211.792 15.7011C211.792 15.8972 211.866 16.0854 211.998 16.2254C212.13 16.3654 212.31 16.446 212.498 16.4499H222.013C222.202 16.446 222.381 16.3654 222.514 16.2254C222.646 16.0854 222.72 15.8972 222.72 15.7011C222.72 15.5051 222.646 15.3169 222.514 15.1769C222.381 15.0369 222.202 14.9563 222.013 14.9524Z" fill="#3F3D56"/>
<path d="M114.647 61.6101H91.3808C90.5032 61.6101 89.7918 62.3495 89.7918 63.2616V65.8355C89.7918 66.7476 90.5032 67.487 91.3808 67.487H114.647C115.524 67.487 116.236 66.7476 116.236 65.8355V63.2616C116.236 62.3495 115.524 61.6101 114.647 61.6101Z" fill="#3333FF"/>
<path d="M128.076 73.3638H77.9509C77.0733 73.3638 76.3619 74.1032 76.3619 75.0152V77.5892C76.3619 78.5013 77.0733 79.2407 77.9509 79.2407H128.076C128.954 79.2407 129.665 78.5013 129.665 77.5892V75.0152C129.665 74.1032 128.954 73.3638 128.076 73.3638Z" fill="#E6E6E6"/>
<path d="M128.076 85.1177H77.9509C77.0733 85.1177 76.3619 85.8571 76.3619 86.7691V89.3431C76.3619 90.2552 77.0733 90.9946 77.9509 90.9946H128.076C128.954 90.9946 129.665 90.2552 129.665 89.3431V86.7691C129.665 85.8571 128.954 85.1177 128.076 85.1177Z" fill="#E6E6E6"/>
<path d="M80.7125 127.504C80.7164 129.925 80.3015 132.327 79.4875 134.595H61.2097C60.3789 134.593 59.5825 134.25 58.995 133.639C58.4075 133.028 58.0768 132.201 58.0754 131.337V107.445C59.0967 107.273 60.1295 107.187 61.1641 107.188C63.7313 107.188 66.2733 107.713 68.6451 108.734C71.0169 109.755 73.172 111.251 74.9873 113.138C76.8025 115.025 78.2425 117.264 79.2248 119.729C80.2072 122.194 80.7127 124.836 80.7125 127.504Z" fill="#3333FF"/>
<path opacity="0.2" d="M242.313 46.5699V44.8362H214.352V24.7432H212.691V44.8362H180.644V24.7432H178.983V44.8362H157.818C157.584 45.4119 157.356 45.9875 157.14 46.5699H178.983V80.5528H151.862C151.888 81.1352 151.928 81.7109 151.973 82.2865H178.983V109.396H158.75C158.998 109.978 159.258 110.554 159.532 111.123H178.983V133.911H180.644V111.122H212.691V133.911H214.352V111.122H242.313V109.396H214.352C214.352 105.836 215.027 102.31 216.338 99.0214C217.649 95.7323 219.57 92.7438 221.992 90.2265C224.414 87.7092 227.29 85.7124 230.454 84.35C233.619 82.9877 237.011 82.2865 240.436 82.2865H242.313V80.5528H214.352V46.5699H242.313ZM212.691 109.396H180.644V82.2865H212.691V109.396ZM212.691 80.5528H180.644V79.8755C180.644 71.0423 184.021 62.5709 190.03 56.3249C196.04 50.0789 204.191 46.5699 212.691 46.5699L212.691 80.5528Z" fill="black"/>
<path d="M219.8 121.764C219.444 121.781 219.091 121.684 218.789 121.485C218.487 121.287 218.252 120.997 218.114 120.654C217.976 120.312 217.943 119.934 218.019 119.571C218.095 119.209 218.276 118.879 218.538 118.627C218.582 118.446 218.614 118.316 218.658 118.134C218.642 118.095 218.626 118.055 218.61 118.016C217.007 114.043 211.574 114.071 209.985 118.049C208.574 121.581 206.778 125.118 206.335 128.852C206.141 130.502 206.223 132.175 206.578 133.796C203.265 126.284 201.544 118.12 201.533 109.856C201.532 107.782 201.643 105.71 201.865 103.649C202.049 101.96 202.303 100.282 202.628 98.617C204.404 89.5807 208.217 81.1112 213.755 73.9039C216.434 72.3842 218.602 70.0473 219.964 67.208C220.458 66.1874 220.807 65.0978 221 63.9733C220.698 64.0145 220.391 64.0403 220.088 64.0609C219.994 64.066 219.895 64.0711 219.801 64.0763L219.765 64.078C219.433 64.0935 219.104 64.0088 218.816 63.8342C218.529 63.6597 218.297 63.4025 218.147 63.0939C217.998 62.7852 217.937 62.4382 217.973 62.0945C218.008 61.7509 218.139 61.4252 218.348 61.1569C218.479 60.9899 218.61 60.823 218.74 60.6563C218.938 60.3987 219.142 60.1463 219.34 59.8888C219.363 59.8643 219.384 59.8385 219.404 59.8115C219.632 59.5179 219.86 59.2295 220.088 58.9359C219.672 58.2646 219.112 57.7023 218.453 57.2929C216.168 55.9022 213.016 56.8653 211.366 59.0132C209.71 61.161 209.398 64.1742 209.973 66.8577C210.464 69.1549 211.534 71.2616 212.739 73.2652C212.615 73.43 212.486 73.5897 212.362 73.7545C210.097 76.7813 208.123 80.0315 206.468 83.4586C206.871 79.6193 206.39 75.7356 205.067 72.1269C203.725 68.7638 201.211 65.9313 198.997 63.0238C196.337 59.5316 190.884 61.0557 190.415 65.4827C190.411 65.5256 190.406 65.5684 190.402 65.6112C190.731 65.8041 191.053 66.0087 191.368 66.2252C191.763 66.5 192.07 66.8926 192.247 67.3515C192.425 67.8105 192.465 68.3144 192.362 68.7973C192.259 69.2802 192.018 69.7195 191.67 70.0576C191.323 70.3958 190.886 70.617 190.415 70.6924L190.367 70.7001C190.484 71.932 190.692 73.1528 190.987 74.352C191.842 77.6998 193.354 80.8279 195.427 83.5401C197.5 86.2523 200.09 88.4901 203.035 90.1132C203.228 90.2162 203.416 90.3192 203.61 90.4171C201.947 95.314 200.904 100.415 200.507 105.591C200.282 108.645 200.296 111.713 200.547 114.765L200.532 114.656C199.898 111.263 198.156 108.201 195.601 105.988C191.806 102.748 186.445 101.555 182.351 98.9507C180.38 97.6971 177.855 99.3171 178.198 101.692C178.204 101.73 178.21 101.767 178.215 101.805C178.826 102.064 179.42 102.361 179.994 102.696C180.323 102.889 180.645 103.094 180.96 103.31C181.356 103.585 181.662 103.978 181.84 104.437C182.017 104.896 182.057 105.4 181.954 105.882C181.851 106.365 181.61 106.805 181.263 107.143C180.916 107.481 180.478 107.702 180.008 107.778L179.96 107.785C179.925 107.79 179.895 107.796 179.861 107.801C180.903 110.388 182.367 112.77 184.187 114.842C186.436 117.349 189.153 119.353 192.174 120.731C195.194 122.108 198.453 122.829 201.751 122.851H201.756C202.651 126.894 203.949 130.83 205.627 134.595H219.454C219.503 134.435 219.548 134.27 219.593 134.111C218.313 134.194 217.028 134.115 215.767 133.874C216.793 132.565 217.818 131.247 218.844 129.938C218.867 129.914 218.889 129.888 218.909 129.861C219.429 129.192 219.954 128.527 220.475 127.858L220.475 127.857C220.503 125.804 220.276 123.757 219.801 121.764L219.8 121.764ZM203.966 89.3921L203.974 89.3819L203.966 89.4024V89.3921ZM200.904 118.087L200.785 117.809C200.79 117.608 200.79 117.407 200.785 117.201C200.785 117.144 200.775 117.087 200.775 117.031C200.819 117.386 200.859 117.742 200.909 118.097L200.904 118.087Z" fill="#2F2E41"/>
<path d="M96.6743 88.1546V68.841C96.6743 65.8764 95.5412 63.0332 93.5241 60.9368C91.507 58.8405 88.7713 57.6628 85.9188 57.6628H46.5473C43.6948 57.6628 40.9591 58.8405 38.942 60.9368C36.9249 63.0332 35.7918 65.8764 35.7918 68.841V174.797C35.7918 177.762 36.9249 180.605 38.942 182.701C40.9591 184.797 43.6948 185.975 46.5473 185.975H85.9188C87.3312 185.975 88.7298 185.686 90.0348 185.124C91.3397 184.562 92.5254 183.739 93.5241 182.701C94.5228 181.663 95.3151 180.431 95.8556 179.075C96.3961 177.718 96.6743 176.265 96.6743 174.797V101.902C96.8542 101.902 97.0268 101.828 97.154 101.696C97.2812 101.564 97.3527 101.384 97.3527 101.197V88.8596C97.3527 88.6727 97.2812 88.4933 97.154 88.3611C97.0268 88.2289 96.8542 88.1546 96.6743 88.1546Z" fill="#E6E6E6"/>
<path d="M94.3853 68.9176V174.72C94.3856 176.918 93.5514 179.027 92.0641 180.589C90.5768 182.152 88.5564 183.041 86.4419 183.064C86.4127 183.067 86.3834 183.068 86.354 183.067H46.7909C44.661 183.067 42.6183 182.188 41.1122 180.622C39.6061 179.057 38.7599 176.934 38.7597 174.72V68.9176C38.7599 66.704 39.6061 64.5811 41.1122 63.0158C42.6183 61.4505 44.661 60.571 46.7909 60.5708H51.5921C51.3561 61.1732 51.2662 61.8266 51.3302 62.4737C51.3942 63.1207 51.6103 63.7414 51.9593 64.2812C52.3084 64.8211 52.7798 65.2635 53.332 65.5696C53.8842 65.8756 54.5004 66.0359 55.1262 66.0364H77.6819C78.3071 66.0346 78.9225 65.8734 79.4738 65.5669C80.0252 65.2604 80.4957 64.8179 80.8442 64.2784C81.1927 63.7389 81.4086 63.1187 81.4727 62.4723C81.5369 61.8258 81.4474 61.1729 81.2123 60.5708H86.354C88.484 60.571 90.5267 61.4505 92.0328 63.0157C93.5389 64.581 94.3851 66.704 94.3853 68.9176Z" fill="white"/>
<path d="M86.5408 179.802C86.5408 180.898 86.5079 181.985 86.4419 183.063C86.4127 183.067 86.3834 183.068 86.354 183.067H46.7909C44.661 183.067 42.6183 182.188 41.1122 180.622C39.6061 179.057 38.7599 176.934 38.7597 174.72V127.57C51.65 128.246 63.7976 134.043 72.6907 143.765C81.5839 153.486 86.5423 166.388 86.5408 179.802Z" fill="#F2F2F2"/>
<path d="M36.0093 98.9592C35.7666 98.9589 35.5339 98.8585 35.3623 98.6802C35.1906 98.5018 35.0941 98.2599 35.0938 98.0077V91.5372C35.0938 91.2849 35.1902 91.0428 35.3619 90.8644C35.5336 90.6859 35.7665 90.5857 36.0093 90.5857C36.2522 90.5857 36.485 90.6859 36.6567 90.8644C36.8284 91.0428 36.9249 91.2849 36.9249 91.5372V98.0077C36.9246 98.2599 36.8281 98.5018 36.6564 98.6802C36.4848 98.8585 36.2521 98.9589 36.0093 98.9592Z" fill="#E6E6E6"/>
<path d="M71.4302 93.793H61.7148C60.8372 93.793 60.1257 94.5324 60.1257 95.4444V98.0184C60.1257 98.9305 60.8372 99.6699 61.7148 99.6699H71.4302C72.3078 99.6699 73.0193 98.9305 73.0193 98.0184V95.4444C73.0193 94.5324 72.3078 93.793 71.4302 93.793Z" fill="#3333FF"/>
<path d="M84.8601 105.547H48.2849C47.4073 105.547 46.6958 106.286 46.6958 107.198V109.772C46.6958 110.684 47.4073 111.424 48.2849 111.424H84.8601C85.7377 111.424 86.4492 110.684 86.4492 109.772V107.198C86.4492 106.286 85.7377 105.547 84.8601 105.547Z" fill="#E6E6E6"/>
<path d="M84.8601 117.301H48.2849C47.4073 117.301 46.6958 118.04 46.6958 118.952V121.526C46.6958 122.438 47.4073 123.177 48.2849 123.177H84.8601C85.7377 123.177 86.4492 122.438 86.4492 121.526V118.952C86.4492 118.04 85.7377 117.301 84.8601 117.301Z" fill="#E6E6E6"/>
<path d="M76.0596 177.046C75.8923 177.054 75.7266 177.009 75.585 176.916C75.4434 176.822 75.3329 176.686 75.2682 176.526C75.2036 176.365 75.188 176.188 75.2237 176.017C75.2593 175.847 75.3444 175.693 75.4674 175.574L75.5234 175.343C75.516 175.325 75.5086 175.306 75.5012 175.288C75.3325 174.874 75.05 174.521 74.689 174.273C74.3281 174.026 73.9048 173.894 73.4723 173.896C73.0398 173.898 72.6174 174.032 72.2582 174.283C71.8991 174.533 71.6191 174.888 71.4534 175.303C70.7914 176.96 69.9485 178.62 69.741 180.372C69.6496 181.147 69.6881 181.932 69.8549 182.693C68.3 179.168 67.4926 175.336 67.4874 171.458C67.4871 170.485 67.5391 169.513 67.6432 168.546C67.7293 167.753 67.8487 166.966 68.0014 166.184C68.8348 161.944 70.6241 157.969 73.2225 154.587C74.4801 153.874 75.4971 152.777 76.1366 151.445C76.3682 150.966 76.5319 150.455 76.6226 149.927C76.4808 149.946 76.3366 149.959 76.1947 149.968C76.1505 149.971 76.104 149.973 76.0598 149.975L76.0431 149.976C75.8872 149.984 75.7326 149.944 75.5979 149.862C75.4632 149.78 75.3542 149.659 75.2839 149.514C75.2137 149.37 75.1852 149.207 75.2019 149.045C75.2187 148.884 75.2799 148.731 75.3783 148.605C75.4395 148.527 75.5008 148.449 75.5621 148.371C75.6552 148.25 75.7505 148.131 75.8435 148.01C75.8543 147.999 75.8644 147.987 75.8738 147.974C75.9808 147.836 76.0877 147.701 76.1947 147.563C75.9994 147.248 75.7368 146.984 75.4272 146.792C74.3551 146.14 72.876 146.592 72.1015 147.599C71.3248 148.607 71.1782 150.021 71.448 151.281C71.7133 152.352 72.1522 153.369 72.7457 154.287C72.6876 154.365 72.6271 154.44 72.569 154.517C71.5061 155.937 70.5798 157.463 69.8032 159.071C69.9921 157.269 69.7667 155.447 69.1456 153.753C68.5161 152.175 67.3362 150.846 66.2972 149.482C66.0224 149.115 65.6492 148.841 65.2248 148.695C64.8004 148.549 64.3439 148.537 63.9129 148.661C63.4819 148.784 63.0958 149.038 62.8034 149.389C62.511 149.741 62.3254 150.174 62.2702 150.635C62.268 150.656 62.266 150.676 62.2639 150.696C62.4183 150.786 62.5693 150.882 62.7171 150.984C62.9028 151.113 63.0467 151.297 63.1299 151.512C63.2131 151.728 63.2318 151.964 63.1835 152.191C63.1352 152.417 63.0222 152.624 62.8592 152.782C62.6963 152.941 62.491 153.045 62.2703 153.08L62.2477 153.084C62.3026 153.662 62.3998 154.235 62.5384 154.798C62.9398 156.369 63.6492 157.836 64.6221 159.109C65.595 160.382 66.8104 161.432 68.1921 162.194C68.2828 162.242 68.3711 162.29 68.4619 162.336C67.6816 164.634 67.1923 167.028 67.006 169.457C66.9005 170.89 66.9068 172.33 67.0246 173.762L67.0176 173.711C66.7199 172.119 65.9025 170.682 64.7036 169.643C62.9228 168.123 60.4068 167.563 58.4857 166.341C58.2815 166.205 58.0441 166.132 57.8015 166.131C57.5588 166.131 57.3211 166.202 57.1163 166.337C56.9115 166.473 56.7481 166.666 56.6456 166.894C56.543 167.123 56.5054 167.377 56.5373 167.627L56.5451 167.68C56.8315 167.802 57.1103 167.941 57.38 168.099C57.5343 168.189 57.6854 168.285 57.8332 168.387C58.0189 168.516 58.1628 168.7 58.246 168.915C58.3292 169.131 58.3479 169.367 58.2996 169.594C58.2513 169.82 58.1383 170.026 57.9753 170.185C57.8123 170.344 57.607 170.448 57.3863 170.483L57.3637 170.487C57.3475 170.489 57.3335 170.491 57.3172 170.494C57.8065 171.708 58.4933 172.826 59.3475 173.798C60.4027 174.975 61.678 175.915 63.0953 176.561C64.5126 177.208 66.042 177.546 67.5897 177.557H67.592C68.0122 179.454 68.6209 181.301 69.4084 183.067H75.897C75.9203 182.992 75.9412 182.915 75.9621 182.84C75.3615 182.879 74.7586 182.842 74.1667 182.729C74.6481 182.115 75.1295 181.496 75.611 180.882C75.6217 180.871 75.6318 180.859 75.6412 180.846C75.8854 180.532 76.1319 180.22 76.3761 179.906L76.3762 179.906C76.3893 178.942 76.2827 177.981 76.0596 177.046ZM68.6293 161.855L68.6327 161.851L68.6293 161.86V161.855ZM67.192 175.321L67.1362 175.19C67.1385 175.096 67.1385 175.002 67.1362 174.905C67.1362 174.878 67.1316 174.852 67.1316 174.825C67.1525 174.992 67.1711 175.159 67.1943 175.326L67.192 175.321Z" fill="#CCCCCC"/>
<path d="M35.8262 86.3991C35.5835 86.3988 35.3508 86.2985 35.1792 86.1201C35.0075 85.9417 34.911 85.6999 34.9107 85.4476V78.9772C34.9107 78.7248 35.0071 78.4828 35.1788 78.3043C35.3505 78.1259 35.5834 78.0256 35.8262 78.0256C36.0691 78.0256 36.3019 78.1259 36.4736 78.3043C36.6453 78.4828 36.7418 78.7248 36.7418 78.9772V85.4476C36.7415 85.6999 36.645 85.9417 36.4733 86.1201C36.3017 86.2985 36.069 86.3988 35.8262 86.3991Z" fill="#E6E6E6"/>
<path d="M60.1801 61.6593C60.1804 61.407 60.2769 61.1652 60.4485 60.9868C60.6202 60.8084 60.8529 60.7081 61.0956 60.7078H67.3214C67.5642 60.7078 67.7971 60.808 67.9688 60.9865C68.1405 61.1649 68.237 61.4069 68.237 61.6593C68.237 61.9117 68.1405 62.1537 67.9688 62.3321C67.7971 62.5106 67.5642 62.6108 67.3214 62.6108H61.0956C60.8529 62.6105 60.6202 62.5102 60.4485 62.3318C60.2769 62.1534 60.1804 61.9116 60.1801 61.6593Z" fill="white"/>
<path d="M36.0093 109.997C35.7666 109.997 35.5339 109.896 35.3623 109.718C35.1906 109.54 35.0941 109.298 35.0938 109.045V102.575C35.0938 102.323 35.1902 102.081 35.3619 101.902C35.5336 101.724 35.7665 101.624 36.0093 101.624C36.2522 101.624 36.485 101.724 36.6567 101.902C36.8284 102.081 36.9249 102.323 36.9249 102.575V109.045C36.9246 109.298 36.8281 109.54 36.6564 109.718C36.4848 109.896 36.2521 109.997 36.0093 109.997Z" fill="#E6E6E6"/>
<path d="M70.8005 62.6108C71.3062 62.6108 71.7161 62.1848 71.7161 61.6593C71.7161 61.1338 71.3062 60.7078 70.8005 60.7078C70.2949 60.7078 69.885 61.1338 69.885 61.6593C69.885 62.1848 70.2949 62.6108 70.8005 62.6108Z" fill="white"/>
<path d="M314.564 185.973L0.436145 186.09C0.320715 186.089 0.210129 186.041 0.128625 185.956C0.0471218 185.871 0.0013504 185.756 0.0013504 185.636C0.0013504 185.516 0.0471218 185.401 0.128625 185.316C0.210129 185.231 0.320715 185.183 0.436145 185.183L314.564 185.066C314.68 185.066 314.791 185.114 314.872 185.199C314.954 185.284 315 185.399 315 185.519C315 185.64 314.954 185.755 314.872 185.84C314.791 185.925 314.68 185.973 314.564 185.973Z" fill="#CACACA"/>
<path d="M134.321 86.0589L132.669 86.4269C132.658 85.7086 132.572 84.9937 132.412 84.2948C132.261 85.1507 131.945 85.9657 131.481 86.6902L122.005 88.7935L112.907 78.8147C112.893 73.8254 115.559 70.0337 120.339 70.0337C120.627 70.0337 120.925 70.0482 121.227 70.077C123.81 69.6278 126.459 70.2375 128.618 71.7778C130.777 73.3181 132.276 75.6688 132.801 78.3349C136.188 81.8019 134.96 83.8402 134.321 86.0589Z" fill="#2F2E41"/>
<path d="M138.98 202.757H142.417L144.053 188.977L138.979 188.977L138.98 202.757Z" fill="#FFB6B6"/>
<path d="M138.127 200.995L143.561 200.657V203.077L148.727 206.785C148.983 206.968 149.175 207.231 149.276 207.536C149.377 207.841 149.382 208.171 149.29 208.479C149.197 208.786 149.013 209.055 148.763 209.246C148.513 209.437 148.211 209.54 147.901 209.54H141.432L140.317 207.147L139.881 209.54H137.442L138.127 200.995Z" fill="#2F2E41"/>
<path d="M98.7085 198.868L101.698 200.631L109.664 189.485L105.251 186.883L98.7085 198.868Z" fill="#FFB6B6"/>
<path d="M98.8038 196.898L103.69 199.392L102.541 201.496L105.274 207.371C105.409 207.661 105.451 207.989 105.394 208.306C105.337 208.622 105.185 208.912 104.958 209.132C104.732 209.353 104.444 209.492 104.136 209.53C103.828 209.568 103.516 209.503 103.247 209.344L97.6201 206.026L97.7867 203.372L96.2716 205.23L94.1501 203.979L98.8038 196.898Z" fill="#2F2E41"/>
<path d="M151.686 88.4733C151.245 88.5395 150.824 88.7053 150.452 88.959C150.08 89.2127 149.766 89.548 149.532 89.9415C149.298 90.335 149.15 90.777 149.098 91.2364C149.046 91.6958 149.092 92.1615 149.232 92.6005L143.972 97.3322L145.959 101.356L153.297 94.5651C153.991 94.2717 154.558 93.7238 154.889 93.0253C155.22 92.3269 155.294 91.5263 155.095 90.7754C154.896 90.0245 154.44 89.3754 153.811 88.9511C153.183 88.5268 152.427 88.3568 151.686 88.4733Z" fill="#FFB6B6"/>
<path d="M146.389 104.744C144.634 107.506 140.702 110.174 134.866 112.538C134.544 112.672 134.198 112.735 133.852 112.724C133.505 112.712 133.165 112.625 132.852 112.47C130.649 111.428 129.238 107.555 129.105 107.18L124.84 101.199C124.764 101.112 122.769 98.7594 122.997 96.4463C123.049 95.9616 123.201 95.4942 123.442 95.0762C123.684 94.6582 124.01 94.2995 124.397 94.0248C127.626 91.537 134.863 100.177 135.803 101.326L140.526 98.3355L143.967 96.7397L146.745 93.2263L150.657 97.3828L147.139 103.2C146.951 103.745 146.699 104.264 146.389 104.744Z" fill="#2F2E41"/>
<path d="M134.121 115.341C134.121 115.341 144.228 132.073 142.397 133.976C140.566 135.879 137.717 136.379 137.717 136.379L131.41 127.886L134.121 115.341Z" fill="#2F2E41"/>
<path d="M125.185 92.489L129.948 95.8381C132.162 97.3947 133.828 99.6592 134.692 102.288C135.555 104.917 135.571 107.768 134.735 110.407L133.394 114.643L125.185 92.489Z" fill="#2F2E41"/>
<path d="M116.761 138.163L116.125 140.468L113.951 168.268L103.094 189.297L108.276 193.144L123.081 173.141L128.937 153.279L138.134 197.247L145.043 196.734L140.244 135.773L131.139 118.614L116.761 138.163Z" fill="#2F2E41"/>
<path d="M124.375 93.3311L131.004 98.9623C132.46 100.198 133.507 101.875 134.002 103.759C134.226 104.615 134.333 105.499 134.319 106.386L134.121 118.614L140.2 135.498C140.2 135.498 123.72 141.969 121.522 136.259C119.325 130.55 124.375 93.3311 124.375 93.3311Z" fill="#3333FF"/>
<path d="M126.358 139.223C118.125 139.223 116.118 139.288 115.988 139.26L115.858 139.233V134.087L117.86 124.841C117.626 121.971 117.078 118.186 117.128 114.945C117.307 103.232 116.753 91.7897 116.753 91.7897L121.111 87.6096L123.09 88.9484L126.762 92.7644C131.03 103.681 134.417 113.958 134.438 114.619L134.706 125.983L133.608 130.55C128.638 134.197 133.179 139.223 126.358 139.223Z" fill="#2F2E41"/>
<path opacity="0.2" d="M118.6 101.994L117.599 108.487L124.375 111.391L118.6 101.994Z" fill="black"/>
<path d="M125.425 86.3916C129.089 86.3916 132.059 83.3049 132.059 79.4973C132.059 75.6897 129.089 72.603 125.425 72.603C121.762 72.603 118.792 75.6897 118.792 79.4973C118.792 83.3049 121.762 86.3916 125.425 86.3916Z" fill="#FFB6B6"/>
<path opacity="0.2" d="M114.31 114.478C116.076 116.603 118.47 118.058 121.118 118.614C123.766 119.17 126.516 118.796 128.937 117.551L130.381 116.808L114.31 114.478Z" fill="black"/>
<path d="M137.394 112.891C137.098 112.546 136.733 112.272 136.324 112.089C135.915 111.906 135.473 111.818 135.028 111.832C134.583 111.846 134.146 111.961 133.749 112.17C133.352 112.378 133.003 112.674 132.728 113.038L126.03 111.083L123.894 115.024L133.39 117.646C134.008 118.086 134.761 118.275 135.504 118.178C136.247 118.08 136.93 117.702 137.424 117.116C137.917 116.53 138.187 115.777 138.181 114.998C138.176 114.219 137.895 113.47 137.394 112.891Z" fill="#FFB6B6"/>
<path d="M121.41 117.264C118.226 117.265 113.917 115.324 108.802 111.566C108.517 111.361 108.276 111.096 108.095 110.789C107.913 110.482 107.795 110.139 107.748 109.782C107.37 107.298 109.702 103.939 109.93 103.617L112.381 96.6223C112.41 96.5087 113.199 93.4821 115.182 92.4053C115.6 92.1828 116.059 92.0568 116.527 92.036C116.996 92.0153 117.464 92.1002 117.898 92.285C121.675 93.7144 118.726 104.752 118.321 106.2L123.325 108.648L126.503 110.753L130.855 111.226L129.673 116.909L123.064 117.064C122.523 117.201 121.967 117.269 121.41 117.264Z" fill="#2F2E41"/>
<path d="M133.38 74.962C132.849 75.6799 131.02 76.3148 128.847 76.8271C128.85 76.7802 128.85 76.7333 128.85 76.6864C128.839 75.9681 128.753 75.2532 128.593 74.5543C128.443 75.4102 128.126 76.2253 127.663 76.9498C127.628 77.0039 127.594 77.058 127.555 77.1121C125.691 77.4945 123.72 77.7904 122.175 77.9888C123.237 81.9644 127.309 85.2257 126.868 87.6429L114.937 90.1754C115.011 89.171 114.933 88.1608 114.708 87.1811C114.48 88.4741 113.877 89.6637 112.98 90.5903L111.966 90.8067L111.664 89.2591C109.047 82.7256 112.695 76.0371 118.672 72.5773C119.738 70.9169 121.393 69.7625 123.275 69.3665L124.765 69.049C125.704 68.8493 126.672 68.8438 127.613 69.0329C128.554 69.2219 129.451 69.6018 130.251 70.1509C131.051 70.7 131.739 71.4075 132.276 72.2329C132.813 73.0584 133.188 73.9858 133.38 74.962Z" fill="#2F2E41"/>
<path d="M161.881 199.95L162.057 195.827C163.896 194.806 165.947 194.266 168.033 194.255C165.163 196.694 165.521 201.395 163.576 204.674C162.961 205.692 162.134 206.554 161.156 207.194C160.178 207.835 159.073 208.239 157.924 208.375L155.523 209.904C155.193 207.994 155.266 206.033 155.736 204.156C156.205 202.278 157.061 200.529 158.244 199.028C158.916 198.193 159.686 197.45 160.537 196.815C161.112 198.391 161.881 199.95 161.881 199.95Z" fill="#F2F2F2"/>
<path d="M167.703 210H84.0646C83.9491 210 83.8385 209.952 83.757 209.867C83.6755 209.782 83.6298 209.667 83.6298 209.547C83.6298 209.427 83.6755 209.312 83.757 209.227C83.8385 209.142 83.9491 209.094 84.0646 209.094H167.703C167.761 209.094 167.818 209.105 167.871 209.128C167.924 209.151 167.972 209.184 168.013 209.226C168.053 209.268 168.085 209.318 168.107 209.373C168.129 209.428 168.141 209.487 168.141 209.547C168.141 209.607 168.129 209.666 168.107 209.721C168.085 209.776 168.053 209.826 168.013 209.868C167.972 209.91 167.924 209.943 167.871 209.966C167.818 209.989 167.761 210 167.703 210Z" fill="#CACACA"/>
</g>
<defs>
<clipPath id="clip0_6_552">
<rect width="315" height="210" fill="white"/>
</clipPath>
</defs>
</svg>
